<svg width="545" height="573" viewBox="0 0 545 573" fill="none" xmlns="http://www.w3.org/2000/svg">
<path d="M40 72C40 55.4314 53.4315 42 70 42H545V573H40V72Z" fill="#EBF4FF"/>
<path d="M1.5 30C1.5 14.2599 14.2599 1.5 30 1.5H543.5V571.5H1.5V30Z" stroke="#EBF4FF" stroke-width="3"/>
<path opacity="0.15" d="M471.671 534C505.074 534 532.152 532.127 532.152 529.816C532.152 527.505 505.074 525.632 471.671 525.632C438.269 525.632 411.191 527.505 411.191 529.816C411.191 532.127 438.269 534 471.671 534Z" fill="#5468FF"/>
<path opacity="0.15" d="M231.651 534C316.943 534 386.086 531.786 386.086 529.055C386.086 526.324 316.943 524.11 231.651 524.11C146.36 524.11 77.217 526.324 77.217 529.055C77.217 531.786 146.36 534 231.651 534Z" fill="#5468FF"/>
<path opacity="0.6" d="M178.117 107.746H2.16817C0.97072 107.746 0 108.717 0 109.914V209.026C0 210.223 0.97072 211.194 2.16817 211.194H178.117C179.314 211.194 180.285 210.223 180.285 209.026V109.914C180.285 108.717 179.314 107.746 178.117 107.746Z" fill="#5468FF"/>
<path d="M174.07 113.284H6.98389V205.648H174.07V113.284Z" fill="white"/>
<path opacity="0.05" d="M174.07 113.284H6.98389V205.648H174.07V113.284Z" fill="#5468FF"/>
<path d="M47.5931 136.008C47.5931 136.008 56.494 136.061 57.7341 141.866C58.9741 147.671 57.871 154.19 59.3925 158.276C60.9141 162.361 65.6384 173.75 55.4974 174.396C45.3565 175.043 43.6981 172.114 41.218 172.03C38.7379 171.947 35.0102 177.911 27.6612 174.487C20.3123 171.064 23.5151 163.396 26.6875 162.429C29.8598 161.463 28.6274 156.016 27.859 154.19C26.269 150.387 25.0975 138.717 35.9307 135.278C44.6947 132.493 47.5931 136.008 47.5931 136.008Z" fill="#000D44"/>
<path d="M39.0496 157.089C38.3877 164.902 37.8628 174.16 34.6448 180.749C35.0023 183.913 36.7597 189.931 44.9074 189.726C51.8151 189.543 53.8616 185.222 54.4245 182.011C51.1989 176.526 49.2362 169.147 48.7873 161.889C45.6302 161.874 41.2482 158.671 39.0496 157.089Z" fill="#EFAB89"/>
<path d="M41.3549 138.93C41.3549 138.93 52.5305 139.47 54.8432 141.775C57.1559 144.08 57.0494 148.781 57.6885 155.659C58.3275 162.536 54.1053 170.113 50.3776 171.133C46.6498 172.152 36.41 165.731 34.9798 155.027C33.5495 144.323 37.0871 138.572 41.3549 138.93Z" fill="#F5B58F"/>
<path d="M137.796 144.202C123.821 138.8 114.213 144.202 114.213 144.202V177.622C123.502 173.004 137.796 177.622 137.796 177.622C137.796 177.622 152.091 173.004 161.38 177.622V144.202C161.38 144.202 151.772 138.793 137.796 144.202Z" fill="white"/>
<path d="M137.797 145.967V175.568C137.797 175.568 124.757 171.475 116.282 175.568V145.967C116.282 145.967 125.046 141.174 137.797 145.967Z" fill="white"/>
<path d="M137.796 145.967V175.568C137.796 175.568 150.836 171.475 159.31 175.568V145.967C159.31 145.967 150.546 141.174 137.796 145.967Z" fill="white"/>
<path d="M135.72 149.398C130.141 147.287 123.983 147.287 118.405 149.398L118.093 148.728C123.852 146.546 130.211 146.546 135.971 148.728L135.72 149.398Z" fill="white"/>
<path d="M135.72 151.223C130.141 149.113 123.983 149.113 118.405 151.223L118.093 150.554C123.852 148.371 130.211 148.371 135.971 150.554L135.72 151.223Z" fill="white"/>
<path d="M135.72 153.087C130.141 150.977 123.983 150.977 118.405 153.087L118.093 152.418C123.852 150.235 130.211 150.235 135.971 152.418L135.72 153.087Z" fill="white"/>
<path d="M118.238 154.784L117.956 154.099C120.877 153.092 123.959 152.633 127.047 152.745V153.506C124.058 153.402 121.074 153.835 118.238 154.784Z" fill="white"/>
<path d="M135.72 160.824C130.141 158.713 123.983 158.713 118.405 160.824L118.093 160.155C123.852 157.972 130.211 157.972 135.971 160.155L135.72 160.824Z" fill="white"/>
<path d="M135.72 162.635C130.141 160.524 123.983 160.524 118.405 162.635L118.093 161.965C123.852 159.783 130.211 159.783 135.971 161.965L135.72 162.635Z" fill="white"/>
<path d="M135.72 168.926C130.141 166.815 123.983 166.815 118.405 168.926L118.093 168.257C123.852 166.074 130.211 166.074 135.971 168.257L135.72 168.926Z" fill="white"/>
<path d="M135.72 170.767C130.141 168.656 123.983 168.656 118.405 170.767L118.093 170.098C123.852 167.916 130.211 167.916 135.971 170.098L135.72 170.767Z" fill="white"/>
<path d="M135.72 172.616C130.141 170.505 123.983 170.505 118.405 172.616L118.093 171.947C123.852 169.764 130.211 169.764 135.971 171.947L135.72 172.616Z" fill="white"/>
<path d="M157.241 149.398C151.663 147.287 145.505 147.287 139.926 149.398L139.615 148.728C145.374 146.545 151.733 146.545 157.492 148.728L157.241 149.398Z" fill="white"/>
<path d="M157.241 151.223C151.663 149.113 145.505 149.113 139.926 151.223L139.615 150.554C145.374 148.371 151.733 148.371 157.492 150.554L157.241 151.223Z" fill="white"/>
<path d="M157.241 153.087C151.663 150.977 145.505 150.977 139.926 153.087L139.615 152.418C145.374 150.235 151.733 150.235 157.492 152.418L157.241 153.087Z" fill="white"/>
<path d="M157.241 154.928C151.663 152.818 145.505 152.818 139.926 154.928L139.615 154.259C145.374 152.076 151.733 152.076 157.492 154.259L157.241 154.928Z" fill="white"/>
<path d="M157.241 156.769C151.663 154.659 145.505 154.659 139.926 156.769L139.615 156.1C145.374 153.917 151.733 153.917 157.492 156.1L157.241 156.769Z" fill="white"/>
<path d="M157.241 158.61C151.663 156.5 145.505 156.5 139.926 158.61L139.615 157.941C145.374 155.758 151.733 155.758 157.492 157.941L157.241 158.61Z" fill="white"/>
<path d="M157.363 160.353L157.645 159.668C154.728 158.651 151.648 158.182 148.561 158.283V159.044C151.55 158.951 154.531 159.394 157.363 160.353Z" fill="white"/>
<path d="M139.622 163.943V171.003C139.622 171.003 145.214 168.143 157.5 171.003V163.943C157.5 163.943 150.524 160.459 139.622 163.943Z" fill="white"/>
<path d="M142.544 159.067V144.559C141.298 144.835 140.069 145.18 138.862 145.594V159.067L140.703 157.218L142.544 159.067Z" fill="white"/>
<path opacity="0.2" d="M137.796 144.202C123.821 138.8 114.213 144.202 114.213 144.202V177.622C123.502 173.004 137.796 177.622 137.796 177.622C137.796 177.622 152.091 173.004 161.38 177.622V144.202C161.38 144.202 151.772 138.793 137.796 144.202Z" fill="#5468FF"/>
<path opacity="0.2" d="M137.797 145.967V175.568C137.797 175.568 124.757 171.475 116.282 175.568V145.967C116.282 145.967 125.046 141.174 137.797 145.967Z" fill="#5468FF"/>
<path opacity="0.2" d="M137.796 145.967V175.568C137.796 175.568 150.836 171.475 159.31 175.568V145.967C159.31 145.967 150.546 141.174 137.796 145.967Z" fill="#5468FF"/>
<path opacity="0.35" d="M135.72 149.398C130.141 147.287 123.983 147.287 118.405 149.398L118.093 148.728C123.852 146.546 130.211 146.546 135.971 148.728L135.72 149.398Z" fill="#5468FF"/>
<path opacity="0.35" d="M135.72 151.223C130.141 149.113 123.983 149.113 118.405 151.223L118.093 150.554C123.852 148.371 130.211 148.371 135.971 150.554L135.72 151.223Z" fill="#5468FF"/>
<path opacity="0.35" d="M135.72 153.087C130.141 150.977 123.983 150.977 118.405 153.087L118.093 152.418C123.852 150.235 130.211 150.235 135.971 152.418L135.72 153.087Z" fill="#5468FF"/>
<path opacity="0.35" d="M118.238 154.784L117.956 154.099C120.877 153.092 123.959 152.633 127.047 152.745V153.506C124.058 153.402 121.074 153.835 118.238 154.784Z" fill="#5468FF"/>
<path opacity="0.35" d="M135.72 160.824C130.141 158.713 123.983 158.713 118.405 160.824L118.093 160.155C123.852 157.972 130.211 157.972 135.971 160.155L135.72 160.824Z" fill="#5468FF"/>
<path opacity="0.35" d="M135.72 162.635C130.141 160.524 123.983 160.524 118.405 162.635L118.093 161.965C123.852 159.783 130.211 159.783 135.971 161.965L135.72 162.635Z" fill="#5468FF"/>
<path opacity="0.35" d="M135.72 168.926C130.141 166.815 123.983 166.815 118.405 168.926L118.093 168.257C123.852 166.074 130.211 166.074 135.971 168.257L135.72 168.926Z" fill="#5468FF"/>
<path opacity="0.35" d="M135.72 170.767C130.141 168.656 123.983 168.656 118.405 170.767L118.093 170.098C123.852 167.916 130.211 167.916 135.971 170.098L135.72 170.767Z" fill="#5468FF"/>
<path opacity="0.35" d="M135.72 172.616C130.141 170.505 123.983 170.505 118.405 172.616L118.093 171.947C123.852 169.764 130.211 169.764 135.971 171.947L135.72 172.616Z" fill="#5468FF"/>
<path opacity="0.35" d="M157.241 149.398C151.663 147.287 145.505 147.287 139.926 149.398L139.615 148.728C145.374 146.545 151.733 146.545 157.492 148.728L157.241 149.398Z" fill="#5468FF"/>
<path opacity="0.35" d="M157.241 151.223C151.663 149.113 145.505 149.113 139.926 151.223L139.615 150.554C145.374 148.371 151.733 148.371 157.492 150.554L157.241 151.223Z" fill="#5468FF"/>
<path opacity="0.35" d="M157.241 153.087C151.663 150.977 145.505 150.977 139.926 153.087L139.615 152.418C145.374 150.235 151.733 150.235 157.492 152.418L157.241 153.087Z" fill="#5468FF"/>
<path opacity="0.35" d="M157.241 154.928C151.663 152.818 145.505 152.818 139.926 154.928L139.615 154.259C145.374 152.076 151.733 152.076 157.492 154.259L157.241 154.928Z" fill="#5468FF"/>
<path opacity="0.35" d="M157.241 156.769C151.663 154.659 145.505 154.659 139.926 156.769L139.615 156.1C145.374 153.917 151.733 153.917 157.492 156.1L157.241 156.769Z" fill="#5468FF"/>
<path opacity="0.35" d="M157.241 158.61C151.663 156.5 145.505 156.5 139.926 158.61L139.615 157.941C145.374 155.758 151.733 155.758 157.492 157.941L157.241 158.61Z" fill="#5468FF"/>
<path opacity="0.35" d="M157.363 160.353L157.645 159.668C154.728 158.651 151.648 158.182 148.561 158.283V159.044C151.55 158.951 154.531 159.394 157.363 160.353Z" fill="#5468FF"/>
<path opacity="0.35" d="M139.622 163.943V171.003C139.622 171.003 145.214 168.143 157.5 171.003V163.943C157.5 163.943 150.524 160.459 139.622 163.943Z" fill="#5468FF"/>
<path d="M125.335 170.379C125.335 170.379 130.805 164.293 132.943 160.969C135.08 157.644 142.832 146.819 144.468 148.523C146.104 150.227 139.356 159.173 139.356 159.173C139.356 159.173 145.876 147.557 148.158 148.835C150.44 150.113 142.072 160.353 142.072 160.353C142.072 160.353 149.139 150.463 150.356 151.878C151.574 153.293 150.128 155.423 144.27 162.612C144.27 162.612 149.261 156.412 150.47 158.367C151.68 160.322 145.982 165.784 143.989 166.994C141.996 168.204 132.189 173.415 129.534 175.971C129.588 175.956 124.901 173.536 125.335 170.379Z" fill="#F5B58F"/>
<path d="M61.249 139.812C59.9862 138.062 55.4749 131.36 42.0855 135.529C36.8058 135.308 34.8811 139.333 33.778 144.46C32.4162 150.767 32.4162 155.491 30.1948 164.141C27.9734 172.791 32.1271 176.131 37.6274 174.077C43.1277 172.023 40.0847 163.16 38.7229 159.006C38.3426 157.74 38.2483 156.406 38.447 155.099C38.6457 153.793 39.1323 152.547 39.8717 151.452C41.2562 151.255 42.5587 150.676 43.6335 149.782C44.7083 148.887 45.513 147.711 45.9577 146.385C47.7144 147.712 49.843 148.454 52.0438 148.507C62.451 148.994 62.5499 141.6 61.249 139.812Z" fill="#000D44"/>
<path d="M51.3817 175.4C50.1351 177.045 48.72 178.554 47.1595 179.904C46.7205 180.349 46.1679 180.665 45.5619 180.817C44.785 180.858 44.0168 180.638 43.3785 180.193C40.9599 178.852 38.6682 177.294 36.5317 175.537C31.7149 178.295 26.5193 180.33 21.1111 181.578C15.9075 182.772 13.9371 185.442 11.7461 190.182C9.48135 195.079 8.08609 200.333 7.6228 205.709H75.1403C74.8629 204.267 74.8629 202.785 75.1403 201.342C78.48 205.58 84.6802 205.907 90.0816 205.831L104.376 205.686C105.16 205.723 105.944 205.628 106.697 205.405C107.581 205.015 108.374 204.445 109.025 203.731C118.361 194.756 126.941 185.026 134.677 174.64L126.514 166.545C117.543 176.308 108.259 185.775 98.663 194.944C98.1497 195.571 97.419 195.981 96.6165 196.093C95.9773 196.02 95.3753 195.754 94.8896 195.332C89.5592 191.688 84.427 187.762 79.5146 183.571C78.5018 182.607 77.3472 181.804 76.0912 181.19C74.8128 180.73 73.4703 180.474 72.1124 180.429C64.9613 179.836 57.4526 179.265 51.3817 175.4Z" fill="#5468FF"/>
<path d="M515.468 337.96H430.104V375.092H515.468V337.96Z" fill="white"/>
<path d="M515.468 379.056H430.104V416.189H515.468V379.056Z" fill="white"/>
<path opacity="0.3" d="M527.2 320.576H418.365V327.705H421.401V512.645H427.198L427.692 529.671H432.059L437.476 512.645H508.097L513.514 529.671H517.88L518.367 512.645H524.164V327.705H527.2V320.576Z" fill="#5468FF"/>
<path d="M515.468 420.152H430.104V457.285H515.468V420.152Z" fill="white"/>
<path d="M515.468 461.248H430.104V498.381H515.468V461.248Z" fill="white"/>
<path opacity="0.8" d="M515.468 337.96H430.104V375.092H515.468V337.96Z" fill="white"/>
<path opacity="0.8" d="M515.468 379.056H430.104V416.189H515.468V379.056Z" fill="white"/>
<path opacity="0.8" d="M515.468 337.96H430.104V375.092H515.468V337.96Z" fill="#5468FF"/>
<path opacity="0.8" d="M515.468 379.056H430.104V416.189H515.468V379.056Z" fill="#5468FF"/>
<path opacity="0.8" d="M515.468 420.152H430.104V457.285H515.468V420.152Z" fill="#5468FF"/>
<path opacity="0.8" d="M515.468 461.248H430.104V498.381H515.468V461.248Z" fill="#5468FF"/>
<path d="M472.782 485.494C475.921 485.494 478.465 482.95 478.465 479.811C478.465 476.672 475.921 474.128 472.782 474.128C469.644 474.128 467.099 476.672 467.099 479.811C467.099 482.95 469.644 485.494 472.782 485.494Z" fill="#5468FF"/>
<path d="M67.9512 352.064C67.9512 349.782 70.7432 347.986 74.1894 347.986H387.037C390.483 347.986 393.275 349.812 393.275 352.064V359.497H370.3V528.188H362.632V359.497H100.23V528.386H92.5465V359.497H67.9512V352.064Z" fill="white"/>
<path opacity="0.3" d="M67.9512 352.064C67.9512 349.782 70.7432 347.986 74.1894 347.986H387.037C390.483 347.986 393.275 349.812 393.275 352.064V359.497H370.3V528.188H362.632V359.497H100.23V528.386H92.5465V359.497H67.9512V352.064Z" fill="#5468FF"/>
<path d="M113.262 233.279V317.442L145.214 316.932L178.687 316.4L189.262 316.225L223.093 315.685L243.565 315.357V233.279C243.565 231.867 243.004 230.512 242.005 229.513C241.006 228.515 239.652 227.954 238.239 227.954H118.595C117.895 227.953 117.201 228.09 116.554 228.357C115.907 228.624 115.319 229.016 114.824 229.511C114.329 230.005 113.936 230.593 113.668 231.239C113.4 231.886 113.262 232.579 113.262 233.279Z" fill="#5468FF"/>
<path d="M472.782 362.213C475.921 362.213 478.465 359.668 478.465 356.53C478.465 353.391 475.921 350.847 472.782 350.847C469.644 350.847 467.099 353.391 467.099 356.53C467.099 359.668 469.644 362.213 472.782 362.213Z" fill="#5468FF"/>
<path opacity="0.15" d="M113.262 233.279V317.442L145.214 316.932L178.687 316.4L189.262 316.225L223.093 315.685L243.565 315.357V233.279C243.565 231.867 243.004 230.512 242.005 229.513C241.006 228.515 239.652 227.954 238.239 227.954H118.595C117.895 227.953 117.201 228.09 116.554 228.357C115.907 228.624 115.319 229.016 114.824 229.511C114.329 230.005 113.936 230.593 113.668 231.239C113.4 231.886 113.262 232.579 113.262 233.279Z" fill="#000D44"/>
<path d="M472.782 403.309C475.921 403.309 478.465 400.765 478.465 397.626C478.465 394.488 475.921 391.943 472.782 391.943C469.644 391.943 467.099 394.488 467.099 397.626C467.099 400.765 469.644 403.309 472.782 403.309Z" fill="#5468FF"/>
<path d="M238.232 235.173H118.618C118.345 235.173 118.123 235.395 118.123 235.668V309.91C118.123 310.183 118.345 310.405 118.618 310.405H238.232C238.505 310.405 238.727 310.183 238.727 309.91V235.668C238.727 235.395 238.505 235.173 238.232 235.173Z" fill="white"/>
<path d="M238.727 235.219V241.434C238.565 241.474 238.398 241.487 238.232 241.472H118.618C118.452 241.487 118.285 241.474 118.123 241.434V235.219C118.285 235.179 118.452 235.166 118.618 235.181H238.24C238.403 235.167 238.567 235.18 238.727 235.219Z" fill="white"/>
<path opacity="0.3" d="M238.727 235.219V241.434C238.565 241.474 238.398 241.487 238.232 241.472H118.618C118.452 241.487 118.285 241.474 118.123 241.434V235.219C118.285 235.179 118.452 235.166 118.618 235.181H238.24C238.403 235.167 238.567 235.18 238.727 235.219Z" fill="#5468FF"/>
<path d="M113.262 314.947V318.91C113.262 321.987 114.484 324.938 116.66 327.114C118.835 329.29 121.786 330.512 124.863 330.512H159.402V342.402H150.615C149.808 342.402 149.034 342.723 148.463 343.294C147.893 343.864 147.572 344.638 147.572 345.446C147.572 346.253 147.893 347.027 148.463 347.597C149.034 348.168 149.808 348.489 150.615 348.489H205.093C205.9 348.489 206.674 348.168 207.245 347.597C207.816 347.027 208.136 346.253 208.136 345.446C208.136 344.638 207.816 343.864 207.245 343.294C206.674 342.723 205.9 342.402 205.093 342.402H192.442V330.512H231.963C235.04 330.512 237.991 329.29 240.167 327.114C242.342 324.938 243.565 321.987 243.565 318.91V314.947H113.262Z" fill="#5468FF"/>
<path opacity="0.3" d="M163.244 267.742H192.777V249.476H163.244V267.742Z" fill="#5468FF"/>
<path opacity="0.3" d="M128.972 267.742H158.504V249.476H128.972V267.742Z" fill="#5468FF"/>
<path opacity="0.3" d="M196.991 286.099H231.058V249.468H196.991V286.099Z" fill="#5468FF"/>
<path opacity="0.3" d="M131.064 276.81H190.692C191.843 276.81 192.777 275.877 192.777 274.725V274.063C192.777 272.912 191.843 271.979 190.692 271.979H131.064C129.913 271.979 128.979 272.912 128.979 274.063V274.725C128.979 275.877 129.913 276.81 131.064 276.81Z" fill="#5468FF"/>
<path opacity="0.3" d="M131.064 286.015H190.692C191.843 286.015 192.777 285.082 192.777 283.93V283.269C192.777 282.117 191.843 281.184 190.692 281.184H131.064C129.913 281.184 128.979 282.117 128.979 283.269V283.93C128.979 285.082 129.913 286.015 131.064 286.015Z" fill="#5468FF"/>
<path d="M472.782 444.398C475.921 444.398 478.465 441.853 478.465 438.715C478.465 435.576 475.921 433.032 472.782 433.032C469.644 433.032 467.099 435.576 467.099 438.715C467.099 441.853 469.644 444.398 472.782 444.398Z" fill="#5468FF"/>
<path opacity="0.3" d="M131.155 295.083H229.073C230.224 295.083 231.157 294.15 231.157 292.999V292.337C231.157 291.186 230.224 290.252 229.073 290.252H131.155C130.004 290.252 129.071 291.186 129.071 292.337V292.999C129.071 294.15 130.004 295.083 131.155 295.083Z" fill="#5468FF"/>
<path opacity="0.3" d="M131.155 303.459H229.073C230.224 303.459 231.157 302.526 231.157 301.375V300.713C231.157 299.562 230.224 298.628 229.073 298.628H131.155C130.004 298.628 129.071 299.562 129.071 300.713V301.375C129.071 302.526 130.004 303.459 131.155 303.459Z" fill="#5468FF"/>
<path d="M234.816 507.259C231.549 507.091 228.274 507.162 225.018 507.472C220.293 507.921 214.162 509.237 213.18 514.76C213.12 514.949 213.108 515.149 213.145 515.343C213.182 515.537 213.268 515.719 213.393 515.871C213.616 516.027 213.882 516.107 214.154 516.099C225.31 517.108 236.528 517.233 247.704 516.472C247.702 513.597 247.447 510.728 246.943 507.898C243.9 508.302 240.781 507.769 237.7 507.472C236.721 507.366 235.76 507.295 234.816 507.259Z" fill="#000D44"/>
<path d="M201.936 507.381C200.623 507.34 199.307 507.32 197.988 507.32C194.781 507.221 191.577 507.592 188.479 508.423C186.957 508.895 185.534 509.313 184.72 510.766C183.942 512.159 183.556 513.736 183.602 515.331C183.591 515.519 183.642 515.706 183.747 515.863C183.92 516.024 184.149 516.112 184.386 516.107C194.695 517.174 205.081 517.276 215.409 516.411C215.396 513.863 215.185 511.319 214.778 508.804C214.767 508.611 214.695 508.427 214.573 508.279C214.404 508.153 214.197 508.088 213.987 508.096C209.97 507.799 205.976 507.503 201.936 507.381Z" fill="#000D44"/>
<path d="M277.929 383.605C246.182 382.662 228.038 390.102 226.516 399.924C224.995 409.745 232.184 507.069 232.184 507.069C232.184 507.069 237.707 510.112 246.935 508.317C246.935 508.317 252.907 475.939 254.794 460.541C256.681 445.143 254.954 424.215 254.954 424.215C254.954 424.215 284.623 434.607 302.577 423.287C320.531 411.966 304.152 380.532 304.152 380.532L277.929 383.605Z" fill="#1B255E"/>
<path d="M245.725 383.605C213.979 382.662 195.804 390.072 194.321 399.916C192.837 409.76 200.407 507.008 200.407 507.008C200.407 507.008 204.971 509.861 214.74 508.606C214.74 508.606 220.712 475.931 222.598 460.533C224.485 445.136 222.758 424.207 222.758 424.207C222.758 424.207 252.428 434.599 270.382 423.279C288.336 411.959 271.956 380.524 271.956 380.524L245.725 383.605Z" fill="#1B255E"/>
<path d="M258.72 223.922C256.627 228.957 255.25 234.26 254.627 239.677C254.627 239.677 251.751 244.713 251.705 246.524C251.66 248.334 254.376 249.088 254.376 249.088C254.376 249.088 254.376 259.038 256.871 262.188C259.366 265.337 268.214 265.421 268.214 265.421C268.214 265.421 269.309 268.221 266.692 279.168H291.539C291.539 279.168 288.602 271.279 288.07 258.734C287.537 246.189 293.41 223.922 258.72 223.922Z" fill="#F5B58F"/>
<path d="M294.057 220.704C293.551 220.15 292.985 219.655 292.368 219.228C289.925 217.491 287.14 216.295 284.198 215.721C280.348 214.861 276.385 214.656 272.505 213.925C268.021 212.948 263.615 211.647 259.321 210.03C259.068 209.903 258.791 209.83 258.509 209.814C258.226 209.799 257.943 209.841 257.677 209.939C257.465 210.1 257.289 210.302 257.158 210.533C257.027 210.765 256.945 211.021 256.917 211.286C256.43 213.365 256.345 215.519 256.666 217.63L255.015 216.109C254.565 218.058 254.73 220.099 255.486 221.951C256.141 223.823 257.077 225.595 257.693 227.482C258.933 231.286 258.811 235.417 258.263 239.388C258.035 240.46 258.017 241.565 258.21 242.644C258.318 243.18 258.59 243.669 258.988 244.044C259.386 244.418 259.89 244.66 260.431 244.736C260.486 243.486 260.813 242.263 261.39 241.153C261.692 240.605 262.161 240.168 262.729 239.905C263.297 239.642 263.934 239.568 264.547 239.692C265.719 240.05 266.358 241.336 266.548 242.545C266.821 244.275 266.473 246.045 265.567 247.543C265.133 248.243 264.562 248.981 264.699 249.826C264.807 250.244 265.01 250.632 265.293 250.959L268.039 254.664C269.137 256.334 270.517 257.802 272.117 259C274.049 260.153 276.243 260.795 278.492 260.864C280.66 261.073 282.848 260.887 284.951 260.317C285.827 260.103 286.637 259.677 287.309 259.076C287.855 258.469 288.285 257.768 288.58 257.007C290.074 253.794 291.367 250.491 292.452 247.117C294.451 240.672 295.359 233.938 295.137 227.193C295.177 225.468 295.047 223.743 294.749 222.043C294.628 221.548 294.391 221.089 294.057 220.704Z" fill="#000D44"/>
<path d="M295.966 371.167C298.69 369.151 301.657 366.899 304.487 364.541C310.915 359.139 316.659 353.274 317.374 349.006C318.941 339.436 317.716 310.968 316.955 297.563C316.955 296.757 316.879 295.996 316.834 295.281C316.073 282.592 308.161 277.312 304.753 275.25C303.011 291.743 300.188 328.64 299.854 330.55C299.428 332.999 295.966 371.167 295.966 371.167Z" fill="#5468FF"/>
<path d="M295.875 275.729C295.875 275.729 294.353 269.408 292.68 267.833C291.006 266.258 280.454 266.159 277.084 266.585C273.714 267.011 263.649 269.56 262.553 270.389C261.458 271.218 259.807 275.714 259.807 275.714L295.875 275.729Z" fill="#5468FF"/>
<path opacity="0.25" d="M295.875 275.729C295.875 275.729 294.353 269.408 292.68 267.833C291.006 266.258 280.454 266.159 277.084 266.585C273.714 267.011 263.649 269.56 262.553 270.389C261.458 271.218 259.807 275.714 259.807 275.714L295.875 275.729Z" fill="#000D44"/>
<path d="M314.27 292.261C315.647 269.758 291.546 271.888 291.546 271.888C260.865 269.971 246.456 278.811 244.79 291.987C244.668 292.923 244.592 293.927 244.523 294.984C243.763 308.579 247.886 330.527 249.849 346.921C249.849 347.226 249.91 347.538 249.94 347.842C250.541 356.971 245.725 383.598 245.725 383.598C245.725 383.598 258.217 386.116 277.868 386.116C297.518 386.116 305.59 384.267 305.59 384.267C305.59 384.267 302.242 359.208 305.59 341.665C308.678 326.198 313.486 305.316 314.27 292.261Z" fill="#5468FF"/>
<path d="M179.927 348.26C180.464 346.412 181.316 344.669 182.446 343.11C184.294 340.592 189.924 340.257 198.733 341.292C199.342 341.064 221.374 332.84 231.104 331.836C232.1 326.51 234.078 316.377 236.323 306.342C239.107 308.473 244.158 308.305 254.452 310.656C249.461 322.569 243.542 340.987 243.542 340.987C236.695 350.877 211.385 349.204 202.18 348.222L179.927 348.26Z" fill="#F5B58F"/>
<path d="M337.846 529.139C337.534 529.219 337.209 529.236 336.89 529.187C336.571 529.138 336.266 529.025 335.993 528.854C335.719 528.683 335.484 528.458 335.3 528.193C335.116 527.928 334.989 527.629 334.924 527.313L305.879 423.72L314.437 421.141L339.542 525.921C339.711 526.572 339.631 527.263 339.317 527.858C339.003 528.453 338.479 528.91 337.846 529.139Z" fill="white"/>
<path d="M216.018 529.139C216.33 529.219 216.655 529.236 216.974 529.187C217.293 529.138 217.598 529.025 217.871 528.854C218.145 528.683 218.38 528.458 218.564 528.193C218.747 527.928 218.875 527.629 218.939 527.313L247.985 423.72L239.449 421.141L214.344 525.921C214.174 526.569 214.251 527.258 214.561 527.852C214.87 528.447 215.389 528.906 216.018 529.139Z" fill="white"/>
<path d="M261.587 305.726L265.102 274.915C265.102 274.915 251.043 273.797 244.851 278.993C242.568 280.941 237.342 293.562 234.466 306.381C237.251 308.511 245.033 312.139 255.326 314.49C257.974 309.34 260.355 305.536 261.587 305.726Z" fill="#5468FF"/>
<path d="M251.576 529.2C251.898 529.238 252.226 529.211 252.538 529.121C252.85 529.03 253.141 528.879 253.394 528.675C253.647 528.471 253.857 528.218 254.011 527.932C254.165 527.646 254.26 527.332 254.292 527.009L271.485 420.396L262.713 418.95L249.56 526.217C249.452 526.878 249.601 527.554 249.976 528.109C250.351 528.663 250.923 529.053 251.576 529.2Z" fill="white"/>
<path d="M303.84 529.2C303.517 529.238 303.19 529.211 302.878 529.121C302.566 529.03 302.275 528.879 302.022 528.675C301.769 528.471 301.559 528.218 301.405 527.932C301.251 527.646 301.156 527.332 301.124 527.009L283.931 420.396L292.703 418.95L305.856 526.217C305.962 526.878 305.812 527.553 305.438 528.107C305.063 528.661 304.492 529.051 303.84 529.2Z" fill="white"/>
<path opacity="0.4" d="M337.846 529.139C337.534 529.219 337.209 529.236 336.89 529.187C336.571 529.138 336.266 529.025 335.993 528.854C335.719 528.683 335.484 528.458 335.3 528.193C335.116 527.928 334.989 527.629 334.924 527.313L305.879 423.72L314.437 421.141L339.542 525.921C339.711 526.572 339.631 527.263 339.317 527.858C339.003 528.453 338.479 528.91 337.846 529.139Z" fill="#5468FF"/>
<path opacity="0.4" d="M216.018 529.139C216.33 529.219 216.655 529.236 216.974 529.187C217.293 529.138 217.598 529.025 217.871 528.854C218.145 528.683 218.38 528.458 218.564 528.193C218.747 527.928 218.875 527.629 218.939 527.313L247.985 423.72L239.449 421.141L214.344 525.921C214.174 526.569 214.251 527.258 214.561 527.852C214.87 528.447 215.389 528.906 216.018 529.139Z" fill="#5468FF"/>
<path opacity="0.4" d="M251.576 529.2C251.898 529.238 252.226 529.211 252.538 529.121C252.85 529.03 253.141 528.879 253.394 528.675C253.647 528.471 253.857 528.218 254.011 527.932C254.165 527.646 254.26 527.332 254.292 527.009L271.485 420.396L262.713 418.95L249.56 526.217C249.452 526.878 249.601 527.554 249.976 528.109C250.351 528.663 250.923 529.053 251.576 529.2Z" fill="#5468FF"/>
<path opacity="0.4" d="M303.84 529.2C303.517 529.238 303.19 529.211 302.878 529.121C302.566 529.03 302.275 528.879 302.022 528.675C301.769 528.471 301.559 528.218 301.405 527.932C301.251 527.646 301.156 527.332 301.124 527.009L283.931 420.396L292.703 418.95L305.856 526.217C305.962 526.878 305.812 527.553 305.438 528.107C305.063 528.661 304.492 529.051 303.84 529.2Z" fill="#5468FF"/>
<path d="M346.055 316.521C345.842 318.614 345.377 320.673 344.67 322.653C337.466 345.476 343.795 370.36 340.493 394.066C339.056 404.397 335.434 414.971 327.56 421.811C319.687 428.65 309.036 430.696 298.773 431.701C269.682 434.622 241.092 429.844 212.998 421.735C210.388 420.974 207.246 420.677 205.39 418.691C203.534 416.706 202.453 413.594 204.416 411.715C206.12 410.087 208.821 410.3 211.157 410.65C221.48 412.172 232.777 414.097 241.747 408.756C248.51 404.732 252.542 397.223 254.398 389.585C256.254 381.947 256.239 373.989 256.779 366.146C257.715 352.551 260.439 338.758 267.232 326.776C273.265 316.126 288.396 310.839 299.717 308.876L301.238 308.625C313.41 306.768 325.894 307.811 338.165 309.226C340.448 309.484 342.89 309.85 344.48 311.508C345.084 312.183 345.538 312.98 345.809 313.844C346.081 314.709 346.164 315.622 346.055 316.521Z" fill="white"/>
<path opacity="0.3" d="M346.055 316.521C345.842 318.614 345.377 320.673 344.67 322.653C337.466 345.476 343.795 370.36 340.493 394.066C339.056 404.397 335.434 414.971 327.561 421.811C319.687 428.65 309.036 430.696 298.773 431.701C269.682 434.622 241.093 429.844 212.998 421.735C210.388 420.974 206.486 420.677 204.629 418.691C202.773 416.706 202.454 413.594 204.416 411.715C206.12 410.087 208.821 410.3 211.157 410.65C221.48 412.172 232.777 414.097 241.747 408.756C248.51 404.732 252.542 397.223 254.398 389.585C256.254 381.947 256.239 373.989 256.779 366.146C257.715 352.551 260.439 338.758 267.232 326.776C273.265 316.126 288.397 310.839 299.717 308.876L301.238 308.625C313.41 306.768 325.895 307.811 338.166 309.226C340.448 309.484 342.89 309.85 344.48 311.508C345.084 312.183 345.538 312.98 345.809 313.844C346.081 314.709 346.165 315.622 346.055 316.521Z" fill="#5468FF"/>
<path d="M346.351 316.544V316.674C346.283 317.115 346.199 317.609 346.077 318.195C345.887 318.956 345.659 319.793 345.385 320.675C343.917 325.514 341.482 332.186 340.95 344.883C340.509 355.457 342.304 369.82 341.513 382.921C340.722 396.021 338.47 414.264 324.776 424.055C322.13 425.983 319.209 427.501 316.111 428.559C313.383 429.518 310.585 430.266 307.743 430.795C303.276 431.605 298.759 432.116 294.224 432.324C291.386 432.484 288.541 432.56 285.742 432.583C280.028 432.629 274.505 432.461 269.651 432.324L266.076 432.233C264.615 432.233 262.98 432.111 261.177 431.974C256.863 431.647 251.697 431.039 246.243 430.225C243.436 429.806 240.552 429.327 237.669 428.81C221.693 425.926 205.839 421.697 203.83 417.977C203.163 416.898 202.894 415.619 203.07 414.363C203.092 414.172 203.133 413.983 203.191 413.8C203.317 413.414 203.497 413.048 203.724 412.712C204.059 412.218 211.605 415.405 212.336 415.687C230.655 422.701 255.836 417.87 258.917 395.367C261.526 376.196 260.712 357.709 267.673 339.2C281.367 302.759 335.465 312.733 346.29 315.145C346.372 315.606 346.393 316.077 346.351 316.544Z" fill="#5468FF"/>
<path opacity="0.3" d="M515.08 300.903C513.946 303.461 513.397 306.24 513.475 309.037C513.553 311.834 514.254 314.578 515.529 317.069H425.714L425.265 299.807L515.08 300.903Z" fill="#5468FF"/>
<path opacity="0.4" d="M514.898 301.793H425.265V302.493H514.898V301.793Z" fill="#5468FF"/>
<path opacity="0.4" d="M514.898 303.201H425.265V303.908H514.898V303.201Z" fill="#5468FF"/>
<path opacity="0.4" d="M514.898 305.315H425.265V306.015H514.898V305.315Z" fill="#5468FF"/>
<path opacity="0.4" d="M514.898 307.423H425.265V308.13H514.898V307.423Z" fill="#5468FF"/>
<path opacity="0.4" d="M514.898 308.83H425.265V309.538H514.898V308.83Z" fill="#5468FF"/>
<path opacity="0.4" d="M514.898 310.238H425.265V310.945H514.898V310.238Z" fill="#5468FF"/>
<path opacity="0.4" d="M514.898 312.352H425.265V313.052H514.898V312.352Z" fill="#5468FF"/>
<path opacity="0.4" d="M514.898 314.46H425.265V315.16H514.898V314.46Z" fill="#5468FF"/>
<path d="M426.482 306.928V305.186C426.482 303.779 426.604 302.143 427.783 301.382C428.511 301.007 429.333 300.849 430.149 300.926H516.875V296.262H431.898C430.085 296.167 428.267 296.357 426.512 296.825C423.195 297.906 421.263 301.778 420.632 305.011C419.986 308.881 420.678 312.855 422.594 316.278C423.308 317.839 424.495 319.135 425.987 319.983C427.355 320.512 428.823 320.73 430.286 320.622H516.883V315.951H430.156C429.343 316.027 428.524 315.868 427.798 315.494C426.611 314.734 426.489 313.075 426.489 311.691L426.482 306.928Z" fill="#5468FF"/>
<path opacity="0.3" d="M504.955 281.473C504.107 283.389 503.697 285.469 503.755 287.563C503.813 289.657 504.337 291.711 505.29 293.577H437.947L437.612 280.644L504.955 281.473Z" fill="#5468FF"/>
<path opacity="0.4" d="M504.848 282.143H437.612V282.668H504.848V282.143Z" fill="#5468FF"/>
<path opacity="0.4" d="M504.848 283.2H437.612V283.725H504.848V283.2Z" fill="#5468FF"/>
<path opacity="0.4" d="M504.848 284.782H437.612V285.307H504.848V284.782Z" fill="#5468FF"/>
<path opacity="0.4" d="M504.848 286.365H437.612V286.89H504.848V286.365Z" fill="#5468FF"/>
<path opacity="0.4" d="M504.848 287.422H437.612V287.947H504.848V287.422Z" fill="#5468FF"/>
<path opacity="0.4" d="M504.848 288.48H437.612V289.005H504.848V288.48Z" fill="#5468FF"/>
<path opacity="0.4" d="M504.848 290.062H437.612V290.587H504.848V290.062Z" fill="#5468FF"/>
<path opacity="0.4" d="M504.848 291.645H437.612V292.169H504.848V291.645Z" fill="#5468FF"/>
<path d="M438.51 286V284.28C438.51 281.237 440.982 281.473 440.982 281.473H506.331V277.966H440.29C439.189 277.903 438.104 278.253 437.247 278.948L437.08 279.1L436.988 279.191C435.741 280.454 430.902 286.175 436.471 294.254C436.859 294.902 437.422 295.428 438.094 295.772C438.767 296.116 439.522 296.265 440.275 296.202H506.293V292.725H440.944C440.944 292.725 438.472 292.968 438.472 289.918V285.992L438.51 286Z" fill="#5468FF"/>
<path opacity="0.15" d="M438.525 286V284.691C438.525 283.634 438.616 282.409 439.507 281.823C440.052 281.542 440.668 281.423 441.279 281.481H506.332V277.989H442.55C441.169 277.913 439.786 278.067 438.457 278.445C436.03 279.282 434.562 282.249 434.113 284.653C433.662 287.534 434.198 290.483 435.634 293.022C436.163 294.173 437.038 295.13 438.137 295.76C439.167 296.163 440.275 296.33 441.378 296.247H506.339V292.725H441.272C440.663 292.781 440.05 292.662 439.507 292.382C438.616 291.812 438.525 290.572 438.525 289.507V286Z" fill="#000D44"/>
</svg>
