<svg width="74" height="73" viewBox="0 0 74 73" fill="none" xmlns="http://www.w3.org/2000/svg">
<path d="M1.30404 0H52.2492C52.595 0 52.9267 0.136276 53.1713 0.37885C53.4158 0.621423 53.5532 0.950423 53.5532 1.29347V35.4998C53.5532 35.8429 53.4158 36.1719 53.1713 36.4145C52.9267 36.657 52.595 36.7933 52.2492 36.7933H1.30404C0.958183 36.7933 0.626492 36.657 0.381931 36.4145C0.137375 36.1719 -1.90735e-05 35.8429 -1.90735e-05 35.4998V1.29347C-1.90735e-05 0.950423 0.137375 0.621423 0.381931 0.37885C0.626492 0.136276 0.958183 0 1.30404 0Z" fill="#5468FF"/>
<path opacity="0.2" d="M1.30404 0H52.2492C52.595 0 52.9267 0.136276 53.1713 0.37885C53.4158 0.621423 53.5532 0.950423 53.5532 1.29347V35.4998C53.5532 35.8429 53.4158 36.1719 53.1713 36.4145C52.9267 36.657 52.595 36.7933 52.2492 36.7933H1.30404C0.958183 36.7933 0.626492 36.657 0.381931 36.4145C0.137375 36.1719 -1.90735e-05 35.8429 -1.90735e-05 35.4998V1.29347C-1.90735e-05 0.950423 0.137375 0.621423 0.381931 0.37885C0.626492 0.136276 0.958183 0 1.30404 0Z" fill="#000D44"/>
<path d="M1.71947 1.26704H51.8374V34.2513H1.71947V1.26704Z" fill="#5468FF"/>
<path opacity="0.1" d="M1.71947 1.29744H51.8374V6.2137H1.71947V1.29744Z" fill="#000D44"/>
<path opacity="0.4" d="M30.361 6.27182H51.8374V34.25H30.361V6.27182Z" fill="white"/>
<path d="M4.63163 21.8397H5.03125V21.7076H4.76484V21.4434H4.63163V21.8397Z" fill="white"/>
<path d="M5.71042 21.8345H6.38976V21.7023H5.71042V21.8345ZM7.06776 21.8345H7.7471V21.7023H7.06776V21.8345ZM8.42644 21.8345H9.10578V21.7023H8.42644V21.8345ZM9.78378 21.8345H10.4631V21.7023H9.78378V21.8345ZM11.1425 21.8345H11.8271V21.7023H11.1478L11.1425 21.8345ZM12.4998 21.8345H13.1792V21.7023H12.4998V21.8345ZM13.8585 21.8345H14.5378V21.7023H13.8585V21.8345ZM15.2158 21.8345H15.8952V21.7023H15.2158V21.8345ZM16.5745 21.8345H17.2539V21.7023H16.5745V21.8345ZM17.9319 21.8345H18.6112V21.7023H17.9319V21.8345ZM19.2865 21.8345H19.9659V21.7023H19.2865V21.8345ZM20.6439 21.8345H21.3232V21.7023H20.6439V21.8345ZM22.0026 21.8345H22.6819V21.7023H22.0026V21.8345ZM23.3599 21.8345H24.0393V21.7023H23.3599V21.8345ZM24.7186 21.8345H25.3979V21.7023H24.7186V21.8345ZM26.0799 21.8345H26.7593V21.7023H26.0799V21.8345Z" fill="white"/>
<path d="M27.4388 21.8397H27.8384V21.4434H27.7052V21.7076H27.4388V21.8397Z" fill="white"/>
<path d="M27.7052 20.7775H27.8384V20.1169H27.7052V20.7775ZM27.7052 19.4563H27.8384V18.7957H27.7052V19.4563ZM27.7052 18.135H27.8384V17.4744H27.7052V18.135ZM27.7052 16.8138H27.8384V16.1532H27.7052V16.8138ZM27.7052 15.4926H27.8384V14.832H27.7052V15.4926ZM27.7052 14.1714H27.8384V13.5108H27.7052V14.1714ZM27.7052 12.8502H27.8384V12.1896H27.7052V12.8502ZM27.7052 11.5289H27.8384V10.8683H27.7052V11.5289ZM27.7052 10.2077H27.8384V9.54712H27.7052V10.2077Z" fill="white"/>
<path d="M27.7052 8.872H27.8384V8.47563H27.4388V8.60775H27.7052V8.872Z" fill="white"/>
<path d="M5.71042 8.60775H6.38976V8.47563H5.71042V8.60775ZM7.06776 8.60775H7.7471V8.47563H7.06776V8.60775ZM8.42644 8.60775H9.10578V8.47563H8.42644V8.60775ZM9.78378 8.60775H10.4631V8.47563H9.78378V8.60775ZM11.1425 8.60775H11.8271V8.47563H11.1478L11.1425 8.60775ZM12.4998 8.60775H13.1792V8.47563H12.4998V8.60775ZM13.8585 8.60775H14.5378V8.47563H13.8585V8.60775ZM15.2158 8.60775H15.8952V8.47563H15.2158V8.60775ZM16.5745 8.60775H17.2539V8.47563H16.5745V8.60775ZM17.9319 8.60775H18.6112V8.47563H17.9319V8.60775ZM19.2905 8.60775H19.9699V8.47563H19.2865L19.2905 8.60775ZM20.6479 8.60775H21.3272V8.47563H20.6479V8.60775ZM22.0066 8.60775H22.6859V8.47563H22.0066V8.60775ZM23.3639 8.60775H24.0433V8.47563H23.3639V8.60775ZM24.7226 8.60775H25.4019V8.47563H24.7226V8.60775ZM26.0799 8.60775H26.7593V8.47563H26.0799V8.60775Z" fill="white"/>
<path d="M4.63163 8.872H4.76484V8.60775H5.03125V8.47563H4.63163V8.872Z" fill="white"/>
<path d="M4.63438 20.7775H4.76758V20.1169H4.63438V20.7775ZM4.63438 19.4563H4.76758V18.7957H4.63438V19.4563ZM4.63438 18.135H4.76758V17.4744H4.63438V18.135ZM4.63438 16.8138H4.76758V16.1532H4.63438V16.8138ZM4.63438 15.4926H4.76758V14.832H4.63438V15.4926ZM4.63438 14.1714H4.76758V13.5108H4.63438V14.1714ZM4.63438 12.8502H4.76758V12.1896H4.63438V12.8502ZM4.63438 11.5289H4.76758V10.8683H4.63438V11.5289ZM4.63438 10.2077H4.76758V9.54712H4.63438V10.2077Z" fill="white"/>
<path d="M4.31322 8.15854H5.08447V8.92352H4.31322V8.15854Z" fill="#5468FF" stroke="white" stroke-miterlimit="10"/>
<path d="M4.31322 21.3905H5.08447V22.1555H4.31322V21.3905Z" fill="#5468FF" stroke="white" stroke-miterlimit="10"/>
<path d="M27.3855 8.15854H28.1567V8.92352H27.3855V8.15854Z" fill="#5468FF" stroke="white" stroke-miterlimit="10"/>
<path d="M27.3855 21.3905H28.1567V22.1555H27.3855V21.3905Z" fill="#5468FF" stroke="white" stroke-miterlimit="10"/>
<path d="M15.8484 8.15854H16.6196V8.92352H15.8484V8.15854Z" fill="#5468FF" stroke="white" stroke-miterlimit="10"/>
<path d="M15.8484 21.3905H16.6196V22.1555H15.8484V21.3905Z" fill="#5468FF" stroke="white" stroke-miterlimit="10"/>
<path d="M27.3855 14.7752H28.1567V15.5402H27.3855V14.7752Z" fill="#5468FF" stroke="white" stroke-miterlimit="10"/>
<path d="M6.58422 12.9863H12.6477C12.7867 12.9863 12.8994 13.0981 12.8994 13.236V15.1465C12.8994 15.2844 12.7867 15.3962 12.6477 15.3962H6.58422C6.44518 15.3962 6.33247 15.2844 6.33247 15.1465V13.236C6.33247 13.0981 6.44518 12.9863 6.58422 12.9863Z" fill="white"/>
<path d="M16.3176 12.9863H22.3811C22.5201 12.9863 22.6328 13.0981 22.6328 13.236V15.1465C22.6328 15.2844 22.5201 15.3962 22.3811 15.3962H16.3176C16.1786 15.3962 16.0659 15.2844 16.0659 15.1465V13.236C16.0659 13.0981 16.1786 12.9863 16.3176 12.9863Z" fill="white"/>
<path d="M5.02686 3.04543H3.35915" stroke="white" stroke-width="1.5" stroke-linecap="round" stroke-linejoin="round"/>
<path d="M5.02686 3.83022H3.35915" stroke="white" stroke-width="1.5" stroke-linecap="round" stroke-linejoin="round"/>
<path d="M5.02686 4.61502H3.35915" stroke="white" stroke-width="1.5" stroke-linecap="round" stroke-linejoin="round"/>
<path d="M31.6306 10.6094H48.4409V27.2832H31.6306V10.6094Z" fill="white"/>
<path d="M41.337 11.9729H41.4702V26.3543H41.337V11.9729Z" fill="#5468FF"/>
<path d="M34.1532 26.4204C35.1223 26.4334 36.0844 26.2553 36.9835 25.8964C37.8826 25.5376 38.7008 25.0051 39.3908 24.3299C40.0807 23.6548 40.6285 22.8504 41.0024 21.9636C41.3763 21.0767 41.5688 20.1249 41.5688 19.1636C41.5688 18.2023 41.3763 17.2506 41.0024 16.3637C40.6285 15.4769 40.0807 14.6725 39.3908 13.9973C38.7008 13.3222 37.8826 12.7897 36.9835 12.4309C36.0844 12.072 35.1223 11.8939 34.1532 11.9068V12.039C35.1048 12.0261 36.0494 12.2009 36.9322 12.5532C37.8151 12.9055 38.6185 13.4282 39.296 14.0911C39.9734 14.7539 40.5114 15.5437 40.8785 16.4145C41.2457 17.2853 41.4347 18.2198 41.4347 19.1636C41.4347 20.1075 41.2457 21.042 40.8785 21.9128C40.5114 22.7836 39.9734 23.5733 39.296 24.2362C38.6185 24.8991 37.8151 25.4218 36.9322 25.7741C36.0494 26.1264 35.1048 26.3012 34.1532 26.2883V26.4204Z" fill="#5468FF"/>
<path d="M33.8403 11.6624H34.4663V12.2834H33.8403V11.6624Z" fill="#5468FF"/>
<path d="M33.8403 26.0439H34.4663V26.6648H33.8403V26.0439Z" fill="#5468FF"/>
<path d="M41.0907 18.8538H41.7168V19.4748H41.0907V18.8538Z" fill="white"/>
<path d="M41.023 19.5408H41.7822V18.7878H41.023V19.5408ZM41.649 19.4087H41.1562V18.9199H41.649V19.4087Z" fill="#5468FF"/>
<path d="M41.4039 12.1341C41.3141 12.1341 41.2414 12.0619 41.2414 11.9729C41.2414 11.8838 41.3141 11.8117 41.4039 11.8117C41.4936 11.8117 41.5664 11.8838 41.5664 11.9729C41.5664 12.0619 41.4936 12.1341 41.4039 12.1341Z" fill="#5468FF"/>
<path d="M41.4039 26.5155C41.3141 26.5155 41.2414 26.4434 41.2414 26.3544C41.2414 26.2653 41.3141 26.1932 41.4039 26.1932C41.4936 26.1932 41.5664 26.2653 41.5664 26.3544C41.5664 26.4434 41.4936 26.5155 41.4039 26.5155Z" fill="#5468FF"/>
<path d="M4.75014 25.1375H24.1033C24.2093 25.1375 24.3109 25.0958 24.3859 25.0214C24.4608 24.9471 24.5029 24.8463 24.5029 24.7412C24.5029 24.636 24.4608 24.5352 24.3859 24.4609C24.3109 24.3866 24.2093 24.3448 24.1033 24.3448H4.74881C4.64282 24.3448 4.54119 24.3866 4.46624 24.4609C4.3913 24.5352 4.34919 24.636 4.34919 24.7412C4.34919 24.7933 4.35957 24.845 4.37974 24.8932C4.3999 24.9413 4.42946 24.9851 4.46671 25.0219C4.50396 25.0587 4.54817 25.0879 4.59681 25.1077C4.64544 25.1276 4.69755 25.1377 4.75014 25.1375Z" fill="white"/>
<path d="M4.75014 28.0032H24.1033C24.2093 28.0032 24.3109 27.9615 24.3859 27.8871C24.4608 27.8128 24.5029 27.712 24.5029 27.6069C24.5029 27.5017 24.4608 27.4009 24.3859 27.3266C24.3109 27.2523 24.2093 27.2105 24.1033 27.2105H4.74881C4.64282 27.2105 4.54119 27.2523 4.46624 27.3266C4.3913 27.4009 4.34919 27.5017 4.34919 27.6069C4.34919 27.659 4.35957 27.7107 4.37974 27.7588C4.3999 27.807 4.42946 27.8508 4.46671 27.8876C4.50396 27.9244 4.54817 27.9536 4.59681 27.9734C4.64544 27.9933 4.69755 28.0034 4.75014 28.0032Z" fill="white"/>
<path d="M4.7499 30.8703H16.8035C16.9095 30.8703 17.0111 30.8285 17.0861 30.7542C17.161 30.6799 17.2031 30.579 17.2031 30.4739C17.2031 30.3688 17.161 30.268 17.0861 30.1937C17.0111 30.1193 16.9095 30.0776 16.8035 30.0776H4.7499C4.64392 30.0776 4.54228 30.1193 4.46733 30.1937C4.39239 30.268 4.35029 30.3688 4.35029 30.4739C4.35029 30.579 4.39239 30.6799 4.46733 30.7542C4.54228 30.8285 4.64392 30.8703 4.7499 30.8703Z" fill="white"/>
<path d="M49.1445 2.66093H50.2554V3.76283H49.1445V2.66093Z" fill="white"/>
<path d="M47.1766 2.66093H47.9039C48.0098 2.66093 48.0957 2.74611 48.0957 2.85119V3.57258C48.0957 3.67765 48.0098 3.76283 47.9039 3.76283H47.1766C47.0707 3.76283 46.9848 3.67765 46.9848 3.57258V2.85119C46.9848 2.74611 47.0707 2.66093 47.1766 2.66093Z" fill="white"/>
<path d="M45.1679 2.66093H45.5942C45.7833 2.66093 45.9365 2.81296 45.9365 3.00049V3.42328C45.9365 3.61081 45.7833 3.76283 45.5942 3.76283H45.1679C44.9789 3.76283 44.8256 3.61081 44.8256 3.42328V3.00049C44.8256 2.81296 44.9789 2.66093 45.1679 2.66093Z" fill="white"/>
<path d="M40.2101 17.6938L39.3136 14.4806L40.8122 16.255C40.7717 16.312 40.7512 16.3806 40.7538 16.4503C40.7565 16.52 40.7821 16.5869 40.8268 16.6408C40.8533 16.6763 40.8868 16.706 40.9253 16.7282C40.9638 16.7504 41.0064 16.7646 41.0506 16.7698C41.0948 16.775 41.1397 16.7712 41.1823 16.7586C41.225 16.746 41.2646 16.7249 41.2988 16.6965C41.3329 16.6682 41.3608 16.6332 41.3808 16.5938C41.4008 16.5543 41.4125 16.5112 41.415 16.4671C41.4176 16.423 41.4111 16.3789 41.3958 16.3374C41.3806 16.2959 41.3569 16.258 41.3263 16.2259C41.2809 16.1725 41.2189 16.1354 41.1501 16.1203C41.0812 16.1053 41.0093 16.1131 40.9454 16.1427L39.4468 14.3683L42.4799 15.8071L42.1575 16.8138L42.5292 16.8865L42.709 17.0992L41.4555 18.1404L41.2757 17.9276L41.2677 17.5524L40.2101 17.6938Z" fill="#000D44"/>
<path d="M25.2635 64.3592C25.2635 64.3592 24.2432 60.3639 22.6314 62.0682C22.6314 62.0682 23.5439 59.6715 25.3701 62.3325C27.1963 64.9934 27.4121 65.4255 27.4121 65.4255L25.0491 65.2127L25.2635 64.3592Z" fill="white"/>
<path opacity="0.4" d="M25.2635 64.3592C25.2635 64.3592 24.2432 60.3639 22.6314 62.0682C22.6314 62.0682 23.5439 59.6715 25.3701 62.3325C27.1963 64.9934 27.4121 65.4255 27.4121 65.4255L25.0491 65.2127L25.2635 64.3592Z" fill="#5468FF"/>
<path d="M27.9448 64.4662C28.7535 62.5134 29.3302 60.4738 29.6631 58.3886C30.1959 54.9786 32.8853 52.1023 34.3892 51.6768C34.3892 51.6768 33.2076 51.6768 32.3485 56.4715C31.4893 61.2662 28.9105 64.5693 28.9105 64.5693L27.9448 64.4662Z" fill="white"/>
<path opacity="0.4" d="M27.9448 64.4662C28.7535 62.5134 29.3302 60.4738 29.6631 58.3886C30.1959 54.9786 32.8853 52.1023 34.3892 51.6768C34.3892 51.6768 33.2076 51.6768 32.3485 56.4715C31.4893 61.2662 28.9105 64.5693 28.9105 64.5693L27.9448 64.4662Z" fill="#5468FF"/>
<path d="M28.4777 64.7741C28.4777 64.7741 31.3869 61.1645 33.9644 60.7378C33.9644 60.7378 33.5341 62.4421 30.1014 64.5693L29.0278 64.6763L28.4777 64.7741Z" fill="white"/>
<path opacity="0.3" d="M28.4777 64.7741C28.4777 64.7741 31.3869 61.1645 33.9644 60.7378C33.9644 60.7378 33.5341 62.4421 30.1014 64.5693L29.0278 64.6763L28.4777 64.7741Z" fill="#5468FF"/>
<path d="M26.6595 64.4662C26.6595 64.4662 25.1556 62.6549 24.8333 60.311C24.5109 57.9672 24.6148 54.9839 24.6148 54.9839C24.6148 54.9839 26.2266 59.3518 26.7634 61.8027C27.3002 64.2535 27.4121 64.9987 27.4121 64.9987L26.6595 64.4662Z" fill="white"/>
<path opacity="0.3" d="M26.6595 64.4662C26.6595 64.4662 25.1556 62.6549 24.8333 60.311C24.5109 57.9672 24.6148 54.9839 24.6148 54.9839C24.6148 54.9839 26.2266 59.3518 26.7634 61.8027C27.3002 64.2535 27.4121 64.9987 27.4121 64.9987L26.6595 64.4662Z" fill="#5468FF"/>
<path opacity="0.4" d="M26.6593 62.1224C26.6593 62.1224 26.229 55.8361 26.5514 51.3611C26.5514 51.3611 28.0552 53.8119 28.4855 58.2869C28.9157 62.7619 28.0552 64.5733 28.0552 64.5733L27.1015 64.9208L26.6593 62.1224Z" fill="white"/>
<path opacity="0.5" d="M26.6593 62.1224C26.6593 62.1224 26.229 55.8361 26.5514 51.3611C26.5514 51.3611 28.0552 53.8119 28.4855 58.2869C28.9157 62.7619 28.0552 64.5733 28.0552 64.5733L27.1015 64.9208L26.6593 62.1224Z" fill="#5468FF"/>
<path d="M23.3291 64.3605H32.8892L32.3523 66.0649H31.7623L30.9564 72.457H25.3711L24.5653 66.0649H23.8659L23.3291 64.3605Z" fill="#5468FF"/>
<path d="M44.4741 19.4325C44.4741 19.4325 43.6656 18.3094 43.619 17.1164C43.5803 16.1189 41.5183 15.9563 40.847 15.9273C40.8289 15.9262 40.811 15.9305 40.7955 15.9397C40.7799 15.9488 40.7675 15.9623 40.7598 15.9785C40.752 15.9947 40.7493 16.0128 40.7521 16.0305C40.7548 16.0482 40.7628 16.0647 40.7751 16.0779L41.1454 16.4954L40.5579 16.4148C40.5387 16.4116 40.5188 16.4144 40.5012 16.4228C40.4836 16.4312 40.4691 16.4448 40.4596 16.4618C40.4501 16.4787 40.4461 16.4982 40.4482 16.5174C40.4503 16.5367 40.4584 16.5549 40.4713 16.5694L40.9136 17.0979L40.6925 17.123C40.6728 17.1252 40.654 17.1321 40.6376 17.1431C40.6211 17.154 40.6076 17.1687 40.5981 17.1859C40.5885 17.2031 40.5833 17.2224 40.5828 17.242C40.5823 17.2616 40.5866 17.281 40.5952 17.2987C40.7844 17.6805 41.2985 18.6675 41.814 19.1603C42.4641 19.776 43.5297 20.7167 43.5297 20.7167L44.4741 19.4325Z" fill="#F5B58F"/>
<path d="M67.7393 65.9553L69.8706 69.0786L68.0058 70.7645L65.5082 71.7766C65.5082 71.7766 67.7127 69.8476 67.373 68.8448L66.3767 67.3055L67.7393 65.9553Z" fill="#F5B58F"/>
<path d="M69.0619 67.838C69.0619 67.838 69.6294 68.0573 70.1036 69.2372C70.1288 69.2985 70.1397 69.3648 70.1353 69.431C70.1309 69.4971 70.1114 69.5614 70.0783 69.619C69.9557 69.8277 69.652 70.1726 68.9061 70.6257C67.939 71.2137 67.0226 71.8148 66.6296 72.0725C66.4807 72.1708 66.3171 72.2453 66.1448 72.2931C65.7718 72.3975 65.1338 72.5323 64.8807 72.3262L66.1195 71.1053C66.1195 71.1053 67.3649 70.9204 68.296 69.5067C69.2271 68.093 69.0606 67.838 69.0606 67.838" fill="#000D44"/>
<path d="M55.6953 68.1392V71.5123L53.2044 71.9298L50.5576 71.441C50.5576 71.441 53.4628 70.9997 53.7226 69.9731V68.1392H55.6953Z" fill="#F5B58F"/>
<path d="M55.695 70.0325C55.695 70.0325 56.0533 70.5214 55.8096 71.7673C55.7974 71.8325 55.7705 71.8941 55.7308 71.9474C55.6911 72.0007 55.6397 72.0444 55.5805 72.0752C55.3633 72.1848 54.9144 72.313 54.046 72.2945C52.9111 72.2707 51.8135 72.2839 51.3433 72.2945C51.1628 72.2979 50.983 72.273 50.8104 72.2205C50.4388 72.1082 49.8287 71.8796 49.7288 71.5704L51.4365 71.2071C51.4365 71.2071 52.586 71.7184 54.1392 71.0288C55.6924 70.3391 55.6924 70.0339 55.6924 70.0339" fill="#000D44"/>
<path d="M56.1482 11.1498C56.1482 11.1498 55.6953 13.8134 58.2795 14.6801C58.2795 14.6801 59.132 16.2444 57.8639 18.147C57.4152 18.8065 57.0012 19.4888 56.6238 20.1909L56.1136 21.162L61.7734 20.2371L61.6402 14.0115L56.8196 11.1551L56.1482 11.1498Z" fill="#EFAB89"/>
<path d="M60.0946 19.1392C60.0946 19.1392 54.3669 16.3475 54.9503 12.7537L56.1492 9.99371L60.3877 12.3045L60.0946 19.1392Z" fill="#F5B58F"/>
<path d="M45.3533 19.7522L44.9031 18.8551C44.8872 18.8234 44.8639 18.7958 44.8351 18.7748C44.8063 18.7538 44.7729 18.7399 44.7377 18.7342C44.7024 18.7285 44.6662 18.7312 44.6322 18.7421C44.5982 18.7531 44.5674 18.7719 44.5421 18.797L42.8251 20.5145C42.7915 20.549 42.77 20.5934 42.7637 20.641C42.7575 20.6886 42.7669 20.7369 42.7905 20.7788L43.6164 22.1819C43.6363 22.2153 43.6646 22.243 43.6986 22.2623C43.7326 22.2815 43.771 22.2916 43.8102 22.2916C43.8493 22.2916 43.8878 22.2815 43.9217 22.2623C43.9557 22.243 43.9841 22.2153 44.004 22.1819L45.3467 19.9636C45.3653 19.9316 45.3757 19.8956 45.3768 19.8587C45.378 19.8218 45.3699 19.7852 45.3533 19.7522Z" fill="#5468FF"/>
<path opacity="0.07" d="M45.3533 19.7522L44.9031 18.8551C44.8872 18.8234 44.8639 18.7958 44.8351 18.7748C44.8063 18.7538 44.7729 18.7399 44.7377 18.7342C44.7024 18.7285 44.6662 18.7312 44.6322 18.7421C44.5982 18.7531 44.5674 18.7719 44.5421 18.797L42.8251 20.5145C42.7915 20.549 42.77 20.5934 42.7637 20.641C42.7575 20.6886 42.7669 20.7369 42.7905 20.7788L43.6164 22.1819C43.6363 22.2153 43.6646 22.243 43.6986 22.2623C43.7326 22.2815 43.771 22.2916 43.8102 22.2916C43.8493 22.2916 43.8878 22.2815 43.9217 22.2623C43.9557 22.243 43.9841 22.2153 44.004 22.1819L45.3467 19.9636C45.3653 19.9316 45.3757 19.8956 45.3768 19.8587C45.378 19.8218 45.3699 19.7852 45.3533 19.7522Z" fill="#000D44"/>
<path d="M63.9096 43.8473L55.1621 48.2073C58.1712 57.8337 66.2699 68.2899 66.2699 68.2899L66.9573 67.5791L68.5024 65.9804C68.5024 65.9804 66.6536 63.2058 64.2266 56.173C62.154 50.1694 63.1849 45.3892 63.7511 44.1697" fill="#1B255E"/>
<path d="M62.2462 37.0946L54.3339 38.3669L52.9778 43.1061C51.4247 49.267 52.0068 56.0065 52.0068 56.0065C53.171 64.8587 53.0724 68.5211 53.0724 68.5211H56.4665L56.7635 59.472C56.5397 53.1844 58.8375 50.8194 59.9138 50.0597C60.4812 49.6634 60.9935 49.1947 61.4376 48.6658C63.5369 46.1436 64.1563 43.7773 64.2109 41.9091C64.2428 40.6864 63.8864 39.4846 63.1919 38.4739L62.2462 37.0946Z" fill="#1B255E"/>
<path d="M52.8218 40.86C52.8082 40.8044 52.7989 40.7479 52.7939 40.6909C52.4079 37.0526 52.3148 33.3896 52.5155 29.7367C52.5235 29.641 52.4997 29.5454 52.4475 29.4645C52.2784 29.2201 51.9493 29.3549 51.7016 29.4645C51.2605 29.666 50.7806 29.7703 50.295 29.7703C49.8093 29.7703 49.3294 29.666 48.8883 29.4645C48.0891 29.0972 47.4817 28.4379 46.9129 27.7773C45.4477 26.069 44.2621 24.0951 43.0913 22.1727C43.0111 22.0671 42.9647 21.9401 42.9581 21.808C42.9912 21.6418 43.0863 21.4941 43.2245 21.3945C43.9558 20.7075 44.3914 20.3164 45.1226 19.6294C45.2332 19.525 45.3664 19.414 45.5223 19.4312C45.6994 19.451 45.8033 19.632 45.8792 19.7919C46.3202 20.7167 46.9089 21.4962 47.3445 22.4211C47.7015 23.1715 48.0691 23.9365 48.7578 24.4545C49.0389 24.6727 49.3728 24.8139 49.7262 24.864C50.9969 25.0213 51.7975 23.8718 52.5607 22.9588C53.6568 21.6506 55.0538 20.6229 56.6341 19.9623C57.1976 19.7271 57.793 19.5342 58.2512 19.126C58.323 19.0541 58.4166 19.0077 58.5176 18.9939C58.8093 18.9661 58.8879 19.2488 58.9172 19.4774L59.3062 21.9877C59.3186 22.2588 59.3955 22.523 59.5308 22.7589C59.666 22.9947 59.8556 23.1955 60.0841 23.3446L61.2057 24.2999C61.3113 24.4078 61.445 24.4847 61.592 24.5218C61.9809 24.5813 62.214 24.1255 62.3486 23.7542C62.4391 23.5071 62.7415 22.9839 63.0892 23.0936C63.3995 23.1953 63.3489 23.9339 63.3836 24.1995C63.5168 25.2141 63.65 26.2271 63.7832 27.2383C64.0496 29.2641 64.3093 31.2935 64.5624 33.3264C64.8679 35.7416 65.1689 38.1577 65.4655 40.5746C65.4948 40.8098 65.5135 41.0886 65.0659 41.1375C61.238 40.1308 57.2158 40.0985 53.372 41.0437C53.2294 41.0793 53.0629 41.1124 52.9457 41.0239C52.8883 40.9833 52.8451 40.926 52.8218 40.86Z" fill="#5468FF"/>
<path d="M55.4036 12.5357C55.3771 12.6081 55.3328 12.6728 55.2748 12.724C55.2169 12.7752 55.147 12.8113 55.0714 12.8292C54.9959 12.847 54.9171 12.8459 54.8421 12.826C54.7671 12.8062 54.6982 12.7682 54.6417 12.7154C54.3759 12.4546 54.1806 12.1317 54.0737 11.7763C53.9669 11.4209 53.9519 11.0446 54.0303 10.682C54.258 9.72416 55.1718 8.98692 56.1615 8.89708C56.3673 8.89249 56.5723 8.87039 56.7743 8.83101C56.9536 8.77217 57.1264 8.69513 57.2898 8.60112C57.9663 8.25988 58.7178 8.09103 59.4765 8.10979C60.2353 8.12855 60.9774 8.33433 61.6359 8.70858C62.2945 9.08282 62.8487 9.61376 63.2488 10.2535C63.6488 10.8933 63.882 11.6217 63.9273 12.3732C63.9273 12.364 65.2394 12.8475 65.3619 12.9149C65.8563 13.1848 66.3056 13.5288 66.694 13.9349C67.5072 14.8027 67.9921 15.9233 68.066 17.1058C68.1059 17.9051 67.9221 18.6913 67.8622 19.4959C67.8022 20.3005 67.8875 21.1553 68.395 21.7829C68.5588 21.989 68.7626 22.1608 68.9278 22.3709C69.1098 22.6281 69.2354 22.9203 69.2965 23.2287C69.3575 23.5371 69.3526 23.8547 69.2821 24.1611C69.1296 24.7723 68.824 25.3353 68.3936 25.7981C67.689 26.6159 66.7033 27.2396 65.6217 27.3241C64.8224 27.3862 63.9193 26.6926 63.3079 25.9355C63.1171 25.7019 62.8617 25.5285 62.5731 25.4365C62.2845 25.3445 61.9751 25.338 61.6828 25.4176C60.8357 25.6422 60.0311 25.7519 59.469 25.0913C58.9442 24.4742 58.7803 23.6247 58.7843 22.8174C58.8048 22.4415 58.8007 22.0646 58.7723 21.6891C58.7137 21.2227 58.5312 20.7828 58.4047 20.3309C58.1434 19.3625 58.1283 18.345 58.3608 17.3694C58.5932 16.3939 59.066 15.4907 59.7367 14.7408C58.8924 14.5257 58.1306 14.0688 57.5462 13.4272C56.9619 12.7856 56.5808 11.9875 56.4506 11.1326C55.9768 11.4946 55.6143 11.9805 55.4036 12.5357Z" fill="#000D44"/>
<path d="M73.9999 73L8.86328 73V71.6788L73.9999 71.6788V73Z" fill="white"/>
<path opacity="0.3" d="M73.9999 73L8.86328 73V71.6788L73.9999 71.6788V73Z" fill="#5468FF"/>
</svg>
