<svg width="686" height="682" viewBox="0 0 686 682" fill="none" xmlns="http://www.w3.org/2000/svg">
<path d="M12.0843 0H484.172C487.377 0 490.45 1.27316 492.716 3.53939C494.983 5.80562 496.256 8.87929 496.256 12.0842V331.656C496.256 334.861 494.983 337.935 492.716 340.201C490.45 342.467 487.377 343.74 484.172 343.74H12.0843C8.87933 343.74 5.80569 342.467 3.53949 340.201C1.27325 337.935 9.15527e-05 334.861 9.15527e-05 331.656V12.0842C9.15527e-05 8.87929 1.27325 5.80562 3.53949 3.53939C5.80569 1.27316 8.87933 0 12.0843 0Z" fill="#5468FF"/>
<path opacity="0.2" d="M12.0843 0H484.172C487.377 0 490.45 1.27316 492.716 3.53939C494.983 5.80562 496.256 8.87929 496.256 12.0842V331.656C496.256 334.861 494.983 337.935 492.716 340.201C490.45 342.467 487.377 343.74 484.172 343.74H12.0843C8.87933 343.74 5.80569 342.467 3.53949 340.201C1.27325 337.935 9.15527e-05 334.861 9.15527e-05 331.656V12.0842C9.15527e-05 8.87929 1.27325 5.80562 3.53949 3.53939C5.80569 1.27316 8.87933 0 12.0843 0Z" fill="#000D44"/>
<path d="M15.9354 11.8373H480.357V319.991H15.9354V11.8373Z" fill="#5468FF"/>
<path opacity="0.1" d="M15.9354 12.1213H480.357V58.0512H15.9354V12.1213Z" fill="#000D44"/>
<path opacity="0.4" d="M281.344 58.5944H480.357V319.979H281.344V58.5944Z" fill="white"/>
<path d="M42.9181 204.037H46.6211V202.803H44.1524V200.334H42.9181V204.037Z" fill="white"/>
<path d="M52.9163 203.988H59.2115V202.753H52.9163V203.988ZM65.4943 203.988H71.7894V202.753H65.4943V203.988ZM78.0845 203.988H84.3797V202.753H78.0845V203.988ZM90.6625 203.988H96.9577V202.753H90.6625V203.988ZM103.253 203.988H109.597V202.753H103.302L103.253 203.988ZM115.831 203.988H122.126V202.753H115.831V203.988ZM128.421 203.988H134.716V202.753H128.421V203.988ZM140.999 203.988H147.294V202.753H140.999V203.988ZM153.589 203.988H159.885V202.753H153.589V203.988ZM166.167 203.988H172.463V202.753H166.167V203.988ZM178.721 203.988H185.016V202.753H178.721V203.988ZM191.299 203.988H197.594V202.753H191.299V203.988ZM203.889 203.988H210.184V202.753H203.889V203.988ZM216.467 203.988H222.762V202.753H216.467V203.988ZM229.057 203.988H235.352V202.753H229.057V203.988ZM241.672 203.988H247.967V202.753H241.672V203.988Z" fill="white"/>
<path d="M254.263 204.037H257.966V200.334H256.731V202.803H254.263V204.037Z" fill="white"/>
<path d="M256.731 194.113H257.966V187.941H256.731V194.113ZM256.731 181.77H257.966V175.598H256.731V181.77ZM256.731 169.426H257.966V163.254H256.731V169.426ZM256.731 157.083H257.966V150.911H256.731V157.083ZM256.731 144.739H257.966V138.568H256.731V144.739ZM256.731 132.396H257.966V126.224H256.731V132.396ZM256.731 120.052H257.966V113.881H256.731V120.052ZM256.731 107.709H257.966V101.537H256.731V107.709ZM256.731 95.3654H257.966V89.1937H256.731V95.3654Z" fill="white"/>
<path d="M256.731 82.8862H257.966V79.1832H254.263V80.4175H256.731V82.8862Z" fill="white"/>
<path d="M52.9163 80.4175H59.2115V79.1832H52.9163V80.4175ZM65.4943 80.4175H71.7894V79.1832H65.4943V80.4175ZM78.0845 80.4175H84.3797V79.1832H78.0845V80.4175ZM90.6625 80.4175H96.9577V79.1832H90.6625V80.4175ZM103.253 80.4175H109.597V79.1832H103.302L103.253 80.4175ZM115.831 80.4175H122.126V79.1832H115.831V80.4175ZM128.421 80.4175H134.716V79.1832H128.421V80.4175ZM140.999 80.4175H147.294V79.1832H140.999V80.4175ZM153.589 80.4175H159.885V79.1832H153.589V80.4175ZM166.167 80.4175H172.463V79.1832H166.167V80.4175ZM178.758 80.4175H185.053V79.1832H178.721L178.758 80.4175ZM191.336 80.4175H197.631V79.1832H191.336V80.4175ZM203.926 80.4175H210.221V79.1832H203.926V80.4175ZM216.504 80.4175H222.799V79.1832H216.504V80.4175ZM229.094 80.4175H235.389V79.1832H229.094V80.4175ZM241.672 80.4175H247.967V79.1832H241.672V80.4175Z" fill="white"/>
<path d="M42.9181 82.8862H44.1524V80.4175H46.6211V79.1832H42.9181V82.8862Z" fill="white"/>
<path d="M42.9427 194.113H44.177V187.941H42.9427V194.113ZM42.9427 181.77H44.177V175.598H42.9427V181.77ZM42.9427 169.426H44.177V163.254H42.9427V169.426ZM42.9427 157.083H44.177V150.911H42.9427V157.083ZM42.9427 144.739H44.177V138.568H42.9427V144.739ZM42.9427 132.396H44.177V126.224H42.9427V132.396ZM42.9427 120.052H44.177V113.881H42.9427V120.052ZM42.9427 107.709H44.177V101.537H42.9427V107.709ZM42.9427 95.3654H44.177V89.1937H42.9427V95.3654Z" fill="white"/>
<path d="M39.9677 76.2208H47.1145V83.3676H39.9677V76.2208Z" fill="#5468FF" stroke="white" stroke-miterlimit="10"/>
<path d="M39.9677 199.84H47.1145V206.987H39.9677V199.84Z" fill="#5468FF" stroke="white" stroke-miterlimit="10"/>
<path d="M253.768 76.2208H260.915V83.3676H253.768V76.2208Z" fill="#5468FF" stroke="white" stroke-miterlimit="10"/>
<path d="M253.768 199.84H260.915V206.987H253.768V199.84Z" fill="#5468FF" stroke="white" stroke-miterlimit="10"/>
<path d="M146.862 76.2208H154.009V83.3676H146.862V76.2208Z" fill="#5468FF" stroke="white" stroke-miterlimit="10"/>
<path d="M146.862 199.84H154.009V206.987H146.862V199.84Z" fill="#5468FF" stroke="white" stroke-miterlimit="10"/>
<path d="M253.768 138.037H260.915V145.184H253.768V138.037Z" fill="#5468FF" stroke="white" stroke-miterlimit="10"/>
<path d="M61.0132 121.324H117.201C118.489 121.324 119.533 122.368 119.533 123.657V141.505C119.533 142.794 118.489 143.838 117.201 143.838H61.0132C59.7248 143.838 58.6803 142.794 58.6803 141.505V123.657C58.6803 122.368 59.7248 121.324 61.0132 121.324Z" fill="white"/>
<path d="M151.207 121.324H207.395C208.683 121.324 209.728 122.368 209.728 123.657V141.505C209.728 142.794 208.683 143.838 207.395 143.838H151.207C149.919 143.838 148.874 142.794 148.874 141.505V123.657C148.874 122.368 149.919 121.324 151.207 121.324Z" fill="white"/>
<path d="M46.5845 28.4517H31.1305" stroke="white" stroke-width="1.5" stroke-linecap="round" stroke-linejoin="round"/>
<path d="M46.5845 35.7836H31.1305" stroke="white" stroke-width="1.5" stroke-linecap="round" stroke-linejoin="round"/>
<path d="M46.5845 43.1157H31.1305" stroke="white" stroke-width="1.5" stroke-linecap="round" stroke-linejoin="round"/>
<path d="M293.107 99.1179H448.882V254.892H293.107V99.1179Z" fill="white"/>
<path d="M383.054 111.856H384.288V246.215H383.054V111.856Z" fill="#5468FF"/>
<path d="M316.486 246.832C325.466 246.953 334.381 245.289 342.712 241.936C351.044 238.584 358.627 233.609 365.02 227.301C371.413 220.994 376.489 213.479 379.954 205.194C383.419 196.908 385.203 188.016 385.203 179.036C385.203 170.055 383.419 161.163 379.954 152.877C376.489 144.592 371.413 137.077 365.02 130.77C358.627 124.462 351.044 119.487 342.712 116.135C334.381 112.782 325.466 111.118 316.486 111.239V112.473C325.303 112.353 334.057 113.986 342.237 117.278C350.418 120.569 357.864 125.453 364.142 131.645C370.419 137.838 375.404 145.216 378.806 153.352C382.209 161.487 383.961 170.217 383.961 179.036C383.961 187.854 382.209 196.584 378.806 204.719C375.404 212.855 370.419 220.233 364.142 226.426C357.864 232.618 350.418 237.502 342.237 240.793C334.057 244.085 325.303 245.718 316.486 245.598V246.832Z" fill="#5468FF"/>
<path d="M313.585 108.956H319.386V114.757H313.585V108.956Z" fill="#5468FF"/>
<path d="M313.585 243.314H319.386V249.115H313.585V243.314Z" fill="#5468FF"/>
<path d="M380.771 176.141H386.572V181.942H380.771V176.141Z" fill="white"/>
<path d="M380.141 182.56H387.177V175.524H380.141V182.56ZM385.942 181.325H381.375V176.758H385.942V181.325Z" fill="#5468FF"/>
<path d="M383.671 113.362C382.839 113.362 382.165 112.688 382.165 111.856C382.165 111.025 382.839 110.35 383.671 110.35C384.503 110.35 385.177 111.025 385.177 111.856C385.177 112.688 384.503 113.362 383.671 113.362Z" fill="#5468FF"/>
<path d="M383.671 247.721C382.839 247.721 382.165 247.046 382.165 246.215C382.165 245.383 382.839 244.709 383.671 244.709C384.503 244.709 385.177 245.383 385.177 246.215C385.177 247.046 384.503 247.721 383.671 247.721Z" fill="#5468FF"/>
<path d="M44.0167 234.846H223.355C224.337 234.846 225.279 234.456 225.973 233.762C226.667 233.067 227.058 232.125 227.058 231.143C227.058 230.161 226.667 229.219 225.973 228.525C225.279 227.83 224.337 227.44 223.355 227.44H44.0043C43.0222 227.44 42.0804 227.83 41.3859 228.525C40.6915 229.219 40.3013 230.161 40.3013 231.143C40.3013 231.631 40.3975 232.113 40.5843 232.563C40.7712 233.013 41.0451 233.422 41.3902 233.766C41.7354 234.11 42.1451 234.383 42.5958 234.568C43.0465 234.753 43.5294 234.848 44.0167 234.846Z" fill="white"/>
<path d="M44.0167 261.619H223.355C224.337 261.619 225.279 261.229 225.973 260.535C226.667 259.84 227.058 258.898 227.058 257.916C227.058 256.934 226.667 255.992 225.973 255.298C225.279 254.603 224.337 254.213 223.355 254.213H44.0043C43.0222 254.213 42.0804 254.603 41.3859 255.298C40.6915 255.992 40.3013 256.934 40.3013 257.916C40.3013 258.404 40.3975 258.886 40.5843 259.336C40.7712 259.786 41.0451 260.195 41.3902 260.539C41.7354 260.883 42.1451 261.156 42.5958 261.341C43.0465 261.526 43.5294 261.621 44.0167 261.619Z" fill="white"/>
<path d="M44.0164 288.405H155.712C156.694 288.405 157.636 288.014 158.331 287.32C159.025 286.626 159.415 285.684 159.415 284.702C159.415 283.719 159.025 282.778 158.331 282.083C157.636 281.389 156.694 280.999 155.712 280.999H44.0164C43.0343 280.999 42.0924 281.389 41.398 282.083C40.7035 282.778 40.3134 283.719 40.3134 284.702C40.3134 285.684 40.7035 286.626 41.398 287.32C42.0924 288.014 43.0343 288.405 44.0164 288.405Z" fill="white"/>
<path d="M455.399 24.8597H465.694V35.1542H455.399V24.8597Z" fill="white"/>
<path d="M437.168 24.8597H443.907C444.889 24.8597 445.685 25.6555 445.685 26.6372V33.3767C445.685 34.3584 444.889 35.1542 443.907 35.1542H437.168C436.186 35.1542 435.39 34.3584 435.39 33.3767V26.6372C435.39 25.6555 436.186 24.8597 437.168 24.8597Z" fill="white"/>
<path d="M418.554 24.8597H422.504C424.256 24.8597 425.676 26.28 425.676 28.032V31.9819C425.676 33.7339 424.256 35.1542 422.504 35.1542H418.554C416.802 35.1542 415.381 33.7339 415.381 31.9819V28.032C415.381 26.28 416.802 24.8597 418.554 24.8597Z" fill="white"/>
<path d="M372.611 165.303L364.304 135.284L378.191 151.861C377.815 152.394 377.625 153.035 377.65 153.686C377.675 154.338 377.912 154.963 378.326 155.466C378.572 155.797 378.882 156.076 379.239 156.283C379.596 156.49 379.991 156.622 380.401 156.671C380.81 156.72 381.225 156.684 381.621 156.567C382.016 156.449 382.383 156.252 382.7 155.987C383.016 155.722 383.275 155.395 383.46 155.027C383.645 154.658 383.753 154.255 383.777 153.843C383.801 153.432 383.741 153.019 383.599 152.632C383.458 152.244 383.239 151.89 382.955 151.59C382.534 151.091 381.96 150.744 381.322 150.603C380.684 150.463 380.017 150.536 379.425 150.812L365.539 134.235L393.645 147.677L390.658 157.083L394.101 157.762L395.768 159.749L384.153 169.476L382.486 167.488L382.412 163.983L372.611 165.303Z" fill="#000D44"/>
<path d="M234.106 601.274C234.106 601.274 224.651 563.947 209.715 579.87C209.715 579.87 218.17 557.479 235.093 582.339C252.016 607.199 254.016 611.235 254.016 611.235L232.118 609.248L234.106 601.274Z" fill="white"/>
<path opacity="0.4" d="M234.106 601.274C234.106 601.274 224.651 563.947 209.715 579.87C209.715 579.87 218.17 557.479 235.093 582.339C252.016 607.199 254.016 611.235 254.016 611.235L232.118 609.248L234.106 601.274Z" fill="#5468FF"/>
<path d="M258.953 602.274C266.447 584.03 271.791 564.975 274.876 545.494C279.813 513.635 304.735 486.764 318.67 482.789C318.67 482.789 307.722 482.789 299.76 527.584C291.799 572.378 267.902 603.237 267.902 603.237L258.953 602.274Z" fill="white"/>
<path opacity="0.4" d="M258.953 602.274C266.447 584.03 271.791 564.975 274.876 545.494C279.813 513.635 304.735 486.764 318.67 482.789C318.67 482.789 307.722 482.789 299.76 527.584C291.799 572.378 267.902 603.237 267.902 603.237L258.953 602.274Z" fill="#5468FF"/>
<path d="M263.89 605.15C263.89 605.15 290.848 571.427 314.733 567.44C314.733 567.44 310.746 583.363 278.937 603.236L268.988 604.236L263.89 605.15Z" fill="white"/>
<path opacity="0.3" d="M263.89 605.15C263.89 605.15 290.848 571.427 314.733 567.44C314.733 567.44 310.746 583.363 278.937 603.236L268.988 604.236L263.89 605.15Z" fill="#5468FF"/>
<path d="M247.042 602.274C247.042 602.274 233.106 585.351 230.119 563.454C227.132 541.556 228.094 513.685 228.094 513.685C228.094 513.685 243.03 554.492 248.004 577.389C252.979 600.286 254.016 607.248 254.016 607.248L247.042 602.274Z" fill="white"/>
<path opacity="0.3" d="M247.042 602.274C247.042 602.274 233.106 585.351 230.119 563.454C227.132 541.556 228.094 513.685 228.094 513.685C228.094 513.685 243.03 554.492 248.004 577.389C252.979 600.286 254.016 607.248 254.016 607.248L247.042 602.274Z" fill="#5468FF"/>
<path opacity="0.4" d="M247.042 580.376C247.042 580.376 243.055 521.646 246.042 479.839C246.042 479.839 259.978 502.736 263.964 544.543C267.951 586.351 259.978 603.274 259.978 603.274L251.14 606.52L247.042 580.376Z" fill="white"/>
<path opacity="0.5" d="M247.042 580.376C247.042 580.376 243.055 521.646 246.042 479.839C246.042 479.839 259.978 502.736 263.964 544.543C267.951 586.351 259.978 603.274 259.978 603.274L251.14 606.52L247.042 580.376Z" fill="#5468FF"/>
<path d="M216.183 601.286H304.772L299.798 617.209H294.329L286.862 676.927H235.106L227.638 617.209H221.158L216.183 601.286Z" fill="#5468FF"/>
<path d="M412.123 181.547C412.123 181.547 404.63 171.055 404.198 159.909C403.84 150.59 384.732 149.072 378.511 148.8C378.344 148.79 378.178 148.831 378.034 148.916C377.89 149.001 377.775 149.127 377.703 149.279C377.631 149.43 377.607 149.599 377.632 149.765C377.657 149.93 377.731 150.084 377.845 150.207L381.276 154.108L375.833 153.355C375.654 153.325 375.471 153.351 375.308 153.43C375.144 153.508 375.009 153.635 374.921 153.794C374.834 153.952 374.797 154.134 374.816 154.314C374.836 154.494 374.911 154.663 375.031 154.799L379.129 159.736L377.08 159.971C376.897 159.992 376.723 160.056 376.571 160.159C376.419 160.261 376.293 160.398 376.205 160.559C376.117 160.72 376.068 160.899 376.064 161.083C376.059 161.266 376.098 161.448 376.178 161.613C377.931 165.18 382.696 174.4 387.473 179.005C393.496 184.757 403.371 193.545 403.371 193.545L412.123 181.547Z" fill="#F5B58F"/>
<path d="M627.713 616.185L647.463 645.365L630.182 661.115L607.038 670.57C607.038 670.57 627.467 652.549 624.319 643.18L615.086 628.8L627.713 616.185Z" fill="#F5B58F"/>
<path d="M639.971 633.774C639.971 633.774 645.229 635.823 649.623 646.846C649.857 647.419 649.957 648.039 649.917 648.657C649.876 649.275 649.696 649.875 649.389 650.413C648.253 652.363 645.439 655.585 638.526 659.819C629.565 665.312 621.073 670.928 617.431 673.335C616.051 674.254 614.535 674.949 612.938 675.396C609.482 676.371 603.57 677.63 601.224 675.705L612.704 664.299C612.704 664.299 624.245 662.571 632.873 649.364C641.501 636.156 639.958 633.774 639.958 633.774" fill="#000D44"/>
<path d="M516.104 636.588V668.101L493.022 672.002L468.496 667.435C468.496 667.435 495.417 663.312 497.824 653.721V636.588H516.104Z" fill="#F5B58F"/>
<path d="M516.104 654.277C516.104 654.277 519.424 658.844 517.165 670.484C517.053 671.093 516.803 671.668 516.435 672.166C516.067 672.664 515.591 673.072 515.042 673.36C513.03 674.384 508.871 675.581 500.823 675.409C490.306 675.186 480.135 675.31 475.778 675.409C474.106 675.441 472.439 675.208 470.84 674.717C467.397 673.668 461.743 671.533 460.818 668.644L476.642 665.25C476.642 665.25 487.294 670.027 501.687 663.584C516.079 657.14 516.079 654.289 516.079 654.289" fill="#000D44"/>
<path d="M520.301 104.166C520.301 104.166 516.104 129.051 540.05 137.148C540.05 137.148 547.95 151.763 536.199 169.537C532.041 175.699 528.205 182.073 524.707 188.633L519.98 197.705L572.427 189.065L571.193 130.902L526.522 104.216L520.301 104.166Z" fill="#EFAB89"/>
<path d="M556.875 178.807C556.875 178.807 503.798 152.725 509.204 119.151L520.313 93.3658L559.59 114.955L556.875 178.807Z" fill="#F5B58F"/>
<path d="M420.269 184.534L416.097 176.153C415.95 175.857 415.734 175.6 415.467 175.403C415.201 175.207 414.891 175.077 414.564 175.024C414.237 174.971 413.902 174.996 413.587 175.098C413.272 175.2 412.986 175.376 412.752 175.61L396.842 191.657C396.53 191.979 396.33 192.393 396.273 192.838C396.215 193.283 396.302 193.734 396.521 194.125L404.174 207.234C404.358 207.546 404.621 207.805 404.936 207.985C405.251 208.164 405.607 208.259 405.97 208.259C406.332 208.259 406.689 208.164 407.003 207.985C407.318 207.805 407.581 207.546 407.766 207.234L420.208 186.509C420.38 186.211 420.476 185.874 420.487 185.53C420.498 185.185 420.423 184.843 420.269 184.534Z" fill="#5468FF"/>
<path opacity="0.07" d="M420.269 184.534L416.097 176.153C415.95 175.857 415.734 175.6 415.467 175.403C415.201 175.207 414.891 175.077 414.564 175.024C414.237 174.971 413.902 174.996 413.587 175.098C413.272 175.2 412.986 175.376 412.752 175.61L396.842 191.657C396.53 191.979 396.33 192.393 396.273 192.838C396.215 193.283 396.302 193.734 396.521 194.125L404.174 207.234C404.358 207.546 404.621 207.805 404.936 207.985C405.251 208.164 405.607 208.259 405.97 208.259C406.332 208.259 406.689 208.164 407.003 207.985C407.318 207.805 407.581 207.546 407.766 207.234L420.208 186.509C420.38 186.211 420.476 185.874 420.487 185.53C420.498 185.185 420.423 184.843 420.269 184.534Z" fill="#000D44"/>
<path d="M592.226 409.642L511.167 450.375C539.05 540.31 614.099 637.996 614.099 637.996L620.468 631.355L634.786 616.419C634.786 616.419 617.653 590.498 595.164 524.794C575.957 468.705 585.511 424.047 590.757 412.654" fill="#1B255E"/>
<path d="M576.809 346.555L503.489 358.441L490.923 402.717C476.531 460.275 481.925 523.239 481.925 523.239C492.713 605.94 491.8 640.156 491.8 640.156H523.251L526.003 555.615C523.93 496.873 545.222 474.778 555.196 467.681C560.454 463.978 565.201 459.6 569.317 454.658C588.77 431.095 594.51 408.988 595.016 391.534C595.311 380.111 592.008 368.884 585.573 359.441L576.809 346.555Z" fill="#1B255E"/>
<path d="M489.479 381.733C489.353 381.214 489.266 380.686 489.22 380.153C485.643 346.163 484.781 311.941 486.64 277.814C486.715 276.92 486.494 276.027 486.011 275.271C484.443 272.988 481.394 274.247 479.098 275.271C475.011 277.153 470.564 278.128 466.064 278.128C461.563 278.128 457.117 277.153 453.029 275.271C445.623 271.84 439.994 265.68 434.724 259.509C421.146 243.548 410.16 225.107 399.31 207.148C398.567 206.161 398.137 204.974 398.076 203.741C398.383 202.188 399.264 200.808 400.545 199.877C407.321 193.459 411.357 189.805 418.134 183.387C419.159 182.411 420.393 181.375 421.837 181.535C423.479 181.72 424.442 183.411 425.145 184.905C429.231 193.545 434.687 200.828 438.723 209.468C442.031 216.479 445.438 223.626 451.819 228.465C454.424 230.504 457.518 231.823 460.793 232.291C472.569 233.76 479.987 223.021 487.06 214.492C497.216 202.27 510.162 192.668 524.806 186.497C530.027 184.3 535.545 182.498 539.791 178.684C540.456 178.013 541.324 177.579 542.26 177.449C544.963 177.19 545.691 179.832 545.963 181.967L549.567 205.42C549.682 207.952 550.395 210.421 551.648 212.624C552.901 214.828 554.658 216.703 556.776 218.096L567.169 227.021C568.147 228.029 569.386 228.747 570.748 229.094C574.353 229.65 576.513 225.391 577.759 221.923C578.599 219.615 581.401 214.727 584.622 215.751C587.498 216.701 587.029 223.601 587.35 226.082C588.585 235.562 589.819 245.026 591.053 254.472C593.522 273.399 595.929 292.359 598.274 311.351C601.105 333.915 603.895 356.487 606.643 379.067C606.915 381.264 607.087 383.869 602.94 384.325C567.468 374.92 530.196 374.619 494.577 383.449C493.256 383.782 491.713 384.091 490.627 383.264C490.095 382.885 489.694 382.35 489.479 381.733Z" fill="#5468FF"/>
<path d="M513.401 117.115C513.155 117.791 512.745 118.395 512.208 118.874C511.671 119.352 511.023 119.69 510.323 119.856C509.623 120.022 508.893 120.012 508.198 119.827C507.503 119.642 506.865 119.286 506.341 118.793C503.878 116.357 502.068 113.34 501.078 110.02C500.088 106.7 499.949 103.184 500.675 99.7968C502.786 90.8478 511.253 83.9601 520.424 83.1208C522.331 83.0779 524.231 82.8714 526.102 82.5036C527.764 81.9539 529.365 81.2341 530.879 80.3558C537.148 77.1678 544.112 75.5903 551.143 75.7656C558.174 75.9409 565.051 77.8634 571.153 81.3597C577.256 84.8561 582.392 89.8164 586.099 95.7933C589.806 101.77 591.967 108.576 592.387 115.596C592.387 115.51 604.545 120.028 605.681 120.657C610.262 123.179 614.425 126.393 618.024 130.186C625.561 138.294 630.054 148.763 630.738 159.811C631.108 167.278 629.405 174.623 628.849 182.14C628.294 189.657 629.084 197.643 633.787 203.506C635.305 205.432 637.193 207.037 638.724 208.999C640.411 211.402 641.575 214.132 642.14 217.014C642.706 219.895 642.661 222.862 642.007 225.725C640.594 231.434 637.763 236.695 633.774 241.018C627.245 248.659 618.111 254.485 608.088 255.275C600.682 255.855 592.313 249.375 586.647 242.302C584.879 240.119 582.513 238.499 579.838 237.64C577.164 236.781 574.297 236.719 571.588 237.463C563.738 239.562 556.282 240.586 551.073 234.414C546.21 228.65 544.692 220.713 544.729 213.171C544.918 209.659 544.881 206.138 544.618 202.63C544.075 198.273 542.383 194.162 541.211 189.941C538.79 180.894 538.65 171.388 540.804 162.274C542.958 153.159 547.339 144.722 553.554 137.716C545.73 135.706 538.671 131.438 533.256 125.443C527.841 119.449 524.31 111.993 523.103 104.006C518.713 107.388 515.353 111.928 513.401 117.115Z" fill="#000D44"/>
<path d="M685.727 682L82.1331 682V669.657L685.727 669.657V682Z" fill="white"/>
<path opacity="0.3" d="M685.727 682L82.1331 682V669.657L685.727 669.657V682Z" fill="#5468FF"/>
</svg>
