<svg width="72" height="55" viewBox="0 0 72 55" fill="none" xmlns="http://www.w3.org/2000/svg">
<path d="M11.6838 0H71.0094C71.272 0 71.524 0.103117 71.7097 0.286668C71.8955 0.470219 71.9998 0.719167 71.9998 0.978747V41.3479H10.6934V0.978747C10.6934 0.719167 10.7977 0.470219 10.9835 0.286668C11.1692 0.103117 11.4211 0 11.6838 0Z" fill="#5468FF"/>
<path d="M11.6838 0H71.0094C71.272 0 71.524 0.103117 71.7097 0.286668C71.8955 0.470219 71.9998 0.719167 71.9998 0.978747V1.96868H10.6934V0.978747C10.6934 0.719167 10.7977 0.470219 10.9835 0.286668C11.1692 0.103117 11.4211 0 11.6838 0Z" fill="#5468FF"/>
<path d="M44.6602 39.3009V35.2673C44.6602 35.22 44.6696 35.1732 44.6879 35.1295C44.7062 35.0858 44.7331 35.0461 44.7669 35.0126C44.8008 34.9792 44.8409 34.9527 44.8852 34.9346C44.9294 34.9165 44.9768 34.9072 45.0246 34.9072H50.4897V39.6051L44.6602 39.3009Z" fill="#5468FF"/>
<path opacity="0.3" d="M44.6602 39.3009V35.2673C44.6602 35.22 44.6696 35.1732 44.6879 35.1295C44.7062 35.0858 44.7331 35.0461 44.7669 35.0126C44.8008 34.9792 44.8409 34.9527 44.8852 34.9346C44.9294 34.9165 44.9768 34.9072 45.0246 34.9072H50.4897V39.6051L44.6602 39.3009Z" fill="#000D44"/>
<path opacity="0.2" d="M11.6838 0H71.0094C71.272 0 71.524 0.103117 71.7097 0.286668C71.8955 0.470219 71.9998 0.719167 71.9998 0.978747V1.96868H10.6934V0.978747C10.6934 0.719167 10.7977 0.470219 10.9835 0.286668C11.1692 0.103117 11.4211 0 11.6838 0Z" fill="#000D44"/>
<path d="M13.0696 1.2114C13.1965 1.2114 13.2994 1.10974 13.2994 0.984332C13.2994 0.858925 13.1965 0.757263 13.0696 0.757263C12.9427 0.757263 12.8398 0.858925 12.8398 0.984332C12.8398 1.10974 12.9427 1.2114 13.0696 1.2114Z" fill="white"/>
<path d="M14.2952 1.2114C14.4221 1.2114 14.525 1.10974 14.525 0.984332C14.525 0.858925 14.4221 0.757263 14.2952 0.757263C14.1683 0.757263 14.0654 0.858925 14.0654 0.984332C14.0654 1.10974 14.1683 1.2114 14.2952 1.2114Z" fill="white"/>
<path d="M15.5213 1.2114C15.6482 1.2114 15.7511 1.10974 15.7511 0.984332C15.7511 0.858925 15.6482 0.757263 15.5213 0.757263C15.3944 0.757263 15.2915 0.858925 15.2915 0.984332C15.2915 1.10974 15.3944 1.2114 15.5213 1.2114Z" fill="white"/>
<path d="M68.0246 5.90715H67.1055V41.3479H68.0246V5.90715Z" fill="white"/>
<path d="M38.4354 9.39037H33.9902V13.0257H38.4354V9.39037Z" fill="white"/>
<path d="M38.4354 13.6309H33.9902V17.2662H38.4354V13.6309Z" fill="white"/>
<path d="M38.4354 17.8725H33.9902V21.5078H38.4354V17.8725Z" fill="white"/>
<path d="M54.6825 9.84451H41.3481V10.9049H54.6825V9.84451Z" fill="white"/>
<path d="M54.6825 11.9653H41.3481V13.0257H54.6825V11.9653Z" fill="white"/>
<path d="M38.4354 3.54921H33.9902V7.18456H38.4354V3.54921Z" fill="white"/>
<path d="M54.6825 4.00336H41.3481V5.06376H54.6825V4.00336Z" fill="white"/>
<path d="M54.6825 6.12303H41.3481V7.18343H54.6825V6.12303Z" fill="white"/>
<path d="M38.4354 23.236H33.9902V26.8714H38.4354V23.236Z" fill="white"/>
<path d="M54.6825 23.6902H41.3481V24.7506H54.6825V23.6902Z" fill="white"/>
<path d="M54.6825 25.8098H41.3481V26.8702H54.6825V25.8098Z" fill="white"/>
<path d="M62.3458 14.9944H41.3481V16.0548H62.3458V14.9944Z" fill="white"/>
<path d="M51.2887 38.8456H42.9474C42.6267 38.8456 42.3667 39.1025 42.3667 39.4195V48.2673C42.3667 48.5842 42.6267 48.8411 42.9474 48.8411H51.2887C51.6094 48.8411 51.8694 48.5842 51.8694 48.2673V39.4195C51.8694 39.1025 51.6094 38.8456 51.2887 38.8456Z" fill="#5468FF"/>
<path opacity="0.2" d="M51.2887 38.8456H42.9474C42.6267 38.8456 42.3667 39.1025 42.3667 39.4195V48.2673C42.3667 48.5842 42.6267 48.8411 42.9474 48.8411H51.2887C51.6094 48.8411 51.8694 48.5842 51.8694 48.2673V39.4195C51.8694 39.1025 51.6094 38.8456 51.2887 38.8456Z" fill="#000D44"/>
<path d="M52.9528 18.4776H42.9226C42.3912 18.4776 41.9604 18.9033 41.9604 19.4284V20.1018C41.9604 20.6269 42.3912 21.0526 42.9226 21.0526H52.9528C53.4842 21.0526 53.915 20.6269 53.915 20.1018V19.4284C53.915 18.9033 53.4842 18.4776 52.9528 18.4776Z" fill="white"/>
<path d="M20.9636 30.2439H13.4531V34.6365H20.9636V30.2439Z" fill="white"/>
<path d="M28.627 30.698H21.8828V31.3042H28.627V30.698Z" fill="white"/>
<path d="M26.4808 31.6074H21.8828V32.2137H26.4808V31.6074Z" fill="white"/>
<path d="M40.5815 33.5761H21.8828V34.1823H40.5815V33.5761Z" fill="white"/>
<path d="M59.2756 40.2092H52.4319C52.0361 40.2092 51.7153 40.5262 51.7153 40.9172V47.6801C51.7153 48.0711 52.0361 48.3882 52.4319 48.3882H59.2756C59.6714 48.3882 59.9922 48.0711 59.9922 47.6801V40.9172C59.9922 40.5262 59.6714 40.2092 59.2756 40.2092Z" fill="#5468FF"/>
<path opacity="0.4" d="M59.2756 40.2092H52.4319C52.0361 40.2092 51.7153 40.5262 51.7153 40.9172V47.6801C51.7153 48.0711 52.0361 48.3882 52.4319 48.3882H59.2756C59.6714 48.3882 59.9922 48.0711 59.9922 47.6801V40.9172C59.9922 40.5262 59.6714 40.2092 59.2756 40.2092Z" fill="#000D44"/>
<path d="M47.7989 36.4262L51.4936 31.4228C51.5533 31.3421 51.6423 31.2875 51.742 31.2704C51.8416 31.2533 51.9441 31.275 52.0278 31.3311L56.4662 34.302L54.9336 40.2092H52.0177L47.8713 36.9519C47.7935 36.89 47.7426 36.8011 47.7292 36.7033C47.7157 36.6055 47.7406 36.5063 47.7989 36.4262Z" fill="#5468FF"/>
<path opacity="0.5" d="M47.7989 36.4262L51.4936 31.4228C51.5533 31.3421 51.6423 31.2875 51.742 31.2704C51.8416 31.2533 51.9441 31.275 52.0278 31.3311L56.4662 34.302L54.9336 40.2092H52.0177L47.8713 36.9519C47.7935 36.89 47.7426 36.8011 47.7292 36.7033C47.7157 36.6055 47.7406 36.5063 47.7989 36.4262Z" fill="#000D44"/>
<path d="M52.7852 38.9497L56.3191 31.3121C56.3982 31.1411 56.5429 31.0081 56.7212 30.9425C56.8995 30.8768 57.0969 30.8838 57.2699 30.962L65.0034 34.4597C65.0895 34.4986 65.1669 34.554 65.2312 34.6226C65.2955 34.6912 65.3455 34.7717 65.3782 34.8594C65.4109 34.9471 65.4258 35.0404 65.4219 35.1338C65.4179 35.2273 65.3954 35.319 65.3555 35.4038L61.8193 42.9116C61.7401 43.0798 61.5974 43.2107 61.4218 43.2761C61.2461 43.3415 61.0516 43.3364 60.8797 43.2618L53.1496 39.8926C53.0626 39.8548 52.9841 39.8004 52.9186 39.7324C52.8531 39.6643 52.8019 39.5842 52.7679 39.4964C52.734 39.4087 52.7181 39.3152 52.721 39.2213C52.724 39.1275 52.7458 39.0351 52.7852 38.9497Z" fill="#5468FF"/>
<path opacity="0.2" d="M52.7852 38.9497L56.3191 31.3121C56.3982 31.1411 56.5429 31.0081 56.7212 30.9425C56.8995 30.8768 57.0969 30.8838 57.2699 30.962L65.0034 34.4597C65.0895 34.4986 65.1669 34.554 65.2312 34.6226C65.2955 34.6912 65.3455 34.7717 65.3782 34.8594C65.4109 34.9471 65.4258 35.0404 65.4219 35.1338C65.4179 35.2273 65.3954 35.319 65.3555 35.4038L61.8193 42.9116C61.7401 43.0798 61.5974 43.2107 61.4218 43.2761C61.2461 43.3415 61.0516 43.3364 60.8797 43.2618L53.1496 39.8926C53.0626 39.8548 52.9841 39.8004 52.9186 39.7324C52.8531 39.6643 52.8019 39.5842 52.7679 39.4964C52.734 39.4087 52.7181 39.3152 52.721 39.2213C52.724 39.1275 52.7458 39.0351 52.7852 38.9497Z" fill="#000D44"/>
<path d="M54.0249 43.8322H54.3385V44.0168C54.38 43.9531 54.4368 43.9005 54.5037 43.8635C54.5726 43.8245 54.6507 43.804 54.7301 43.8042C54.8017 43.8036 54.8725 43.8186 54.9374 43.8482C55.0024 43.8778 55.06 43.9212 55.1059 43.9754C55.2157 44.1101 55.2706 44.2804 55.2599 44.453C55.2711 44.6293 55.2158 44.8034 55.1048 44.9418C55.0599 44.9961 55.0034 45.0399 54.9395 45.0703C54.8755 45.1006 54.8056 45.1167 54.7346 45.1174C54.6689 45.1183 54.6038 45.1041 54.5445 45.076C54.4763 45.0398 54.4153 44.9917 54.3645 44.934V45.5649H54.0249V43.8322ZM54.3577 44.4385C54.3489 44.549 54.3789 44.6592 54.4426 44.7505C54.467 44.7819 54.4983 44.8073 54.5343 44.8248C54.5702 44.8423 54.6097 44.8513 54.6497 44.8512C54.6872 44.8516 54.7243 44.8434 54.7581 44.8273C54.7919 44.8112 54.8214 44.7876 54.8444 44.7584C54.9043 44.6685 54.9318 44.5613 54.9225 44.4541C54.9305 44.3502 54.9021 44.2468 54.8422 44.1611C54.8189 44.131 54.7889 44.1067 54.7546 44.09C54.7202 44.0733 54.6824 44.0647 54.6441 44.0649C54.605 44.0641 54.5662 44.0722 54.5307 44.0885C54.4952 44.1048 54.4639 44.1288 54.4392 44.1588C54.379 44.2394 54.3501 44.3386 54.3577 44.4385Z" fill="white"/>
<path d="M55.8661 43.3546V43.9911C55.9354 43.9049 56.0317 43.844 56.1398 43.8177C56.248 43.7913 56.3619 43.8012 56.4638 43.8457C56.5199 43.8698 56.5684 43.9084 56.6041 43.9575C56.6356 44.0015 56.6575 44.0513 56.6686 44.104C56.6824 44.1865 56.6881 44.27 56.6856 44.3535V45.0895H56.346V44.424C56.3506 44.34 56.3441 44.2557 56.3268 44.1734C56.3146 44.1382 56.2906 44.1083 56.2589 44.0884C56.2225 44.0664 56.1804 44.0555 56.1378 44.0571C56.0851 44.0563 56.0333 44.0702 55.9883 44.0973C55.9433 44.1257 55.9094 44.1683 55.8921 44.2181C55.8685 44.2957 55.8582 44.3766 55.8616 44.4575V45.0861H55.522V43.3546H55.8661Z" fill="white"/>
<path d="M57.0166 43.8322H57.3301V44.0168C57.3717 43.9531 57.4284 43.9005 57.4954 43.8635C57.5643 43.8245 57.6423 43.804 57.7218 43.8042C57.7933 43.8036 57.8641 43.8186 57.9291 43.8482C57.9941 43.8778 58.0516 43.9212 58.0976 43.9754C58.2074 44.1101 58.2623 44.2804 58.2515 44.453C58.2628 44.6293 58.2076 44.8035 58.0964 44.9418C58.0507 44.9968 57.9931 45.0409 57.9279 45.0711C57.8627 45.1013 57.7915 45.1167 57.7195 45.1163C57.6537 45.1172 57.5886 45.103 57.5293 45.0749C57.4612 45.0387 57.4002 44.9906 57.3493 44.9329V45.5649H57.0098L57.0166 43.8322ZM57.3493 44.4385C57.3406 44.549 57.3705 44.6592 57.4342 44.7505C57.4586 44.7819 57.49 44.8073 57.5259 44.8248C57.5618 44.8423 57.6014 44.8513 57.6414 44.8512C57.6789 44.8516 57.716 44.8434 57.7497 44.8273C57.7835 44.8112 57.8131 44.7876 57.8361 44.7584C57.896 44.6685 57.9235 44.5613 57.9142 44.4541C57.9222 44.3502 57.8938 44.2467 57.8338 44.1611C57.8106 44.131 57.7806 44.1067 57.7462 44.09C57.7118 44.0733 57.674 44.0647 57.6357 44.0649C57.5966 44.0641 57.5578 44.0722 57.5223 44.0885C57.4868 44.1048 57.4556 44.1288 57.4309 44.1588C57.3707 44.2394 57.3418 44.3386 57.3493 44.4385Z" fill="white"/>
<path d="M56.4955 35.5157C56.5693 35.3681 56.679 35.2409 56.8147 35.1454C56.9493 35.0464 57.1111 34.9899 57.2788 34.9832C57.4521 34.9779 57.6239 35.0164 57.778 35.0951C57.8954 35.1471 58.0007 35.2225 58.0872 35.3166C58.1736 35.4108 58.2395 35.5216 58.2806 35.6421C58.3208 35.7624 58.3359 35.8896 58.325 36.0159C58.3141 36.1422 58.2774 36.265 58.2172 36.377C58.1638 36.4936 58.0872 36.5984 57.9919 36.6851C57.8966 36.7718 57.7846 36.8386 57.6625 36.8814C57.5421 36.9237 57.4142 36.9408 57.2868 36.9318C57.1594 36.9227 57.0352 36.8877 56.9222 36.8289C56.7695 36.7549 56.6365 36.6464 56.5339 36.5123C56.4306 36.3816 56.3719 36.2218 56.3664 36.0559C56.3628 35.868 56.4072 35.6822 56.4955 35.5157ZM56.9381 35.7595C56.8611 35.891 56.8365 36.0462 56.869 36.1946C56.8849 36.2534 56.9134 36.308 56.9524 36.355C56.9915 36.402 57.0402 36.4401 57.0955 36.4669C57.1507 36.4937 57.2111 36.5086 57.2725 36.5104C57.334 36.5123 57.3952 36.5011 57.452 36.4776C57.591 36.4109 57.7003 36.2958 57.7587 36.1544C57.8351 36.0239 57.8597 35.87 57.8278 35.7226C57.8119 35.6639 57.7834 35.6092 57.7444 35.5622C57.7053 35.5153 57.6565 35.4771 57.6013 35.4503C57.5461 35.4235 57.4857 35.4087 57.4242 35.4068C57.3627 35.405 57.3016 35.4162 57.2448 35.4396C57.1058 35.5048 56.9964 35.6189 56.9381 35.7595Z" fill="white"/>
<path d="M58.4697 36.4732C58.5435 36.3256 58.6532 36.1984 58.7889 36.1029C58.9232 36.0041 59.0845 35.9476 59.2519 35.9407C59.4252 35.9354 59.597 35.9739 59.7511 36.0526C59.8685 36.1046 59.9737 36.18 60.0602 36.2741C60.1467 36.3683 60.2126 36.4791 60.2536 36.5996C60.2938 36.7199 60.3089 36.8471 60.298 36.9734C60.2871 37.0997 60.2504 37.2225 60.1903 37.3345C60.1368 37.4509 60.0601 37.5555 59.9648 37.642C59.8695 37.7285 59.7575 37.7951 59.6356 37.8378C59.5152 37.8801 59.3873 37.8973 59.2599 37.8882C59.1324 37.8792 59.0083 37.8441 58.8953 37.7852C58.7426 37.7112 58.6096 37.6028 58.507 37.4687C58.4037 37.3379 58.345 37.1781 58.3395 37.0123C58.3364 36.8246 58.3812 36.6392 58.4697 36.4732ZM58.9123 36.717C58.8353 36.8485 58.8107 37.0036 58.8432 37.1521C58.8591 37.2108 58.8876 37.2655 58.9266 37.3125C58.9657 37.3595 59.0145 37.3976 59.0697 37.4244C59.1249 37.4512 59.1853 37.4661 59.2468 37.4679C59.3082 37.4697 59.3694 37.4586 59.4262 37.4351C59.5653 37.3684 59.6745 37.2533 59.7329 37.1119C59.809 36.9812 59.8332 36.8274 59.8009 36.6801C59.785 36.6214 59.7565 36.5667 59.7175 36.5197C59.6784 36.4727 59.6296 36.4346 59.5744 36.4078C59.5192 36.381 59.4588 36.3661 59.3973 36.3643C59.3358 36.3625 59.2747 36.3736 59.2179 36.3971C59.0793 36.4625 58.9704 36.5765 58.9123 36.717Z" fill="white"/>
<path d="M60.9343 36.67L61.3474 36.8703L61.2263 37.1141C61.3227 37.0565 61.4319 37.0231 61.5444 37.0168C61.6618 37.0101 61.7789 37.034 61.884 37.0861C61.9786 37.1312 62.062 37.1964 62.1281 37.277C62.1943 37.3576 62.2416 37.4518 62.2666 37.5526C62.3222 37.8011 62.2819 38.0613 62.1534 38.2819C62.0525 38.5217 61.8654 38.7161 61.6282 38.8277C61.5318 38.8709 61.427 38.8922 61.3212 38.8903C61.2155 38.8884 61.1115 38.8632 61.0169 38.8166C60.9286 38.7758 60.8511 38.7153 60.7905 38.6398C60.7241 38.5486 60.675 38.4463 60.6456 38.3378L60.2313 39.1723L59.7876 38.9575L60.9343 36.67ZM60.975 37.6835C60.8908 37.8238 60.858 37.9885 60.8822 38.1499C60.8935 38.2071 60.9181 38.2609 60.954 38.3071C60.99 38.3533 61.0363 38.3907 61.0893 38.4161C61.1387 38.4404 61.1932 38.4531 61.2484 38.4531C61.3036 38.4531 61.358 38.4404 61.4074 38.4161C61.5455 38.3357 61.652 38.2115 61.7096 38.0638C61.7881 37.9316 61.8185 37.7769 61.7957 37.6253C61.7846 37.5706 61.7609 37.5192 61.7263 37.4752C61.6917 37.4311 61.6473 37.3956 61.5965 37.3714C61.5453 37.3455 61.4889 37.3314 61.4314 37.3303C61.374 37.3291 61.317 37.3409 61.2648 37.3647C61.1326 37.4331 61.0297 37.5463 60.975 37.6835Z" fill="white"/>
<path d="M50.6719 36.6163L50.8983 36.3199L51.8423 37.0324C51.9411 37.1016 52.0288 37.1849 52.1027 37.2796C52.1667 37.3718 52.1978 37.4824 52.191 37.594C52.1781 37.7262 52.1248 37.8514 52.0381 37.953C51.9948 38.0174 51.9384 38.0722 51.8726 38.114C51.8067 38.1558 51.7328 38.1836 51.6555 38.1958C51.4899 38.2041 51.3275 38.1484 51.2028 38.0403L51.3873 37.7349C51.4482 37.7839 51.5199 37.818 51.5967 37.8345C51.6338 37.8391 51.6716 37.8335 51.7057 37.8183C51.7399 37.8031 51.7691 37.7789 51.7902 37.7483C51.8133 37.724 51.83 37.6945 51.8389 37.6623C51.8477 37.6301 51.8485 37.5963 51.8412 37.5638C51.7943 37.4718 51.7226 37.3943 51.634 37.3401L50.6719 36.6163Z" fill="white"/>
<path d="M52.0937 36.8333L52.2895 36.5224C52.3795 36.5749 52.485 36.595 52.5883 36.5794C52.6843 36.555 52.7679 36.4969 52.8238 36.4161C52.8888 36.3433 52.926 36.2503 52.9291 36.1532C52.9298 36.1184 52.9223 36.0839 52.9072 36.0524C52.8921 36.021 52.8697 35.9934 52.8419 35.972C52.8099 35.9467 52.7697 35.9336 52.7287 35.9351C52.6754 35.9416 52.6247 35.9617 52.5815 35.9933C52.5423 36.0186 52.4593 36.0817 52.3325 36.1823C52.2158 36.2867 52.0764 36.3632 51.925 36.406C51.8549 36.4213 51.7822 36.4212 51.7121 36.4055C51.6421 36.3898 51.5764 36.3591 51.5198 36.3154C51.4438 36.2586 51.3867 36.1807 51.3557 36.0917C51.3223 35.9957 51.3192 35.892 51.3466 35.7942C51.3811 35.6743 51.4396 35.5624 51.5187 35.4653C51.623 35.3077 51.7813 35.1925 51.9646 35.1409C52.0414 35.1254 52.1206 35.1263 52.197 35.1437C52.2734 35.1611 52.3451 35.1945 52.4072 35.2416L52.191 35.5492C52.1235 35.5079 52.0428 35.4927 51.9646 35.5067C51.8842 35.5341 51.8153 35.5873 51.7688 35.6577C51.7093 35.7262 51.6732 35.8116 51.6658 35.9016C51.6654 35.9233 51.6704 35.9449 51.6802 35.9643C51.6901 35.9838 51.7046 36.0006 51.7224 36.0134C51.74 36.0265 51.7603 36.0354 51.7819 36.0395C51.8035 36.0435 51.8257 36.0427 51.8469 36.0369C51.9623 35.9908 52.0679 35.9236 52.1582 35.8389C52.2667 35.7452 52.386 35.6645 52.5136 35.5984C52.6 35.5579 52.6958 35.5412 52.791 35.5503C52.8957 35.5653 52.9944 35.6077 53.0768 35.6732C53.1592 35.7388 53.2224 35.825 53.2596 35.9228C53.2979 36.027 53.3023 36.1404 53.272 36.2472C53.232 36.379 53.1662 36.5017 53.0785 36.6085C52.9709 36.7721 52.8067 36.8914 52.6166 36.9441C52.4344 36.9754 52.2469 36.9357 52.0937 36.8333Z" fill="white"/>
<path d="M53.6984 35.7506L52.2065 34.6253L52.5756 34.1477C52.6622 34.0262 52.7612 33.9137 52.871 33.8121C52.9596 33.7442 53.069 33.7083 53.1812 33.7103C53.3119 33.7143 53.4375 33.7615 53.5377 33.8445C53.6199 33.9022 53.6864 33.979 53.7313 34.0682C53.7667 34.1419 53.7838 34.2228 53.7811 34.3043C53.7791 34.3761 53.7625 34.4469 53.7324 34.5123C53.6702 34.6268 53.5974 34.7354 53.5151 34.8367L53.3657 35.0313L53.9316 35.4553L53.6984 35.7506ZM52.6888 34.5202L53.1121 34.8389L53.2378 34.6756C53.3034 34.5999 53.3568 34.5146 53.3962 34.4228C53.4117 34.3744 53.4117 34.3225 53.3962 34.2741C53.3793 34.2256 53.3477 34.1834 53.3057 34.1533C53.2577 34.1144 53.1966 34.0952 53.1347 34.0996C53.0755 34.1043 53.0196 34.1287 52.9763 34.1689C52.9127 34.2335 52.854 34.3027 52.8008 34.3759L52.6888 34.5202Z" fill="white"/>
<path d="M46.7721 37.5302L46.6464 37.6935L46.42 37.6298L46.1937 37.9273L46.317 38.1174L46.1937 38.2763L45.665 37.4183L45.7873 37.2595L46.7721 37.5302ZM46.2604 37.5817L45.9016 37.4698L46.1031 37.7808L46.2604 37.5817Z" fill="white"/>
<path d="M46.8343 37.4497L46.0815 36.8814L46.2672 36.6409C46.311 36.5794 46.3611 36.5224 46.4166 36.4709C46.4613 36.4368 46.5163 36.4186 46.5728 36.4195C46.6387 36.4213 46.7021 36.4449 46.7528 36.4866C46.794 36.5154 46.8274 36.5538 46.8501 36.5984C46.8681 36.6357 46.8767 36.6768 46.875 36.7181C46.8739 36.7545 46.8654 36.7902 46.8501 36.8233C46.8176 36.881 46.7797 36.9357 46.7369 36.9866L46.6611 37.085L46.9452 37.2998L46.8343 37.4497ZM46.3249 36.8277L46.5388 36.9888L46.6022 36.9072C46.6355 36.869 46.6626 36.826 46.6826 36.7796C46.6903 36.7552 46.6903 36.7291 46.6826 36.7047C46.6743 36.6801 46.6585 36.6586 46.6373 36.6432C46.6132 36.6237 46.5824 36.6141 46.5513 36.6163C46.5211 36.6188 46.4927 36.6314 46.4709 36.6521C46.4389 36.6846 46.4094 36.7193 46.3826 36.7562L46.3249 36.8277Z" fill="white"/>
<path d="M47.3709 36.755L46.6182 36.1868L46.7314 36.0369L47.0709 36.2886L46.9713 35.7293L47.1275 35.528L47.2045 36.0291L47.8927 36.0805L47.7388 36.2808L47.2272 36.2192L47.2589 36.4362L47.4852 36.6074L47.3709 36.755Z" fill="white"/>
<path d="M19.233 3.66777H15.647V3.91721H19.233V3.66777Z" fill="white"/>
<path d="M16.5365 4.23491H15.9434V4.48435H16.5365V4.23491Z" fill="white"/>
<path d="M16.5365 4.80202H15.9434V5.05146H16.5365V4.80202Z" fill="white"/>
<path d="M16.5365 5.36801H15.9434V5.61745H16.5365V5.36801Z" fill="white"/>
<path d="M19.517 4.23491H17.6968V4.48435H19.517V4.23491Z" fill="white"/>
<path d="M19.517 4.80202H17.6968V5.05146H19.517V4.80202Z" fill="white"/>
<path d="M19.517 5.36801H17.6968V5.61745H19.517V5.36801Z" fill="white"/>
<path d="M17.2111 4.23491H16.7935V4.48435H17.2111V4.23491Z" fill="white"/>
<path d="M17.2111 4.80202H16.7935V5.05146H17.2111V4.80202Z" fill="white"/>
<path d="M17.2111 5.36801H16.7935V5.61745H17.2111V5.36801Z" fill="white"/>
<path d="M17.5025 4.23491H17.3916V4.48435H17.5025V4.23491Z" fill="white"/>
<path d="M17.5025 4.80202H17.3916V5.05146H17.5025V4.80202Z" fill="white"/>
<path d="M17.5025 5.36801H17.3916V5.61745H17.5025V5.36801Z" fill="white"/>
<path d="M15.7716 4.23491H15.6606V4.48435H15.7716V4.23491Z" fill="white"/>
<path d="M15.7716 4.80202H15.6606V5.05146H15.7716V4.80202Z" fill="white"/>
<path d="M15.7716 5.36801H15.6606V5.61745H15.7716V5.36801Z" fill="white"/>
<path d="M16.8602 6.50224H15.9434V6.75168H16.8602V6.50224Z" fill="white"/>
<path d="M19.5173 6.50224H18.1284V6.75168H19.5173V6.50224Z" fill="white"/>
<path d="M17.6426 6.50224H17.1162V6.75168H17.6426V6.50224Z" fill="white"/>
<path d="M17.9337 6.50224H17.8228V6.75168H17.9337V6.50224Z" fill="white"/>
<path d="M23.8717 7.63535H19.5703V7.88479H23.8717V7.63535Z" fill="white"/>
<path d="M19.2328 7.63535H17.1704V7.88479H19.2328V7.63535Z" fill="white"/>
<path d="M22.5237 6.50224H21.1348V6.75168H22.5237V6.50224Z" fill="white"/>
<path d="M20.6491 6.50224H19.9077V6.75168H20.6491V6.50224Z" fill="white"/>
<path d="M20.94 6.50224H20.8291V6.75168H20.94V6.50224Z" fill="white"/>
<path d="M22.7735 6.50224H22.6626V6.75168H22.7735V6.50224Z" fill="white"/>
<path d="M15.7716 6.50224H15.6606V6.75168H15.7716V6.50224Z" fill="white"/>
<path d="M16.8602 8.76845H15.9434V9.01789H16.8602V8.76845Z" fill="white"/>
<path d="M15.7716 8.76845H15.6606V9.01789H15.7716V8.76845Z" fill="white"/>
<path d="M17.1471 8.76845H17.0361V9.01789H17.1471V8.76845Z" fill="white"/>
<path d="M16.1596 11.0347H15.2427V11.2841H16.1596V11.0347Z" fill="white"/>
<path d="M15.072 11.0347H14.96V11.2841H15.072V11.0347Z" fill="white"/>
<path d="M16.4459 11.0347H16.335V11.2841H16.4459V11.0347Z" fill="white"/>
<path d="M16.5401 8.20134H16.4292V8.45078H16.5401V8.20134Z" fill="white"/>
<path d="M16.968 7.06822H16.4292V7.31766H16.968V7.06822Z" fill="white"/>
<path d="M19.2736 7.06822H17.1704V7.31766H19.2736V7.06822Z" fill="white"/>
<path d="M22.6175 4.23491H20.7974V4.48435H22.6175V4.23491Z" fill="white"/>
<path d="M22.6175 4.80202H20.7974V5.05146H22.6175V4.80202Z" fill="white"/>
<path d="M22.6175 5.36801H20.7974V5.61745H22.6175V5.36801Z" fill="white"/>
<path d="M25.8948 4.23491H22.7129V4.48435H25.8948V4.23491Z" fill="white"/>
<path d="M27.0675 4.80202H22.7129V5.05146H27.0675V4.80202Z" fill="white"/>
<path d="M27.8497 5.36801H22.7129V5.61745H27.8497V5.36801Z" fill="white"/>
<path d="M20.3117 4.23491H19.894V4.48435H20.3117V4.23491Z" fill="white"/>
<path d="M20.3117 4.80202H19.894V5.05146H20.3117V4.80202Z" fill="white"/>
<path d="M20.3117 5.36801H19.894V5.61745H20.3117V5.36801Z" fill="white"/>
<path d="M20.6036 4.23491H20.4927V4.48435H20.6036V4.23491Z" fill="white"/>
<path d="M20.6036 4.80202H20.4927V5.05146H20.6036V4.80202Z" fill="white"/>
<path d="M20.6036 5.36801H20.4927V5.61745H20.6036V5.36801Z" fill="white"/>
<path d="M26.4229 4.23491H26.312V4.48435H26.4229V4.23491Z" fill="white"/>
<path d="M27.4928 4.80202H27.3818V5.05146H27.4928V4.80202Z" fill="white"/>
<path d="M28.2208 5.36801H28.1099V5.61745H28.2208V5.36801Z" fill="white"/>
<path d="M19.233 5.93513H15.647V6.18458H19.233V5.93513Z" fill="white"/>
<path d="M15.809 12.2394H15.2158V12.4888H15.809V12.2394Z" fill="white"/>
<path d="M17.1976 13.3736H16.6045V13.623H17.1976V13.3736Z" fill="white"/>
<path d="M22.2939 13.3736H18.3569V13.623H22.2939V13.3736Z" fill="white"/>
<path d="M21.4582 12.8065H15.6875V13.0559H21.4582V12.8065Z" fill="white"/>
<path d="M17.8713 13.3736H17.4536V13.623H17.8713V13.3736Z" fill="white"/>
<path d="M18.1632 13.3736H18.0522V13.623H18.1632V13.3736Z" fill="white"/>
<path d="M15.0435 12.2394H14.9326V12.4888H15.0435V12.2394Z" fill="white"/>
<path d="M16.0543 12.2394H15.9434V12.4888H16.0543V12.2394Z" fill="white"/>
<path d="M17.6698 13.9396H17.4004V14.189H17.6698V13.9396Z" fill="white"/>
<path d="M17.2271 13.9396H17.1162V14.189H17.2271V13.9396Z" fill="white"/>
<path d="M17.9151 13.9396H17.8042V14.189H17.9151V13.9396Z" fill="white"/>
<path d="M18.4247 15.0727H18.1553V15.3222H18.4247V15.0727Z" fill="white"/>
<path d="M17.982 15.0727H17.8711V15.3222H17.982V15.0727Z" fill="white"/>
<path d="M18.6705 15.0727H18.5596V15.3222H18.6705V15.0727Z" fill="white"/>
<path d="M16.4327 13.3736H16.3218V13.623H16.4327V13.3736Z" fill="white"/>
<path d="M23.5762 14.5067H17.8848V14.7561H23.5762V14.5067Z" fill="white"/>
<path d="M22.5396 13.3736H22.4287V13.623H22.5396V13.3736Z" fill="white"/>
<path d="M20.5811 9.33444H15.647V9.58388H20.5811V9.33444Z" fill="white"/>
<path d="M22.9548 9.90155H15.647V10.151H22.9548V9.90155Z" fill="white"/>
<path d="M18.1282 10.4676H15.647V10.717H18.1282V10.4676Z" fill="white"/>
<path d="M13.9481 3.66777H13.6787V3.91721H13.9481V3.66777Z" fill="white"/>
<path d="M13.9481 4.23491H13.6787V4.48435H13.9481V4.23491Z" fill="white"/>
<path d="M13.9481 4.80202H13.6787V5.05146H13.9481V4.80202Z" fill="white"/>
<path d="M13.9481 5.36801H13.6787V5.61745H13.9481V5.36801Z" fill="white"/>
<path d="M13.9481 5.93513H13.6787V6.18458H13.9481V5.93513Z" fill="white"/>
<path d="M13.9481 6.50224H13.6787V6.75168H13.9481V6.50224Z" fill="white"/>
<path d="M13.9481 7.06822H13.6787V7.31766H13.9481V7.06822Z" fill="white"/>
<path d="M13.9481 7.63535H13.6787V7.88479H13.9481V7.63535Z" fill="white"/>
<path d="M13.9481 8.20134H13.6787V8.45078H13.9481V8.20134Z" fill="white"/>
<path d="M13.9481 8.76845H13.6787V9.01789H13.9481V8.76845Z" fill="white"/>
<path d="M13.9481 9.33444H13.6787V9.58388H13.9481V9.33444Z" fill="white"/>
<path d="M13.9481 9.90155H13.6787V10.151H13.9481V9.90155Z" fill="white"/>
<path d="M13.9481 10.4676H13.6787V10.717H13.9481V10.4676Z" fill="white"/>
<path d="M13.9481 11.0347H13.6787V11.2841H13.9481V11.0347Z" fill="white"/>
<path d="M13.9481 11.6018H13.6787V11.8512H13.9481V11.6018Z" fill="white"/>
<path d="M13.9481 12.1678H13.6787V12.4172H13.9481V12.1678Z" fill="white"/>
<path d="M13.9481 12.7349H13.6787V12.9843H13.9481V12.7349Z" fill="white"/>
<path d="M44.0713 45.0872V44.7517H44.4109V45.0872H44.0713Z" fill="white"/>
<path d="M45.877 44.4463L46.2166 44.5582C46.1791 44.7238 46.0867 44.8722 45.954 44.9799C45.7957 45.0844 45.6056 45.1317 45.4161 45.1138C45.2265 45.0959 45.0491 45.0138 44.9137 44.8814C44.7558 44.7043 44.6745 44.4729 44.6873 44.2372C44.6723 43.9929 44.7534 43.7524 44.9137 43.566C44.9897 43.4865 45.0821 43.424 45.1846 43.3827C45.2871 43.3414 45.3974 43.3223 45.508 43.3266C45.7006 43.3185 45.8886 43.386 46.0309 43.5146C46.1187 43.6028 46.1805 43.713 46.2098 43.8333L45.86 43.9161C45.8438 43.8321 45.7977 43.7565 45.73 43.7032C45.6623 43.6498 45.5775 43.6222 45.491 43.6253C45.4312 43.6236 45.3718 43.6352 45.3171 43.6592C45.2625 43.6832 45.214 43.719 45.1752 43.764C45.0829 43.8945 45.04 44.0529 45.0541 44.2114C45.039 44.3762 45.0813 44.5412 45.1741 44.679C45.2117 44.7242 45.2593 44.7603 45.3133 44.7846C45.3672 44.8088 45.4261 44.8205 45.4853 44.8188C45.5745 44.8205 45.661 44.789 45.7276 44.7304C45.8067 44.6538 45.859 44.5543 45.877 44.4463Z" fill="white"/>
<path d="M46.4336 44.5235L46.7732 44.4899C46.7842 44.5857 46.8286 44.6747 46.8988 44.7416C46.9717 44.7985 47.0631 44.8271 47.1558 44.8222C47.2476 44.8288 47.3389 44.8035 47.4139 44.7506C47.4405 44.7311 47.4622 44.7059 47.4773 44.6768C47.4924 44.6476 47.5005 44.6155 47.501 44.5828C47.502 44.5449 47.4891 44.508 47.4648 44.4788C47.4297 44.4434 47.3861 44.4176 47.338 44.4038C47.2965 44.3896 47.2022 44.3643 47.055 44.3277C46.9103 44.3017 46.7736 44.2432 46.6555 44.1566C46.604 44.1139 46.5627 44.0605 46.5347 44.0001C46.5067 43.9398 46.4927 43.874 46.4936 43.8076C46.4937 43.7196 46.5201 43.6336 46.5694 43.5604C46.6226 43.4814 46.6988 43.4202 46.7879 43.3848C46.8959 43.3426 47.0113 43.3221 47.1275 43.3244C47.3052 43.3115 47.4816 43.3623 47.6244 43.4676C47.6796 43.515 47.7238 43.5736 47.7541 43.6394C47.7844 43.7052 47.8 43.7767 47.7999 43.849L47.4456 43.8647C47.4386 43.7907 47.4039 43.7221 47.3482 43.6723C47.2815 43.6283 47.2018 43.6078 47.1218 43.6141C47.0368 43.6093 46.9524 43.6313 46.8807 43.6767C46.8623 43.6889 46.8474 43.7057 46.8374 43.7253C46.8275 43.7449 46.8229 43.7667 46.8241 43.7886C46.8241 43.8089 46.8288 43.8289 46.8378 43.8471C46.8468 43.8654 46.86 43.8813 46.8762 43.8937C46.9765 43.9507 47.0867 43.9886 47.2011 44.0056C47.3331 44.032 47.4615 44.0737 47.5837 44.1298C47.6631 44.1699 47.73 44.2306 47.7772 44.3054C47.8262 44.3911 47.8508 44.4884 47.8484 44.5869C47.8461 44.6853 47.8167 44.7813 47.7636 44.8647C47.7072 44.952 47.6245 45.0197 47.5271 45.0582C47.4053 45.1035 47.2757 45.1248 47.1456 45.1208C46.9624 45.1327 46.7811 45.0787 46.6351 44.9687C46.513 44.8511 46.4409 44.6918 46.4336 44.5235Z" fill="white"/>
<path d="M48.0674 44.5235L48.407 44.4899C48.418 44.5857 48.4624 44.6747 48.5326 44.7416C48.6055 44.7985 48.6969 44.8271 48.7896 44.8222C48.8814 44.8288 48.9727 44.8035 49.0477 44.7506C49.0743 44.7311 49.096 44.7059 49.1111 44.6768C49.1262 44.6476 49.1343 44.6155 49.1348 44.5828C49.1358 44.5449 49.1229 44.508 49.0986 44.4788C49.0635 44.4434 49.0199 44.4176 48.9718 44.4038C48.9303 44.3896 48.836 44.3643 48.6888 44.3277C48.5441 44.3017 48.4074 44.2432 48.2892 44.1566C48.2377 44.1139 48.1965 44.0605 48.1685 44.0001C48.1405 43.9398 48.1265 43.874 48.1274 43.8076C48.1275 43.7196 48.1539 43.6336 48.2032 43.5604C48.2564 43.4814 48.3326 43.4202 48.4217 43.3848C48.5297 43.3426 48.6451 43.3221 48.7613 43.3244C48.939 43.3115 49.1154 43.3623 49.2582 43.4676C49.3134 43.515 49.3576 43.5736 49.3879 43.6394C49.4182 43.7052 49.4338 43.7767 49.4337 43.849L49.0793 43.8647C49.0724 43.7907 49.0377 43.7221 48.982 43.6723C48.9153 43.6283 48.8355 43.6078 48.7556 43.6141C48.6706 43.6093 48.5862 43.6313 48.5145 43.6767C48.4961 43.6889 48.4811 43.7057 48.4712 43.7253C48.4613 43.7449 48.4567 43.7667 48.4579 43.7886C48.4579 43.8089 48.4626 43.8289 48.4716 43.8471C48.4806 43.8654 48.4938 43.8813 48.51 43.8937C48.6103 43.9507 48.7205 43.9886 48.8349 44.0056C48.9669 44.032 49.0953 44.0737 49.2175 44.1298C49.2969 44.1699 49.3638 44.2306 49.411 44.3054C49.46 44.3911 49.4846 44.4884 49.4822 44.5869C49.4799 44.6853 49.4505 44.7813 49.3974 44.8647C49.341 44.952 49.2583 45.0197 49.1609 45.0582C49.0391 45.1035 48.9095 45.1248 48.7794 45.1208C48.5962 45.1327 48.4148 45.0787 48.2689 44.9687C48.1467 44.8511 48.0747 44.6918 48.0674 44.5235Z" fill="white"/>
<path opacity="0.15" d="M21.7438 55C23.9919 55 25.8143 54.8102 25.8143 54.5761C25.8143 54.3419 23.9919 54.1521 21.7438 54.1521C19.4958 54.1521 17.6733 54.3419 17.6733 54.5761C17.6733 54.8102 19.4958 55 21.7438 55Z" fill="#5468FF"/>
<path opacity="0.15" d="M44.1302 50.1309H0V50.9776H44.1302V50.1309Z" fill="#5468FF"/>
<path d="M12.14 26.7159H32.1755C33.0489 26.7159 33.8864 27.0587 34.5039 27.6689C35.1215 28.2792 35.4684 29.1068 35.4684 29.9698V41.0604H8.84717V29.9698C8.84717 29.1068 9.19409 28.2792 9.81162 27.6689C10.4291 27.0587 11.2667 26.7159 12.14 26.7159Z" fill="white"/>
<path d="M36.7114 33.4698H39.3918C39.8019 33.4698 40.1952 33.6308 40.4852 33.9173C40.7752 34.2039 40.9381 34.5925 40.9381 34.9978V46.2148H35.2783V34.8893C35.2783 34.5134 35.4292 34.1528 35.6978 33.8867C35.9665 33.6206 36.331 33.4707 36.7114 33.4698Z" fill="#5468FF"/>
<path d="M5.01814 33.4698H7.50843C7.89661 33.4698 8.26888 33.6222 8.54336 33.8934C8.81784 34.1647 8.97204 34.5325 8.97204 34.9161V46.2137H3.70508V34.7673C3.70508 34.4232 3.84342 34.0932 4.08967 33.8498C4.33591 33.6065 4.66989 33.4698 5.01814 33.4698Z" fill="#5468FF"/>
<path d="M9.45627 39.4519H34.8708C35.1035 39.4519 35.3338 39.4972 35.5488 39.5852C35.7637 39.6731 35.959 39.8021 36.1235 39.9646C36.288 40.1272 36.4185 40.3202 36.5075 40.5326C36.5965 40.7449 36.6423 40.9726 36.6423 41.2025V41.7696H7.74023V41.1432C7.74023 40.9207 7.78465 40.7004 7.87095 40.4949C7.95724 40.2894 8.08372 40.1028 8.24312 39.9457C8.40253 39.7886 8.59174 39.6641 8.79991 39.5794C9.00809 39.4946 9.23113 39.4513 9.45627 39.4519Z" fill="#5468FF"/>
<path d="M39.9454 33.4698H38.2158C37.7985 33.4698 37.3983 33.6336 37.1032 33.9252C36.8082 34.2168 36.6424 34.6123 36.6424 35.0246V41.5727H7.74031V35.1622C7.74031 34.7142 7.56023 34.2846 7.23968 33.9679C6.91913 33.6511 6.48438 33.4732 6.03106 33.4732H4.30144C3.88414 33.4732 3.48394 33.637 3.18887 33.9286C2.8938 34.2201 2.72803 34.6156 2.72803 35.028V48.8758C2.72803 48.9352 2.75188 48.9921 2.79434 49.034C2.83679 49.076 2.89438 49.0996 2.95442 49.0996H7.73917V46.2058H36.6424V49.1007H41.4272C41.4872 49.1007 41.5448 49.0771 41.5872 49.0352C41.6297 48.9932 41.6535 48.9363 41.6535 48.877V35.1622C41.654 34.9402 41.6102 34.7203 41.5245 34.5151C41.4389 34.3098 41.3132 34.1233 41.1545 33.9661C40.9959 33.8089 40.8074 33.6842 40.6 33.599C40.3925 33.5139 40.1701 33.4699 39.9454 33.4698Z" fill="white"/>
<path opacity="0.3" d="M39.9454 33.4698H38.2158C37.7985 33.4698 37.3983 33.6336 37.1032 33.9252C36.8082 34.2168 36.6424 34.6123 36.6424 35.0246V41.5727H7.74031V35.1622C7.74031 34.7142 7.56023 34.2846 7.23968 33.9679C6.91913 33.6511 6.48438 33.4732 6.03106 33.4732H4.30144C3.88414 33.4732 3.48394 33.637 3.18887 33.9286C2.8938 34.2201 2.72803 34.6156 2.72803 35.028V48.8758C2.72803 48.9352 2.75188 48.9921 2.79434 49.034C2.83679 49.076 2.89438 49.0996 2.95442 49.0996H7.73917V46.2058H36.6424V49.1007H41.4272C41.4872 49.1007 41.5448 49.0771 41.5872 49.0352C41.6297 48.9932 41.6535 48.9363 41.6535 48.877V35.1622C41.654 34.9402 41.6102 34.7203 41.5245 34.5151C41.4389 34.3098 41.3132 34.1233 41.1545 33.9661C40.9959 33.8089 40.8074 33.6842 40.6 33.599C40.3925 33.5139 40.1701 33.4699 39.9454 33.4698Z" fill="#5468FF"/>
<path opacity="0.3" d="M12.14 26.7159H32.1755C33.0489 26.7159 33.8864 27.0587 34.5039 27.6689C35.1215 28.2792 35.4684 29.1068 35.4684 29.9698V41.0604H8.84717V29.9698C8.84717 29.1068 9.19409 28.2792 9.81162 27.6689C10.4291 27.0587 11.2667 26.7159 12.14 26.7159Z" fill="#5468FF"/>
<path d="M40.8725 49.3803V49.123H37.2277V49.3803H36.7715V50.1521H41.3287V49.3803H40.8725Z" fill="#5468FF"/>
<path d="M7.02489 49.3803V49.123H3.37887V49.3803H2.92383V50.1521H7.47993V49.3803H7.02489Z" fill="#5468FF"/>
<path d="M31.3891 32.5895C30.6118 31.0328 29.7315 29.5284 28.7539 28.0861C28.454 27.6387 28.1302 27.1913 27.6673 26.9239C27.2518 26.6823 26.7617 26.6085 26.2806 26.5604C25.1 26.4485 23.9103 26.462 22.7229 26.4799C20.8903 26.5067 19.0452 26.5347 17.251 26.9049C17.0535 26.9369 16.8624 27 16.6851 27.0917C16.476 27.2305 16.2965 27.4083 16.1565 27.6152C15.2072 28.8557 14.3822 30.1845 13.6933 31.5828C13.3475 32.2712 13.0473 32.9812 12.7946 33.7081C12.5602 34.3993 12.1822 35.0503 12.1437 35.7987C12.1086 36.5157 12.4323 37.2998 13.0945 37.5884C13.9288 37.9553 14.8841 37.4351 15.7965 37.4765C15.7965 37.3881 15.7965 37.3009 15.7965 37.2125L17.3891 37.0817L17.2578 39.4441L18.6524 37.623C18.7268 37.4846 18.8388 37.3695 18.9757 37.2904C19.1127 37.2114 19.2692 37.1716 19.4278 37.1756L25.0615 36.679C25.6402 36.6098 26.2244 36.5956 26.8058 36.6365C27.6469 36.7237 28.4426 37.0403 29.2599 37.2517C30.0772 37.4631 30.9703 37.566 31.7502 37.236C31.876 37.1896 31.9895 37.1153 32.0819 37.019C32.1735 36.9009 32.2352 36.7628 32.2618 36.6163C32.589 35.2528 32.0173 33.8468 31.3891 32.5895ZM27.3413 35.5089V33.0168L28.403 34.8535L27.3413 35.5089Z" fill="#5468FF"/>
<path d="M17.389 32.7539L16.1948 34.8535L17.389 35.6398V32.7539Z" fill="white"/>
<path d="M17.7876 35.6398C17.7876 35.6398 18.0412 34.0123 20.6514 34.3043C20.7032 34.3098 20.751 34.3339 20.7859 34.3721C20.8208 34.4102 20.8402 34.4598 20.8405 34.5112C20.8406 34.5384 20.8353 34.5653 20.825 34.5905C20.8146 34.6156 20.7993 34.6385 20.7799 34.6578C20.7606 34.6772 20.7376 34.6925 20.7122 34.7031C20.6869 34.7136 20.6597 34.7191 20.6322 34.7192C20.1907 34.7192 19.2105 34.7729 19.3135 35.1812H21.1246C21.1732 35.1812 21.2199 35.2003 21.2543 35.2343C21.2886 35.2683 21.308 35.3144 21.308 35.3624V35.7796C21.308 35.8217 21.2996 35.8633 21.2833 35.9021C21.2671 35.9409 21.2432 35.9761 21.2131 36.0059C21.1831 36.0356 21.1474 36.0591 21.1081 36.0752C21.0688 36.0913 21.0267 36.0996 20.9842 36.0996C20.9644 36.0996 20.9454 36.1073 20.9314 36.1212C20.9174 36.135 20.9095 36.1538 20.9095 36.1734V36.3702C20.9097 36.4017 20.9031 36.4329 20.8903 36.4616C20.8775 36.4904 20.8586 36.5162 20.835 36.5374C20.8114 36.5585 20.7836 36.5744 20.7533 36.5842C20.723 36.5939 20.691 36.5973 20.6594 36.594C20.176 36.5503 19.1516 36.5168 19.0509 37.0168H18.1215C18.1215 37.0168 17.9868 35.5749 17.7876 35.6398Z" fill="#F5B58F"/>
<path d="M26.7481 36.4933L26.6156 35.7103C26.6156 35.7103 26.2444 34.7304 24.0631 35.019C24.0005 35.0281 23.9431 35.0586 23.9009 35.1052C23.8587 35.1518 23.8344 35.2116 23.8322 35.274V35.4385H23.6284C23.5756 35.4385 23.5249 35.4592 23.4876 35.4961C23.4502 35.5331 23.4292 35.5831 23.4292 35.6353C23.4291 35.6613 23.4341 35.687 23.444 35.711C23.454 35.735 23.4686 35.7569 23.4872 35.7753C23.5057 35.7937 23.5277 35.8083 23.5519 35.8182C23.5762 35.8282 23.6022 35.8333 23.6284 35.8333H24.7604V36.0962H23.6929C23.6239 36.0962 23.5577 36.1233 23.5089 36.1715C23.46 36.2198 23.4326 36.2852 23.4326 36.3535C23.4326 36.3881 23.4396 36.4224 23.4533 36.4543C23.4671 36.4862 23.4872 36.515 23.5124 36.539C23.5377 36.5631 23.5676 36.5818 23.6004 36.5941C23.6331 36.6064 23.6681 36.6121 23.7031 36.6107L26.7481 36.4933Z" fill="#F5B58F"/>
<path d="M15.9942 38.7562L15.2652 31.8669C15.2514 31.7889 15.2547 31.7088 15.275 31.6321C15.2954 31.5555 15.3322 31.4841 15.3831 31.4228C15.4339 31.3615 15.4975 31.3118 15.5696 31.277C15.6417 31.2423 15.7205 31.2233 15.8007 31.2215L26.8089 30.9698C26.8902 30.9676 26.9709 30.9831 27.0455 31.015C27.1201 31.047 27.1868 31.0947 27.2407 31.1549C27.2946 31.215 27.3346 31.2861 27.3578 31.3631C27.381 31.4401 27.3868 31.5212 27.3749 31.6007L27.5265 38.1398C27.5265 38.1398 23.267 38.4474 21.414 38.4754C21.4117 38.4754 17.9276 39.2718 15.9942 38.7562Z" fill="white"/>
<path opacity="0.2" d="M15.9942 38.7562L15.2652 31.8669C15.2514 31.7889 15.2547 31.7088 15.275 31.6321C15.2954 31.5555 15.3322 31.4841 15.3831 31.4228C15.4339 31.3615 15.4975 31.3118 15.5696 31.277C15.6417 31.2423 15.7205 31.2233 15.8007 31.2215L26.8089 30.9698C26.8902 30.9676 26.9709 30.9831 27.0455 31.015C27.1201 31.047 27.1868 31.0947 27.2407 31.1549C27.2946 31.215 27.3346 31.2861 27.3578 31.3631C27.381 31.4401 27.3868 31.5212 27.3749 31.6007L27.5265 38.1398C27.5265 38.1398 23.267 38.4474 21.414 38.4754C21.4117 38.4754 17.9276 39.2718 15.9942 38.7562Z" fill="#5468FF"/>
<path opacity="0.2" d="M21.4482 33.9318C21.8783 33.9318 22.227 33.7249 22.227 33.4698C22.227 33.2146 21.8783 33.0078 21.4482 33.0078C21.0181 33.0078 20.6694 33.2146 20.6694 33.4698C20.6694 33.7249 21.0181 33.9318 21.4482 33.9318Z" fill="#5468FF"/>
<path d="M15.9287 37.4765C15.9287 37.4765 12.2114 37.7394 11.548 38.5257C10.8847 39.3121 11.6805 40.4933 13.8051 39.8378C15.9298 39.1823 16.4596 38.7886 16.4596 38.7886L15.9287 37.4765Z" fill="#000D44"/>
<path d="M20.9728 25.0146L20.8403 26.8512C20.9774 27.1315 21.1825 27.3739 21.4372 27.5569C21.692 27.7399 21.9885 27.858 22.3005 27.9005L22.4817 28.2964C22.5036 28.3451 22.5388 28.3866 22.5834 28.4165C22.628 28.4464 22.6802 28.4633 22.734 28.4654C22.7878 28.4675 22.8411 28.4547 22.888 28.4284C22.9348 28.4021 22.9732 28.3633 22.999 28.3166L23.2254 27.9005C23.2254 27.9005 24.3109 27.4038 24.432 26.4709L24.2871 24.6208L20.9728 25.0146Z" fill="#F5B58F"/>
<path d="M31.8506 37.2148H31.7261C31.2113 36.791 30.5624 36.5591 29.8924 36.5593H26.6029L17.3888 37.0917V37.0839L15.795 37.2148L15.6626 39.8378H17.2553C17.2553 39.8378 29.3354 41.2808 29.9988 41.2808C30.6621 41.2808 33.3188 40.4933 31.8506 37.2148Z" fill="#1B255E"/>
<path d="M19.9835 54.377L22.587 53.906C22.1342 51.6544 21.9248 49.3624 21.7131 47.0761L21.1822 41.3277C21.0985 40.4195 20.9864 39.4441 20.3729 38.7629C20.1785 38.549 19.9431 38.3753 19.6805 38.2516C19.4178 38.128 19.133 38.0569 18.8425 38.0425C18.2233 38.0145 17.6347 38.2494 17.1095 38.5548C16.5842 38.8602 16.4054 39.1957 16.2865 39.7852C16.1858 40.2841 16.299 40.7998 16.4145 41.2953C17.4423 45.6969 18.7033 50.0414 19.9733 54.3826L19.9835 54.377Z" fill="#1B255E"/>
<path d="M24.9548 22.5224C24.9548 22.5224 25.763 23.2125 24.4239 23.4407L24.2915 24.6208L20.6907 24.5548L20.8039 23.7629C20.8039 23.7629 19.5067 24.4888 19.9051 22.7841L20.0376 21.604L21.2318 20.4239L23.2229 20.8177L24.9548 21.7394V22.5224Z" fill="#F5B58F"/>
<path d="M20.7068 23.3054C20.7499 23.1985 20.7732 23.0848 20.7759 22.9698C20.7771 22.9109 20.7624 22.8527 20.7331 22.8013C20.7038 22.75 20.6611 22.7073 20.6095 22.6779C20.5508 22.6538 20.4872 22.6438 20.4238 22.6488C20.2437 22.6543 20.0675 22.7022 19.9099 22.7886C19.8307 22.8322 19.5251 22.179 19.5024 22.1107C19.4009 21.8471 19.3694 21.5621 19.4107 21.283C19.5183 20.7975 20.0016 20.3602 20.4419 20.1644C20.4838 19.7964 20.3695 19.4083 20.4963 19.0593C20.5381 18.9448 20.6045 18.8407 20.6908 18.7538C20.7771 18.667 20.8813 18.5996 20.9964 18.5562C21.1115 18.5128 21.2346 18.4944 21.3575 18.5022C21.4804 18.5101 21.6002 18.5441 21.7086 18.6018C21.8999 18.7036 22.0482 18.8758 22.2519 18.9541C22.4614 19.0227 22.6885 19.0163 22.8937 18.9362C23.0967 18.8564 23.2954 18.7665 23.4891 18.6667C23.7224 18.5529 23.9765 18.4871 24.2362 18.4732C24.4977 18.4604 24.7547 18.5441 24.9573 18.7081C25.2969 19.0022 25.3467 19.5011 25.341 19.9474C25.3354 20.3937 25.3059 20.8747 25.5527 21.2494C25.6169 21.3285 25.6684 21.4167 25.7055 21.5112C25.7282 21.6577 25.7011 21.8076 25.6285 21.9374C25.487 22.2729 25.3071 22.6309 24.9641 22.7461C24.8344 22.7832 24.6993 22.7987 24.5645 22.7919C24.4331 22.8067 24.3011 22.7702 24.1966 22.6902C24.1106 22.604 24.097 22.4732 24.0404 22.3658C23.9965 22.2893 23.9308 22.2273 23.8515 22.1875C23.7722 22.1478 23.6828 22.1319 23.5944 22.1421C23.6533 22.3781 23.3918 22.5895 23.1416 22.5895C22.8915 22.5895 22.6821 22.4318 22.4896 22.2819C22.0074 21.9038 21.5535 21.4922 21.1007 21.0805C21.1505 21.66 21.1992 22.2506 21.0668 22.8177C21.0249 23.0246 20.9185 23.2595 20.7068 23.3054Z" fill="#000D44"/>
<path d="M20.8404 23.7036C20.8404 23.7036 20.9728 25.1465 21.7697 24.2282C21.7697 24.2282 22.8315 23.9653 23.3624 24.3591C23.8933 24.7528 24.4242 23.4407 24.4242 23.4407C24.4242 23.4407 24.5566 25.9329 23.6318 26.1958C22.707 26.4586 21.4584 26.3557 20.9525 25.3579C20.4465 24.3602 20.8404 23.7036 20.8404 23.7036Z" fill="#000D44"/>
<path d="M19.8963 54.5761H22.7953C22.8651 54.4408 22.9015 54.2911 22.9015 54.1393C22.9015 53.9874 22.8651 53.8377 22.7953 53.7025C22.5598 53.2125 21.1879 52.5996 20.4261 53.3098C20.1465 53.5705 19.7979 54.0928 19.7979 54.2696C19.8006 54.3789 19.8348 54.4852 19.8963 54.5761Z" fill="#000D44"/>
<path d="M17.0936 19.038H5.5986C4.90894 19.0407 4.24829 19.3126 3.76063 19.7945C3.27296 20.2764 2.9978 20.9292 2.99512 21.6107C2.9978 22.2922 3.27296 22.9451 3.76063 23.427C4.24829 23.9089 4.90894 24.1808 5.5986 24.1834H13.3842L15.7137 26.0011V24.1879H17.0936C17.7832 24.1853 18.4439 23.9134 18.9315 23.4315C19.4192 22.9495 19.6944 22.2967 19.6971 21.6152C19.6956 20.9329 19.4209 20.2789 18.9331 19.7961C18.4453 19.3132 17.784 19.0407 17.0936 19.038Z" fill="#5468FF"/>
<path opacity="0.5" d="M17.0936 19.038H5.5986C4.90894 19.0407 4.24829 19.3126 3.76063 19.7945C3.27296 20.2764 2.9978 20.9292 2.99512 21.6107C2.9978 22.2922 3.27296 22.9451 3.76063 23.427C4.24829 23.9089 4.90894 24.1808 5.5986 24.1834H13.3842L15.7137 26.0011V24.1879H17.0936C17.7832 24.1853 18.4439 23.9134 18.9315 23.4315C19.4192 22.9495 19.6944 22.2967 19.6971 21.6152C19.6956 20.9329 19.4209 20.2789 18.9331 19.7961C18.4453 19.3132 17.784 19.0407 17.0936 19.038Z" fill="#000D44"/>
<path d="M6.68874 21.764H17.2306C17.3244 21.764 17.4004 21.6889 17.4004 21.5962V21.4776C17.4004 21.385 17.3244 21.3098 17.2306 21.3098H6.68874C6.59496 21.3098 6.51895 21.385 6.51895 21.4776V21.5962C6.51895 21.6889 6.59496 21.764 6.68874 21.764Z" fill="white"/>
<path d="M9.4473 22.9765H17.2306C17.3244 22.9765 17.4004 22.9014 17.4004 22.8087V22.6902C17.4004 22.5975 17.3244 22.5224 17.2306 22.5224H9.4473C9.35353 22.5224 9.27751 22.5975 9.27751 22.6902V22.8087C9.27751 22.9014 9.35353 22.9765 9.4473 22.9765Z" fill="white"/>
</svg>
