<svg width="77" height="68" viewBox="0 0 77 68" fill="none" xmlns="http://www.w3.org/2000/svg">
<path d="M20.2141 11.5487C20.2141 11.5487 21.6393 15.3364 22.6645 16.4782C24.2254 14.5309 24.7374 11.925 24.7374 11.925L26.881 12.3625C26.881 12.3625 26.3832 18.7924 22.254 20.6998C19.1429 19.5615 18.231 15.6174 18.231 15.6174L20.2141 11.5487Z" fill="#5468FF"/>
<path opacity="0.3" d="M20.2141 11.5487C20.2141 11.5487 21.6393 15.3364 22.6645 16.4782C24.2254 14.5309 24.7374 11.925 24.7374 11.925L26.881 12.3625C26.881 12.3625 26.3832 18.7924 22.254 20.6998C19.1429 19.5615 18.231 15.6174 18.231 15.6174L20.2141 11.5487Z" fill="#000D44"/>
<path d="M14.0087 1.77924C14.3331 0.195274 16.2503 -0.0175675 17.4123 0.00124719C17.494 0.239537 17.5934 0.47144 17.7096 0.69504C17.9775 1.51636 18.4543 2.2545 19.0935 2.83757C19.2044 2.95516 19.3295 3.06334 19.4474 3.16918L17.3073 6.13014L15.6852 7.46952L14.5608 6.85216C11.9087 3.5243 14.0087 1.77924 14.0087 1.77924Z" fill="#000D44"/>
<path d="M20.004 6.28062L19.8861 7.2484C19.8861 7.2484 18.6379 7.58472 18.4703 6.86858L18.3052 6.15127L18.7063 5.86905" fill="white"/>
<path d="M19.8897 7.24842V7.259C19.815 7.5751 19.6348 7.85656 19.3787 8.05735C19.1226 8.25814 18.8057 8.36638 18.4799 8.36437H17.6541V9.73549L16.5769 10.2223L15.6485 10.5151L14.858 10.1553L14.5654 9.15106V6.85213C14.5654 6.85213 14.8769 7.21902 15.3606 6.85213C15.3606 6.85213 16.0165 6.45585 16.1864 5.48807C16.1864 5.48807 14.9972 5.24347 15.1978 4.37917C15.3653 3.66069 16.2714 3.90293 16.5592 4.52028V5.34343C16.5592 5.34343 17.0252 5.33167 17.1067 3.75006L17.6517 3.05273H19.5393C19.5393 3.05273 20.233 4.63082 20.0183 6.27828L19.8897 7.24842Z" fill="#F5B58F"/>
<path d="M13.6203 24.4051C12.6021 24.4174 11.6038 24.6877 10.7192 25.1906L11.6713 10.4751L12.4287 10.1553C12.7232 10.031 13.0398 9.967 13.3596 9.96711H17.9607C18.5689 9.96604 19.1546 10.1968 19.5977 10.6122C20.0407 11.0276 20.3077 11.5961 20.3438 12.2014L21.1944 26.3124C18.7771 25.1976 16.3314 24.3569 13.6203 24.4051Z" fill="#5468FF"/>
<path opacity="0.2" d="M13.6203 24.4051C12.6021 24.4174 11.6038 24.6877 10.7192 25.1906L11.6713 10.4751L12.4287 10.1553C12.7232 10.031 13.0398 9.967 13.3596 9.96711H17.9607C18.5689 9.96604 19.1546 10.1968 19.5977 10.6122C20.0407 11.0276 20.3077 11.5961 20.3438 12.2014L21.1944 26.3124C18.7771 25.1976 16.3314 24.3569 13.6203 24.4051Z" fill="#000D44"/>
<path d="M17.7802 14.2428H19.9805V13.4926H17.7802V14.2428Z" fill="white"/>
<path d="M16.9733 11.2007C16.8667 11.3067 16.7223 11.3663 16.5716 11.3663C16.421 11.3663 16.2765 11.3067 16.1699 11.2007L15.1494 10.1835L16.4944 9.97303C16.5456 9.96503 16.5977 9.96503 16.6489 9.97303L17.9938 10.1835L16.9733 11.2007Z" fill="#5468FF"/>
<path d="M16.9733 11.2007C16.8667 11.3067 16.7223 11.3663 16.5716 11.3663C16.421 11.3663 16.2765 11.3067 16.1699 11.2007L15.1494 10.1835L16.4944 9.97303C16.5456 9.96503 16.5977 9.96503 16.6489 9.97303L17.9938 10.1835L16.9733 11.2007Z" fill="#5468FF"/>
<path d="M24.5935 11.5487L27.176 12.1496L26.9283 13.5149L24.3198 12.9704" fill="white"/>
<path opacity="0.5" d="M17.7802 14.2428H19.9805V13.4926H17.7802V14.2428Z" fill="#5468FF"/>
<path opacity="0.5" d="M24.5935 11.5487L27.176 12.1496L26.9283 13.5149L24.3198 12.9704" fill="#5468FF"/>
<path d="M16.5723 9.96716L18.277 11.2936C18.277 11.2936 18.4682 10.367 17.6494 9.48268C17.6482 9.48268 17.3556 9.96716 16.5723 9.96716Z" fill="white"/>
<path d="M16.5723 9.96713C16.5723 9.96713 15.2745 10.0671 14.5667 9.14398C14.1818 9.30349 13.8673 9.59565 13.6807 9.96713C13.6807 9.96713 14.011 11.1089 15.0504 11.4852L16.5723 9.96713Z" fill="white"/>
<path opacity="0.5" d="M16.5723 9.96716L18.277 11.2936C18.277 11.2936 18.4682 10.367 17.6494 9.48268C17.6482 9.48268 17.3556 9.96716 16.5723 9.96716Z" fill="#5468FF"/>
<path opacity="0.5" d="M16.5723 9.96713C16.5723 9.96713 15.2745 10.0671 14.5667 9.14398C14.1818 9.30349 13.8673 9.59565 13.6807 9.96713C13.6807 9.96713 14.011 11.1089 15.0504 11.4852L16.5723 9.96713Z" fill="#5468FF"/>
<path d="M21.8199 7.75875C21.8746 7.99927 22.0225 8.20847 22.2314 8.34066C22.4403 8.47285 22.6932 8.5173 22.9348 8.4643L24.4685 8.12446C24.4447 7.49899 24.3072 6.88302 24.0627 6.30649L22.529 6.64633C22.2872 6.70055 22.0768 6.84806 21.9439 7.05656C21.811 7.26506 21.7664 7.51755 21.8199 7.75875Z" fill="#5468FF"/>
<path d="M22.7827 6.10893L25.4254 4.95418L26.4093 6.74628L26.2795 8.78415L23.3962 8.84883C23.0222 8.93114 22.5821 8.38669 22.4134 7.63057C22.2447 6.87446 22.4122 6.19125 22.7827 6.10893Z" fill="white"/>
<path opacity="0.5" d="M22.7827 6.10893L25.4254 4.95418L26.4093 6.74628L26.2795 8.78415L23.3962 8.84883C23.0222 8.93114 22.5821 8.38669 22.4134 7.63057C22.2447 6.87446 22.4122 6.19125 22.7827 6.10893Z" fill="#5468FF"/>
<path d="M24.8023 8.93941C24.8023 8.93941 24.5853 9.44153 24.9534 10.2141C24.9534 10.2141 24.4449 12.1426 25.7969 12.4683C25.825 11.5815 25.7761 10.6939 25.6506 9.81547L25.4961 9.12403" fill="#FFCDA9"/>
<path d="M25.8881 12.8188L26.7346 12.6313C26.8065 12.6154 26.8518 12.5444 26.8358 12.4728L25.5021 6.49102C25.4861 6.41938 25.4149 6.37421 25.343 6.39013L24.4965 6.57764C24.4246 6.59356 24.3793 6.66455 24.3953 6.73619L25.7291 12.718C25.745 12.7896 25.8163 12.8348 25.8881 12.8188Z" fill="#5468FF"/>
<path opacity="0.2" d="M25.8881 12.8188L26.7346 12.6313C26.8065 12.6154 26.8518 12.5444 26.8358 12.4728L25.5021 6.49102C25.4861 6.41938 25.4149 6.37421 25.343 6.39013L24.4965 6.57764C24.4246 6.59356 24.3793 6.66455 24.3953 6.73619L25.7291 12.718C25.745 12.7896 25.8163 12.8348 25.8881 12.8188Z" fill="#000D44"/>
<path d="M26.2864 10.0295C26.2864 10.0071 25.3013 10.2482 25.3013 10.2482C25.3013 10.2482 25.7555 12.1367 26.704 12.4213L27.1334 12.3261C27.1942 11.7323 27.1898 11.1338 27.1205 10.541L27.1972 9.81665C26.8962 9.61895 26.5387 9.52479 26.179 9.54854L26.2864 10.0295Z" fill="#FFCDA9"/>
<path d="M24.3565 4.77663L28.7995 2.8246L30.4512 5.84436L30.233 9.27923L25.3747 9.38859C24.7447 9.52852 24.0026 8.60895 23.723 7.33661C23.4434 6.06426 23.7265 4.91656 24.3565 4.77663Z" fill="#5468FF"/>
<path d="M30.9677 10.015C32.0834 9.76791 32.5806 7.74155 32.0784 5.48904C31.5761 3.23652 30.2646 1.61084 29.1489 1.85798C28.0333 2.10511 27.5361 4.13147 28.0383 6.38398C28.5405 8.6365 29.8521 10.2622 30.9677 10.015Z" fill="white"/>
<path opacity="0.6" d="M30.9677 10.015C32.0834 9.76791 32.5806 7.74155 32.0784 5.48904C31.5761 3.23652 30.2646 1.61084 29.1489 1.85798C28.0333 2.10511 27.5361 4.13147 28.0383 6.38398C28.5405 8.6365 29.8521 10.2622 30.9677 10.015Z" fill="#5468FF"/>
<path d="M31.2109 9.95906C32.3265 9.71193 32.8238 7.68556 32.3215 5.43305C31.8193 3.18054 30.5077 1.55486 29.3921 1.80199C28.2765 2.04912 27.7792 4.07549 28.2815 6.328C28.7837 8.58051 30.0953 10.2062 31.2109 9.95906Z" fill="white"/>
<path opacity="0.5" d="M31.2109 9.95906C32.3265 9.71193 32.8238 7.68556 32.3215 5.43305C31.8193 3.18054 30.5077 1.55486 29.3921 1.80199C28.2765 2.04912 27.7792 4.07549 28.2815 6.328C28.7837 8.58051 30.0953 10.2062 31.2109 9.95906Z" fill="#5468FF"/>
<path d="M31.1018 9.47009C32.0833 9.25268 32.5207 7.46987 32.0788 5.48807C31.6369 3.50626 30.4831 2.07593 29.5016 2.29334C28.5202 2.51074 28.0828 4.29355 28.5247 6.27536C28.9666 8.25716 30.1204 9.68749 31.1018 9.47009Z" fill="#5468FF"/>
<path d="M28.6115 4.9789C28.9271 4.9153 29.2551 4.97764 29.5251 5.15251C29.795 5.32738 29.9854 5.60083 30.0552 5.9141C30.125 6.22736 30.0688 6.55543 29.8986 6.8278C29.7283 7.10018 29.4577 7.29511 29.1448 7.37072L28.8852 7.42834C28.7319 7.05434 28.6107 6.66803 28.523 6.27358C28.4333 5.86595 28.38 5.45119 28.3638 5.03417L28.6115 4.9789Z" fill="white"/>
<path opacity="0.5" d="M28.6115 4.9789C28.9271 4.9153 29.2551 4.97764 29.5251 5.15251C29.795 5.32738 29.9854 5.60083 30.0552 5.9141C30.125 6.22736 30.0688 6.55543 29.8986 6.8278C29.7283 7.10018 29.4577 7.29511 29.1448 7.37072L28.8852 7.42834C28.7319 7.05434 28.6107 6.66803 28.523 6.27358C28.4333 5.86595 28.38 5.45119 28.3638 5.03417L28.6115 4.9789Z" fill="#5468FF"/>
<path d="M28.3652 5.05298L28.8655 4.94244C28.5115 5.45515 28.2414 6.34414 29.348 7.34485L28.8985 7.4448C28.7392 7.0645 28.6137 6.67102 28.5233 6.26888C28.475 6.05369 28.4419 5.8432 28.4148 5.63389C28.3876 5.42457 28.3735 5.24466 28.3652 5.05298Z" fill="#5468FF"/>
<path opacity="0.2" d="M28.3652 5.05298L28.8655 4.94244C28.5115 5.45515 28.2414 6.34414 29.348 7.34485L28.8985 7.4448C28.7392 7.0645 28.6137 6.67102 28.5233 6.26888C28.475 6.05369 28.4419 5.8432 28.4148 5.63389C28.3876 5.42457 28.3735 5.24466 28.3652 5.05298Z" fill="#000D44"/>
<path d="M12.0678 16.1889C12.0678 16.1889 9.98909 21.4582 11.6313 25.2188L9.80505 25.6139C9.80505 25.6139 7.06798 21.5088 8.33742 16.2936C9.49005 11.5546 11.6703 10.474 11.6703 10.474C12.0974 10.7132 12.4608 11.0509 12.7301 11.4588C12.9994 11.8668 13.1667 12.3331 13.2181 12.8187C13.447 14.8637 12.0678 16.1889 12.0678 16.1889Z" fill="#5468FF"/>
<path opacity="0.3" d="M12.0678 16.1889C12.0678 16.1889 9.98909 21.4582 11.6313 25.2188L9.80505 25.6139C9.80505 25.6139 7.06798 21.5088 8.33742 16.2936C9.49005 11.5546 11.6703 10.474 11.6703 10.474C12.0974 10.7132 12.4608 11.0509 12.7301 11.4588C12.9994 11.8668 13.1667 12.3331 13.2181 12.8187C13.447 14.8637 12.0678 16.1889 12.0678 16.1889Z" fill="#000D44"/>
<path d="M17.6435 3.05626C17.6435 3.05626 19.5571 3.81825 20.6059 2.47888C20.2379 2.3547 19.9321 2.09403 19.7518 1.75099C19.3979 1.08306 18.6074 0.00591977 17.1728 4.01642e-05C15.0941 -0.0093672 15.1236 1.63692 15.1236 1.63692L17.6435 3.05626Z" fill="#000D44"/>
<path d="M0 55.1307H69.6194V55.9409C69.6194 56.1044 69.5542 56.2611 69.4383 56.3766C69.3224 56.4922 69.1651 56.5571 69.0012 56.5571H0.619379C0.455422 56.5571 0.298181 56.4922 0.182246 56.3766C0.0663114 56.2611 0.00118002 56.1044 0.00118002 55.9409V55.1307H0Z" fill="#5468FF"/>
<path d="M9.52326 17.2249H60.5058C61.0521 17.2249 61.5761 17.4413 61.9624 17.8263C62.3487 18.2113 62.5657 18.7336 62.5657 19.2781V53.6021H7.46338V19.2781C7.46338 18.7336 7.6804 18.2113 8.0667 17.8263C8.453 17.4413 8.97694 17.2249 9.52326 17.2249Z" fill="#5468FF"/>
<path d="M60.2649 19.7214H9.76367V51.5136H60.2649V19.7214Z" fill="white"/>
<path opacity="0.05" d="M60.2649 19.7214H9.76367V51.5136H60.2649V19.7214Z" fill="#5468FF"/>
<path d="M0 53.1952H69.6194V55.1307H0.165168C0.121676 55.1307 0.0799645 55.1135 0.0492108 55.0829C0.0184571 55.0522 0.00118002 55.0106 0.00118002 54.9673V53.1952H0Z" fill="#5468FF"/>
<path opacity="0.2" d="M0 53.1952H69.6194V55.1307H0.165168C0.121676 55.1307 0.0799645 55.1135 0.0492108 55.0829C0.0184571 55.0522 0.00118002 55.0106 0.00118002 54.9673V53.1952H0Z" fill="#000D44"/>
<path d="M42.6311 53.1952C42.6311 53.5459 42.4915 53.8824 42.2429 54.1306C41.9942 54.3789 41.657 54.5186 41.305 54.5193H30.5691C30.2168 54.5193 29.8789 54.3798 29.6298 54.1315C29.3807 53.8831 29.2407 53.5463 29.2407 53.1952" fill="#5468FF"/>
<path opacity="0.5" d="M42.6311 53.1952C42.6311 53.5459 42.4915 53.8824 42.2429 54.1306C41.9942 54.3789 41.657 54.5186 41.305 54.5193H30.5691C30.2168 54.5193 29.8789 54.3798 29.6298 54.1315C29.3807 53.8831 29.2407 53.5463 29.2407 53.1952" fill="#000D44"/>
<path d="M26.0246 36.2842H12.6767C12.3998 36.2842 12.1753 36.508 12.1753 36.784V42.0427C12.1753 42.3187 12.3998 42.5425 12.6767 42.5425H26.0246C26.3015 42.5425 26.526 42.3187 26.526 42.0427V36.784C26.526 36.508 26.3015 36.2842 26.0246 36.2842Z" fill="#5468FF"/>
<path d="M26.4609 35.2871H25.7318V35.1083H26.455L26.4621 35.2871H26.4609ZM25.0157 35.2871H24.2925V35.1083H25.0157V35.2871ZM23.5705 35.2871H22.8473V35.1083H23.5705V35.2871ZM22.1253 35.2871H21.4021V35.1083H22.1253V35.2871ZM20.6801 35.2871H19.951V35.1083H20.6742L20.6801 35.2871ZM19.2349 35.2871H18.5117V35.1083H19.2349V35.2871ZM17.7896 35.2871H17.0664V35.1083H17.7896V35.2871ZM16.3444 35.2871H15.6212V35.1083H16.3444V35.2871ZM14.8992 35.2871H14.1701V35.1083H14.8933L14.8992 35.2871ZM13.454 35.2871H12.7308V35.1083H13.454V35.2871ZM12.2742 34.9966H12.0949V34.2758H12.2742V34.9966ZM26.6249 34.5121H26.4397V33.7913H26.619L26.6249 34.5121ZM12.2742 33.5561H12.0949V32.8353H12.2742V33.5561ZM26.6167 33.0705H26.4397V32.3532H26.619L26.6167 33.0705ZM12.2648 32.118H12.0854V31.3971H12.2648V32.118ZM26.6155 31.6335H26.4397V30.9127H26.619L26.6155 31.6335ZM12.2648 30.6775H12.0854V29.9566H12.2648V30.6775ZM26.6155 30.193H26.4397V29.4722H26.619L26.6155 30.193ZM12.2648 29.237H12.0854V28.5161H12.2648V29.237ZM26.6155 28.7525H26.4397V28.0317H26.619L26.6155 28.7525ZM12.2648 27.7965H12.0854V27.0756H12.2648V27.7965ZM26.6155 27.312H26.4397V26.5911H26.619L26.6155 27.312ZM12.2648 26.356H12.0854V25.6351H12.2648V26.356ZM26.6155 25.8715H26.4397V25.1448H26.619L26.6155 25.8715ZM12.2648 24.9096H12.0854V24.1887H12.2648V24.9096ZM26.6155 24.4251H26.4397V23.7043H26.619L26.6155 24.4251ZM12.2648 23.4691H12.0854V22.7482H12.2648V23.4691ZM26.6155 22.9846H26.4397V22.2638H26.619L26.6155 22.9846ZM12.2648 22.0286H12.0854V21.41C12.0857 21.3696 12.1018 21.3308 12.1301 21.3018C12.1585 21.2729 12.1971 21.256 12.2376 21.2548V21.4336C12.2437 21.4333 12.2494 21.4307 12.2536 21.4263C12.2577 21.4219 12.2601 21.4161 12.2601 21.41L12.2648 22.0286ZM26.6155 21.5441H26.4397V21.4347H25.9784V21.256H26.4633C26.5046 21.256 26.5442 21.2724 26.5734 21.3015C26.6026 21.3306 26.619 21.3701 26.619 21.4112L26.6155 21.5441ZM25.2517 21.4347H24.5285V21.256H25.2517V21.4347ZM23.8065 21.4347H23.0833V21.256H23.8065V21.4347ZM22.3612 21.4347H21.638V21.256H22.3612V21.4347ZM20.916 21.4347H20.1869V21.256H20.9101L20.916 21.4347ZM19.4708 21.4347H18.7476V21.256H19.4708V21.4347ZM18.0256 21.4347H17.3024V21.256H18.0256V21.4347ZM16.5804 21.4347H15.8572V21.256H16.5804V21.4347ZM15.1352 21.4347H14.4061V21.256H15.1293L15.1352 21.4347ZM13.6899 21.4347H12.9667V21.256H13.6899V21.4347Z" fill="#5468FF"/>
<path d="M57.156 36.2842H43.808C43.5311 36.2842 43.3066 36.508 43.3066 36.784V49.5521C43.3066 49.8282 43.5311 50.0519 43.808 50.0519H57.156C57.4329 50.0519 57.6574 49.8282 57.6574 49.5521V36.784C57.6574 36.508 57.4329 36.2842 57.156 36.2842Z" fill="#5468FF"/>
<path d="M41.5456 36.2842H28.1977C27.9208 36.2842 27.6963 36.508 27.6963 36.784V49.5404C27.6963 49.8164 27.9208 50.0401 28.1977 50.0401H41.5456C41.8225 50.0401 42.047 49.8164 42.047 49.5404V36.784C42.047 36.508 41.8225 36.2842 41.5456 36.2842Z" fill="#5468FF"/>
<path d="M57.0572 21.2984H28.1352C27.8583 21.2984 27.6338 21.5221 27.6338 21.7981V34.5545C27.6338 34.8305 27.8583 35.0543 28.1352 35.0543H57.0572C57.3342 35.0543 57.5586 34.8305 57.5586 34.5545V21.7981C57.5586 21.5221 57.3342 21.2984 57.0572 21.2984Z" fill="#5468FF"/>
<path d="M26.0246 43.8019H12.6767C12.3998 43.8019 12.1753 44.0257 12.1753 44.3017V49.5604C12.1753 49.8364 12.3998 50.0602 12.6767 50.0602H26.0246C26.3015 50.0602 26.526 49.8364 26.526 49.5604V44.3017C26.526 44.0257 26.3015 43.8019 26.0246 43.8019Z" fill="#5468FF"/>
<path d="M54.7594 38.2763C55.0102 38.2763 55.2136 38.072 55.2136 37.82C55.2136 37.568 55.0102 37.3638 54.7594 37.3638C54.5085 37.3638 54.3052 37.568 54.3052 37.82C54.3052 38.072 54.5085 38.2763 54.7594 38.2763Z" fill="white"/>
<path d="M48.2962 38.2128H44.7015C44.6273 38.2128 44.5562 38.1834 44.5038 38.1311C44.4513 38.0789 44.4219 38.008 44.4219 37.9341C44.4219 37.8602 44.4513 37.7893 44.5038 37.737C44.5562 37.6847 44.6273 37.6554 44.7015 37.6554H48.2974C48.3716 37.6554 48.4427 37.6847 48.4951 37.737C48.5476 37.7893 48.577 37.8602 48.577 37.9341C48.577 37.9708 48.5698 38.0071 48.5556 38.041C48.5415 38.0749 48.5208 38.1057 48.4947 38.1316C48.4686 38.1574 48.4377 38.178 48.4036 38.1919C48.3695 38.2058 48.3331 38.2129 48.2962 38.2128Z" fill="white"/>
<path d="M53.0508 38.2128H49.4549C49.3807 38.2128 49.3096 38.1834 49.2572 38.1311C49.2048 38.0789 49.1753 38.008 49.1753 37.9341C49.1753 37.8602 49.2048 37.7893 49.2572 37.737C49.3096 37.6847 49.3807 37.6554 49.4549 37.6554H53.0508C53.125 37.6554 53.1961 37.6847 53.2486 37.737C53.301 37.7893 53.3304 37.8602 53.3304 37.9341C53.3304 38.008 53.301 38.0789 53.2486 38.1311C53.1961 38.1834 53.125 38.2128 53.0508 38.2128Z" fill="white"/>
<path d="M56.1051 38.2763C56.3559 38.2763 56.5593 38.072 56.5593 37.82C56.5593 37.568 56.3559 37.3638 56.1051 37.3638C55.8542 37.3638 55.6509 37.568 55.6509 37.82C55.6509 38.072 55.8542 38.2763 56.1051 38.2763Z" fill="white"/>
<path d="M29.2029 43.8184C29.1842 43.8185 29.1659 43.8127 29.1506 43.8019C29.1353 43.7911 29.1238 43.7758 29.1177 43.7582C29.1116 43.7406 29.1112 43.7215 29.1165 43.7036C29.1218 43.6857 29.1326 43.6699 29.1474 43.6585C29.7362 43.1988 30.3735 42.8044 31.048 42.4825C31.3957 42.3146 31.7558 42.1735 32.1252 42.0604C32.4104 41.9868 32.679 41.8599 32.9168 41.6864C33.4866 41.2725 33.7426 40.788 33.9526 40.4C34.1626 40.0119 34.3408 39.6744 34.7502 39.6145C35.13 39.5592 35.3943 39.785 35.6503 40.0025C35.9063 40.2201 36.1635 40.44 36.5517 40.4188C36.9186 40.3988 37.1321 40.1836 37.4872 39.8308C37.7401 39.5699 38.0096 39.3256 38.2942 39.0994C39.0162 38.535 39.8279 38.268 40.5145 38.3656C40.5262 38.3673 40.5375 38.3713 40.5476 38.3773C40.5578 38.3834 40.5666 38.3913 40.5737 38.4008C40.5808 38.4102 40.5859 38.421 40.5888 38.4324C40.5917 38.4438 40.5923 38.4557 40.5906 38.4674C40.5889 38.479 40.5849 38.4902 40.5789 38.5003C40.5728 38.5105 40.5648 38.5193 40.5553 38.5263C40.5459 38.5334 40.5351 38.5385 40.5236 38.5414C40.5122 38.5443 40.5002 38.5449 40.4885 38.5432C39.8479 38.4515 39.087 38.7055 38.4039 39.2405C38.1246 39.4621 37.8601 39.7017 37.6123 39.9578C37.2583 40.3165 36.9941 40.5764 36.5587 40.5999C36.0986 40.6258 35.7966 40.3647 35.5312 40.1413C35.2846 39.932 35.0722 39.7509 34.7737 39.7885C34.454 39.8355 34.3089 40.106 34.1084 40.4811C33.8925 40.8856 33.6223 41.3901 33.0194 41.8287C32.7659 42.0136 32.4798 42.1492 32.1759 42.2285C31.8143 42.3391 31.4617 42.4771 31.1212 42.6413C30.4589 42.9567 29.8331 43.3431 29.2548 43.7937C29.2407 43.8074 29.2224 43.8161 29.2029 43.8184Z" fill="white"/>
<path d="M30.0097 45.9691H28.7544V48.9137H30.0097V45.9691Z" fill="white"/>
<path d="M33.6576 44.157H32.4023V48.9148H33.6576V44.157Z" fill="white"/>
<path d="M31.8339 44.9884H30.5786V48.9148H31.8339V44.9884Z" fill="white"/>
<path d="M35.4818 42.5719H34.2266V48.9148H35.4818V42.5719Z" fill="white"/>
<path d="M37.3056 43.0999H36.0503V48.9148H37.3056V43.0999Z" fill="white"/>
<path d="M39.1283 42.0427H37.873V48.8395H39.1283V42.0427Z" fill="white"/>
<path d="M40.9525 41.1361H39.6973V48.9136H40.9525V41.1361Z" fill="white"/>
<path d="M41.7296 26.9439H34.4681C34.3939 26.9439 34.3228 26.9145 34.2704 26.8623C34.2179 26.81 34.1885 26.7391 34.1885 26.6652C34.1885 26.5913 34.2179 26.5204 34.2704 26.4681C34.3228 26.4159 34.3939 26.3865 34.4681 26.3865H41.7296C41.8037 26.3865 41.8748 26.4159 41.9273 26.4681C41.9797 26.5204 42.0092 26.5913 42.0092 26.6652C42.0092 26.7391 41.9797 26.81 41.9273 26.8623C41.8748 26.9145 41.8037 26.9439 41.7296 26.9439Z" fill="white"/>
<path d="M40.6725 28.2303H34.4681C34.3939 28.2303 34.3228 28.201 34.2704 28.1487C34.2179 28.0964 34.1885 28.0256 34.1885 27.9516C34.1885 27.8777 34.2179 27.8068 34.2704 27.7546C34.3228 27.7023 34.3939 27.6729 34.4681 27.6729H40.6725C40.7467 27.6729 40.8178 27.7023 40.8702 27.7546C40.9226 27.8068 40.9521 27.8777 40.9521 27.9516C40.9521 28.0256 40.9226 28.0964 40.8702 28.1487C40.8178 28.201 40.7467 28.2303 40.6725 28.2303Z" fill="white"/>
<path d="M41.7296 29.5121H34.4681C34.3939 29.5121 34.3228 29.4828 34.2704 29.4305C34.2179 29.3782 34.1885 29.3073 34.1885 29.2334C34.1885 29.1595 34.2179 29.0886 34.2704 29.0364C34.3228 28.9841 34.3939 28.9547 34.4681 28.9547H41.7296C41.8037 28.9547 41.8748 28.9841 41.9273 29.0364C41.9797 29.0886 42.0092 29.1595 42.0092 29.2334C42.0092 29.3073 41.9797 29.3782 41.9273 29.4305C41.8748 29.4828 41.8037 29.5121 41.7296 29.5121Z" fill="white"/>
<path d="M33.2295 28.9536H29.0047C28.8503 28.9536 28.7251 29.0783 28.7251 29.2322V29.2334C28.7251 29.3873 28.8503 29.5121 29.0047 29.5121H33.2295C33.3839 29.5121 33.5091 29.3873 33.5091 29.2334V29.2322C33.5091 29.0783 33.3839 28.9536 33.2295 28.9536Z" fill="white"/>
<path d="M39.0633 30.7939H34.4681C34.3939 30.7939 34.3228 30.7645 34.2704 30.7123C34.2179 30.66 34.1885 30.5891 34.1885 30.5152C34.1885 30.4413 34.2179 30.3704 34.2704 30.3181C34.3228 30.2659 34.3939 30.2365 34.4681 30.2365H39.0633C39.1374 30.2365 39.2086 30.2659 39.261 30.3181C39.3134 30.3704 39.3429 30.4413 39.3429 30.5152C39.3429 30.5891 39.3134 30.66 39.261 30.7123C39.2086 30.7645 39.1374 30.7939 39.0633 30.7939Z" fill="white"/>
<path d="M32.511 30.7939H29.0047C28.9305 30.7939 28.8594 30.7645 28.807 30.7123C28.7546 30.66 28.7251 30.5891 28.7251 30.5152C28.7251 30.4413 28.7546 30.3704 28.807 30.3181C28.8594 30.2659 28.9305 30.2365 29.0047 30.2365H32.511C32.5851 30.2365 32.6563 30.2659 32.7087 30.3181C32.7611 30.3704 32.7906 30.4413 32.7906 30.5152C32.7906 30.5891 32.7611 30.66 32.7087 30.7123C32.6563 30.7645 32.5851 30.7939 32.511 30.7939Z" fill="white"/>
<path d="M41.7296 32.0756H34.4681C34.4314 32.0756 34.395 32.0684 34.3611 32.0544C34.3272 32.0404 34.2963 32.0199 34.2704 31.994C34.2444 31.9681 34.2238 31.9374 34.2098 31.9036C34.1957 31.8698 34.1885 31.8335 34.1885 31.7969C34.1885 31.723 34.2179 31.6521 34.2704 31.5999C34.3228 31.5476 34.3939 31.5182 34.4681 31.5182H41.7296C41.8037 31.5182 41.8748 31.5476 41.9273 31.5999C41.9797 31.6521 42.0092 31.723 42.0092 31.7969C42.0092 31.8335 42.0019 31.8698 41.9879 31.9036C41.9738 31.9374 41.9532 31.9681 41.9273 31.994C41.9013 32.0199 41.8705 32.0404 41.8366 32.0544C41.8026 32.0684 41.7663 32.0756 41.7296 32.0756Z" fill="white"/>
<path d="M33.2342 32.0756H29.0047C28.968 32.0756 28.9316 32.0684 28.8977 32.0544C28.8638 32.0404 28.833 32.0199 28.807 31.994C28.781 31.9681 28.7604 31.9374 28.7464 31.9036C28.7323 31.8698 28.7251 31.8335 28.7251 31.7969C28.7251 31.723 28.7546 31.6521 28.807 31.5999C28.8594 31.5476 28.9305 31.5182 29.0047 31.5182H33.2342C33.3083 31.5182 33.3795 31.5476 33.4319 31.5999C33.4843 31.6521 33.5138 31.723 33.5138 31.7969C33.5138 31.8335 33.5066 31.8698 33.4925 31.9036C33.4785 31.9374 33.4579 31.9681 33.4319 31.994C33.4059 32.0199 33.3751 32.0404 33.3412 32.0544C33.3073 32.0684 33.2709 32.0756 33.2342 32.0756Z" fill="white"/>
<path d="M45.7385 25.073C46.4813 25.073 47.0834 24.4728 47.0834 23.7325C47.0834 22.9921 46.4813 22.3919 45.7385 22.3919C44.9957 22.3919 44.3936 22.9921 44.3936 23.7325C44.3936 24.4728 44.9957 25.073 45.7385 25.073Z" fill="white"/>
<path d="M56.288 23.4984H48.242C48.1679 23.4984 48.0967 23.4691 48.0443 23.4168C47.9919 23.3646 47.9624 23.2937 47.9624 23.2197C47.9624 23.1458 47.9919 23.0749 48.0443 23.0227C48.0967 22.9704 48.1679 22.9411 48.242 22.9411H56.288C56.3622 22.9411 56.4333 22.9704 56.4857 23.0227C56.5382 23.0749 56.5676 23.1458 56.5676 23.2197C56.5676 23.2937 56.5382 23.3646 56.4857 23.4168C56.4333 23.4691 56.3622 23.4984 56.288 23.4984Z" fill="white"/>
<path d="M52.4228 24.2216H48.2405C48.0861 24.2216 47.9609 24.3464 47.9609 24.5003V24.5015C47.9609 24.6554 48.0861 24.7802 48.2405 24.7802H52.4228C52.5773 24.7802 52.7024 24.6554 52.7024 24.5015V24.5003C52.7024 24.3464 52.5773 24.2216 52.4228 24.2216Z" fill="white"/>
<path d="M45.6486 29.5192C46.3914 29.5192 46.9936 28.919 46.9936 28.1786C46.9936 27.4382 46.3914 26.8381 45.6486 26.8381C44.9059 26.8381 44.3037 27.4382 44.3037 28.1786C44.3037 28.919 44.9059 29.5192 45.6486 29.5192Z" fill="white"/>
<path d="M56.288 27.9446H48.242C48.1679 27.9446 48.0967 27.9153 48.0443 27.863C47.9919 27.8107 47.9624 27.7398 47.9624 27.6659C47.9624 27.592 47.9919 27.5211 48.0443 27.4689C48.0967 27.4166 48.1679 27.3872 48.242 27.3872H56.288C56.3622 27.3872 56.4333 27.4166 56.4857 27.4689C56.5382 27.5211 56.5676 27.592 56.5676 27.6659C56.5676 27.7398 56.5382 27.8107 56.4857 27.863C56.4333 27.9153 56.3622 27.9446 56.288 27.9446Z" fill="white"/>
<path d="M52.4231 29.2264H48.242C48.1679 29.2264 48.0967 29.197 48.0443 29.1448C47.9919 29.0925 47.9624 29.0216 47.9624 28.9477C47.9624 28.8738 47.9919 28.8029 48.0443 28.7506C48.0967 28.6984 48.1679 28.669 48.242 28.669H52.4231C52.4973 28.669 52.5684 28.6984 52.6208 28.7506C52.6733 28.8029 52.7027 28.8738 52.7027 28.9477C52.7027 29.0216 52.6733 29.0925 52.6208 29.1448C52.5684 29.197 52.4973 29.2264 52.4231 29.2264Z" fill="white"/>
<path d="M45.7385 33.9665C46.4813 33.9665 47.0834 33.3664 47.0834 32.626C47.0834 31.8856 46.4813 31.2854 45.7385 31.2854C44.9957 31.2854 44.3936 31.8856 44.3936 32.626C44.3936 33.3664 44.9957 33.9665 45.7385 33.9665Z" fill="white"/>
<path d="M56.288 32.3908H48.242C48.1679 32.3908 48.0967 32.3614 48.0443 32.3091C47.9919 32.2569 47.9624 32.186 47.9624 32.1121C47.9624 32.0382 47.9919 31.9673 48.0443 31.915C48.0967 31.8627 48.1679 31.8334 48.242 31.8334H56.288C56.3622 31.8334 56.4333 31.8627 56.4857 31.915C56.5382 31.9673 56.5676 32.0382 56.5676 32.1121C56.5676 32.186 56.5382 32.2569 56.4857 32.3091C56.4333 32.3614 56.3622 32.3908 56.288 32.3908Z" fill="white"/>
<path d="M52.4231 33.6725H48.242C48.2053 33.6725 48.1689 33.6653 48.135 33.6513C48.1011 33.6373 48.0703 33.6168 48.0443 33.5909C48.0183 33.565 47.9977 33.5343 47.9837 33.5005C47.9696 33.4667 47.9624 33.4304 47.9624 33.3939C47.9624 33.3199 47.9919 33.249 48.0443 33.1968C48.0967 33.1445 48.1679 33.1152 48.242 33.1152H52.4231C52.4973 33.1152 52.5684 33.1445 52.6208 33.1968C52.6733 33.249 52.7027 33.3199 52.7027 33.3939C52.7027 33.4304 52.6955 33.4667 52.6814 33.5005C52.6674 33.5343 52.6468 33.565 52.6208 33.5909C52.5949 33.6168 52.564 33.6373 52.5301 33.6513C52.4962 33.6653 52.4598 33.6725 52.4231 33.6725Z" fill="white"/>
<path d="M56.0215 41.2466H44.8998C44.7571 41.2466 44.6203 41.1901 44.5194 41.0896C44.4185 40.989 44.3618 40.8526 44.3618 40.7104C44.3618 40.5682 44.4185 40.4318 44.5194 40.3312C44.6203 40.2307 44.7571 40.1742 44.8998 40.1742H56.0215C56.1642 40.1742 56.301 40.2307 56.4019 40.3312C56.5028 40.4318 56.5595 40.5682 56.5595 40.7104C56.5595 40.8526 56.5028 40.989 56.4019 41.0896C56.301 41.1901 56.1642 41.2466 56.0215 41.2466Z" fill="white"/>
<path d="M56.0215 43.3915H44.8998C44.7571 43.3915 44.6203 43.3351 44.5194 43.2345C44.4185 43.1339 44.3618 42.9975 44.3618 42.8553C44.3618 42.7131 44.4185 42.5767 44.5194 42.4762C44.6203 42.3756 44.7571 42.3191 44.8998 42.3191H56.0215C56.1642 42.3191 56.301 42.3756 56.4019 42.4762C56.5028 42.5767 56.5595 42.7131 56.5595 42.8553C56.5595 42.9975 56.5028 43.1339 56.4019 43.2345C56.301 43.3351 56.1642 43.3915 56.0215 43.3915Z" fill="white"/>
<path d="M48.9358 43.3915H44.8998C44.7571 43.3915 44.6203 43.3351 44.5194 43.2345C44.4185 43.1339 44.3618 42.9975 44.3618 42.8553C44.3618 42.7131 44.4185 42.5767 44.5194 42.4762C44.6203 42.3756 44.7571 42.3191 44.8998 42.3191H48.9358C49.0785 42.3191 49.2153 42.3756 49.3162 42.4762C49.4171 42.5767 49.4738 42.7131 49.4738 42.8553C49.4738 42.9975 49.4171 43.1339 49.3162 43.2345C49.2153 43.3351 49.0785 43.3915 48.9358 43.3915Z" fill="white"/>
<path d="M50.7302 41.2466H44.8998C44.7571 41.2466 44.6203 41.1901 44.5194 41.0896C44.4185 40.989 44.3618 40.8526 44.3618 40.7104C44.3618 40.5682 44.4185 40.4318 44.5194 40.3312C44.6203 40.2307 44.7571 40.1742 44.8998 40.1742H50.7302C50.8729 40.1742 51.0097 40.2307 51.1106 40.3312C51.2115 40.4318 51.2682 40.5682 51.2682 40.7104C51.2682 40.7808 51.2543 40.8506 51.2272 40.9156C51.2002 40.9807 51.1606 41.0398 51.1106 41.0896C51.0607 41.1394 51.0014 41.1789 50.9361 41.2058C50.8708 41.2328 50.8009 41.2466 50.7302 41.2466Z" fill="white"/>
<path d="M56.0215 45.5376H44.8998C44.7571 45.5376 44.6203 45.4811 44.5194 45.3805C44.4185 45.28 44.3618 45.1436 44.3618 45.0014C44.3618 44.8592 44.4185 44.7228 44.5194 44.6222C44.6203 44.5217 44.7571 44.4652 44.8998 44.4652H56.0215C56.1642 44.4652 56.301 44.5217 56.4019 44.6222C56.5028 44.7228 56.5595 44.8592 56.5595 45.0014C56.5595 45.1436 56.5028 45.28 56.4019 45.3805C56.301 45.4811 56.1642 45.5376 56.0215 45.5376Z" fill="white"/>
<path d="M50.9095 45.5376H44.8998C44.7571 45.5376 44.6203 45.4811 44.5194 45.3805C44.4185 45.28 44.3618 45.1436 44.3618 45.0014C44.3618 44.8592 44.4185 44.7228 44.5194 44.6222C44.6203 44.5217 44.7571 44.4652 44.8998 44.4652H50.9095C51.0522 44.4652 51.189 44.5217 51.2899 44.6222C51.3908 44.7228 51.4475 44.8592 51.4475 45.0014C51.4475 45.1436 51.3908 45.28 51.2899 45.3805C51.189 45.4811 51.0522 45.5376 50.9095 45.5376Z" fill="white"/>
<path d="M56.0227 46.5206H44.8998C44.6027 46.5206 44.3618 46.7607 44.3618 47.0569C44.3618 47.353 44.6027 47.5931 44.8998 47.5931H56.0227C56.3198 47.5931 56.5606 47.353 56.5606 47.0569C56.5606 46.7607 56.3198 46.5206 56.0227 46.5206Z" fill="white"/>
<path d="M53.0992 46.5206H44.5942C44.4659 46.5206 44.3618 46.6243 44.3618 46.7523V47.3614C44.3618 47.4894 44.4659 47.5931 44.5942 47.5931H53.0992C53.2276 47.5931 53.3316 47.4894 53.3316 47.3614V46.7523C53.3316 46.6243 53.2276 46.5206 53.0992 46.5206Z" fill="white"/>
<path opacity="0.5" d="M48.9358 43.3915H44.8998C44.7571 43.3915 44.6203 43.3351 44.5194 43.2345C44.4185 43.1339 44.3618 42.9975 44.3618 42.8553C44.3618 42.7131 44.4185 42.5767 44.5194 42.4762C44.6203 42.3756 44.7571 42.3191 44.8998 42.3191H48.9358C49.0785 42.3191 49.2153 42.3756 49.3162 42.4762C49.4171 42.5767 49.4738 42.7131 49.4738 42.8553C49.4738 42.9975 49.4171 43.1339 49.3162 43.2345C49.2153 43.3351 49.0785 43.3915 48.9358 43.3915Z" fill="#5468FF"/>
<path opacity="0.5" d="M50.7302 41.2466H44.8998C44.7571 41.2466 44.6203 41.1901 44.5194 41.0896C44.4185 40.989 44.3618 40.8526 44.3618 40.7104C44.3618 40.5682 44.4185 40.4318 44.5194 40.3312C44.6203 40.2307 44.7571 40.1742 44.8998 40.1742H50.7302C50.8729 40.1742 51.0097 40.2307 51.1106 40.3312C51.2115 40.4318 51.2682 40.5682 51.2682 40.7104C51.2682 40.7808 51.2543 40.8506 51.2272 40.9156C51.2002 40.9807 51.1606 41.0398 51.1106 41.0896C51.0607 41.1394 51.0014 41.1789 50.9361 41.2058C50.8708 41.2328 50.8009 41.2466 50.7302 41.2466Z" fill="#5468FF"/>
<path opacity="0.5" d="M50.9095 45.5376H44.8998C44.7571 45.5376 44.6203 45.4811 44.5194 45.3805C44.4185 45.28 44.3618 45.1436 44.3618 45.0014C44.3618 44.8592 44.4185 44.7228 44.5194 44.6222C44.6203 44.5217 44.7571 44.4652 44.8998 44.4652H50.9095C51.0522 44.4652 51.189 44.5217 51.2899 44.6222C51.3908 44.7228 51.4475 44.8592 51.4475 45.0014C51.4475 45.1436 51.3908 45.28 51.2899 45.3805C51.189 45.4811 51.0522 45.5376 50.9095 45.5376Z" fill="#5468FF"/>
<path opacity="0.5" d="M53.0992 46.5206H44.5942C44.4659 46.5206 44.3618 46.6243 44.3618 46.7523V47.3614C44.3618 47.4894 44.4659 47.5931 44.5942 47.5931H53.0992C53.2276 47.5931 53.3316 47.4894 53.3316 47.3614V46.7523C53.3316 46.6243 53.2276 46.5206 53.0992 46.5206Z" fill="#5468FF"/>
<path d="M17.0018 38.642V40.3376C17.0018 40.4087 16.9735 40.4769 16.923 40.5272C16.8726 40.5775 16.8042 40.6057 16.7328 40.6057H13.5097C13.4384 40.6057 13.37 40.5775 13.3195 40.5272C13.2691 40.4769 13.2407 40.4087 13.2407 40.3376V38.6408L15.1284 39.6156L17.0018 38.642Z" fill="white"/>
<path d="M17.0077 38.221V38.2398L15.1236 39.2123L13.2407 38.2375V38.221H17.0077Z" fill="white"/>
<path d="M17.0499 38.9019C17.4213 38.9019 17.7224 38.6018 17.7224 38.2316C17.7224 37.8614 17.4213 37.5613 17.0499 37.5613C16.6785 37.5613 16.3774 37.8614 16.3774 38.2316C16.3774 38.6018 16.6785 38.9019 17.0499 38.9019Z" fill="white"/>
<path d="M17.0498 38.455C17.1736 38.455 17.274 38.355 17.274 38.2316C17.274 38.1082 17.1736 38.0081 17.0498 38.0081C16.926 38.0081 16.8257 38.1082 16.8257 38.2316C16.8257 38.355 16.926 38.455 17.0498 38.455Z" fill="white"/>
<path d="M16.9662 46.6206L16.7573 46.5465C16.7218 46.5339 16.6892 46.5139 16.6618 46.488C16.6344 46.462 16.6128 46.4306 16.5984 46.3958C16.5839 46.361 16.577 46.3236 16.5779 46.2859C16.5789 46.2483 16.5878 46.2113 16.604 46.1773L16.6984 45.9785C16.7276 45.9171 16.737 45.8482 16.7254 45.7813C16.7138 45.7143 16.6817 45.6526 16.6335 45.6046C16.5853 45.5565 16.5234 45.5245 16.4562 45.5129C16.389 45.5014 16.3199 45.5108 16.2583 45.5399L16.0589 45.634C16.0248 45.6501 15.9876 45.659 15.9499 45.6599C15.9121 45.6609 15.8745 45.654 15.8396 45.6396C15.8047 45.6251 15.7732 45.6036 15.7472 45.5763C15.7212 45.549 15.7012 45.5166 15.6885 45.4811L15.6142 45.273C15.5914 45.2088 15.5492 45.1532 15.4934 45.1139C15.4376 45.0745 15.371 45.0534 15.3027 45.0534C15.2344 45.0534 15.1677 45.0745 15.112 45.1139C15.0562 45.1532 15.014 45.2088 14.9912 45.273L14.9169 45.4811C14.9042 45.5166 14.8842 45.549 14.8582 45.5763C14.8321 45.6036 14.8007 45.6251 14.7657 45.6396C14.7308 45.654 14.6933 45.6609 14.6555 45.6599C14.6177 45.659 14.5806 45.6501 14.5465 45.634L14.3471 45.5399C14.2855 45.5108 14.2164 45.5014 14.1492 45.5129C14.082 45.5245 14.0201 45.5565 13.9719 45.6046C13.9237 45.6526 13.8916 45.7143 13.88 45.7813C13.8683 45.8482 13.8778 45.9171 13.907 45.9785L14.0014 46.1773C14.0176 46.2113 14.0265 46.2483 14.0275 46.2859C14.0284 46.3236 14.0215 46.361 14.007 46.3958C13.9925 46.4306 13.9709 46.462 13.9435 46.488C13.9162 46.5139 13.8836 46.5339 13.848 46.5465L13.6392 46.6206C13.5748 46.6433 13.519 46.6853 13.4796 46.7409C13.4401 46.7965 13.4189 46.8629 13.4189 46.931C13.4189 46.9991 13.4401 47.0655 13.4796 47.1211C13.519 47.1767 13.5748 47.2188 13.6392 47.2415L13.848 47.3155C13.8836 47.3282 13.9162 47.3481 13.9435 47.3741C13.9709 47.4 13.9925 47.4314 14.007 47.4662C14.0215 47.501 14.0284 47.5384 14.0275 47.5761C14.0265 47.6137 14.0176 47.6508 14.0014 47.6848L13.907 47.8835C13.8778 47.9449 13.8683 48.0138 13.88 48.0807C13.8916 48.1477 13.9237 48.2094 13.9719 48.2575C14.0201 48.3055 14.082 48.3375 14.1492 48.3491C14.2164 48.3607 14.2855 48.3513 14.3471 48.3221L14.5465 48.2281C14.5806 48.2119 14.6177 48.203 14.6555 48.2021C14.6933 48.2011 14.7308 48.2081 14.7657 48.2225C14.8007 48.2369 14.8321 48.2584 14.8582 48.2857C14.8842 48.313 14.9042 48.3454 14.9169 48.3809L14.9912 48.5891C15.014 48.6533 15.0562 48.7089 15.112 48.7482C15.1677 48.7875 15.2344 48.8086 15.3027 48.8086C15.371 48.8086 15.4376 48.7875 15.4934 48.7482C15.5492 48.7089 15.5914 48.6533 15.6142 48.5891L15.6885 48.3809C15.7012 48.3456 15.7211 48.3133 15.7471 48.2861C15.773 48.2589 15.8044 48.2375 15.8392 48.2231C15.8739 48.2087 15.9114 48.2017 15.949 48.2025C15.9866 48.2034 16.0237 48.2121 16.0577 48.2281L16.2571 48.3221C16.3187 48.3513 16.3878 48.3607 16.455 48.3491C16.5222 48.3375 16.5841 48.3055 16.6323 48.2575C16.6805 48.2094 16.7126 48.1477 16.7242 48.0807C16.7359 48.0138 16.7264 47.9449 16.6972 47.8835L16.6028 47.6848C16.5866 47.6508 16.5777 47.6137 16.5767 47.5761C16.5758 47.5384 16.5827 47.501 16.5972 47.4662C16.6117 47.4314 16.6333 47.4 16.6607 47.3741C16.688 47.3481 16.7206 47.3282 16.7562 47.3155L16.965 47.2415C17.0294 47.2189 17.0853 47.177 17.1249 47.1214C17.1644 47.0659 17.1857 46.9995 17.1858 46.9314C17.186 46.8633 17.1649 46.7969 17.1256 46.7412C17.0862 46.6855 17.0305 46.6434 16.9662 46.6206ZM15.3027 47.7365C15.1429 47.7365 14.9866 47.6893 14.8537 47.6008C14.7208 47.5123 14.6172 47.3865 14.5561 47.2393C14.4949 47.0921 14.4789 46.9301 14.5101 46.7739C14.5413 46.6176 14.6182 46.4741 14.7312 46.3614C14.8443 46.2488 14.9883 46.1721 15.145 46.141C15.3018 46.1099 15.4643 46.1259 15.612 46.1868C15.7596 46.2478 15.8858 46.351 15.9746 46.4835C16.0634 46.616 16.1108 46.7717 16.1108 46.931C16.1108 47.1447 16.0257 47.3495 15.8741 47.5006C15.7226 47.6517 15.517 47.7365 15.3027 47.7365Z" fill="white"/>
<path d="M25.1952 39.0559H18.4505C18.4138 39.0559 18.3774 39.0487 18.3435 39.0347C18.3096 39.0207 18.2788 39.0002 18.2528 38.9743C18.2268 38.9484 18.2062 38.9177 18.1922 38.8839C18.1781 38.85 18.1709 38.8138 18.1709 38.7772C18.1709 38.7033 18.2004 38.6324 18.2528 38.5801C18.3052 38.5279 18.3763 38.4985 18.4505 38.4985H25.1952C25.2694 38.4985 25.3405 38.5279 25.393 38.5801C25.4454 38.6324 25.4748 38.7033 25.4748 38.7772C25.4748 38.8138 25.4676 38.85 25.4536 38.8839C25.4395 38.9177 25.4189 38.9484 25.393 38.9743C25.367 39.0002 25.3362 39.0207 25.3022 39.0347C25.2683 39.0487 25.232 39.0559 25.1952 39.0559Z" fill="white"/>
<path d="M21.9131 40.3341H18.4505C18.3763 40.3341 18.3052 40.3047 18.2528 40.2525C18.2004 40.2002 18.1709 40.1293 18.1709 40.0554C18.1709 39.9815 18.2004 39.9106 18.2528 39.8583C18.3052 39.8061 18.3763 39.7767 18.4505 39.7767H21.9131C21.9873 39.7767 22.0584 39.8061 22.1108 39.8583C22.1633 39.9106 22.1927 39.9815 22.1927 40.0554C22.1927 40.1293 22.1633 40.2002 22.1108 40.2525C22.0584 40.3047 21.9873 40.3341 21.9131 40.3341Z" fill="white"/>
<path d="M25.1952 46.5688H18.4505C18.3763 46.5688 18.3052 46.5395 18.2528 46.4872C18.2004 46.4349 18.1709 46.3641 18.1709 46.2901C18.1709 46.2162 18.2004 46.1453 18.2528 46.0931C18.3052 46.0408 18.3763 46.0114 18.4505 46.0114H25.1952C25.2694 46.0114 25.3405 46.0408 25.393 46.0931C25.4454 46.1453 25.4748 46.2162 25.4748 46.2901C25.4748 46.3641 25.4454 46.4349 25.393 46.4872C25.3405 46.5395 25.2694 46.5688 25.1952 46.5688Z" fill="white"/>
<path d="M21.9131 47.8506H18.4505C18.3763 47.8506 18.3052 47.8212 18.2528 47.769C18.2004 47.7167 18.1709 47.6458 18.1709 47.5719C18.1709 47.498 18.2004 47.4271 18.2528 47.3748C18.3052 47.3226 18.3763 47.2932 18.4505 47.2932H21.9131C21.9873 47.2932 22.0584 47.3226 22.1108 47.3748C22.1633 47.4271 22.1927 47.498 22.1927 47.5719C22.1927 47.6458 22.1633 47.7167 22.1108 47.769C22.0584 47.8212 21.9873 47.8506 21.9131 47.8506Z" fill="white"/>
<path d="M32.7186 22.6142H29.0861C28.716 22.6142 28.416 22.9132 28.416 23.2821V26.9027C28.416 27.2716 28.716 27.5707 29.0861 27.5707H32.7186C33.0887 27.5707 33.3887 27.2716 33.3887 26.9027V23.2821C33.3887 22.9132 33.0887 22.6142 32.7186 22.6142Z" fill="white"/>
<path d="M29.2407 28.8101V27.0838H30.9726L29.2407 28.8101Z" fill="white"/>
<path d="M30.1642 24.9625C30.286 24.9625 30.405 24.9265 30.5063 24.859C30.6076 24.7916 30.6865 24.6957 30.7331 24.5836C30.7798 24.4714 30.7919 24.348 30.7682 24.2289C30.7444 24.1098 30.6858 24.0005 30.5996 23.9146C30.5135 23.8288 30.4038 23.7703 30.2843 23.7466C30.1649 23.7229 30.041 23.7351 29.9285 23.7815C29.816 23.828 29.7198 23.9067 29.6521 24.0076C29.5845 24.1086 29.5483 24.2272 29.5483 24.3486C29.5483 24.4293 29.5643 24.5091 29.5952 24.5836C29.6262 24.658 29.6715 24.7257 29.7287 24.7827C29.7859 24.8397 29.8538 24.8849 29.9285 24.9158C30.0032 24.9466 30.0833 24.9625 30.1642 24.9625ZM30.1642 23.9806C30.2372 23.9806 30.3086 24.0022 30.3693 24.0426C30.4301 24.0831 30.4774 24.1405 30.5053 24.2078C30.5333 24.2751 30.5406 24.3491 30.5264 24.4205C30.5121 24.4919 30.4769 24.5574 30.4253 24.6089C30.3736 24.6604 30.3079 24.6954 30.2362 24.7096C30.1646 24.7238 30.0903 24.7166 30.0229 24.6887C29.9554 24.6608 29.8977 24.6137 29.8571 24.5531C29.8166 24.4926 29.7949 24.4214 29.7949 24.3486C29.7952 24.2512 29.8343 24.1579 29.9035 24.0891C29.9727 24.0204 30.0664 23.9818 30.1642 23.9818V23.9806Z" fill="#5468FF"/>
<path d="M32.1335 25.8221C32.1335 25.7006 32.0974 25.582 32.0298 25.481C31.9621 25.3801 31.8659 25.3014 31.7534 25.2549C31.6408 25.2085 31.517 25.1963 31.3976 25.22C31.2781 25.2437 31.1684 25.3022 31.0822 25.388C30.9961 25.4739 30.9375 25.5832 30.9137 25.7023C30.8899 25.8214 30.9021 25.9448 30.9487 26.057C30.9953 26.1691 31.0743 26.265 31.1756 26.3324C31.2768 26.3999 31.3959 26.4359 31.5177 26.4359C31.681 26.4359 31.8377 26.3712 31.9532 26.2561C32.0687 26.141 32.1335 25.9849 32.1335 25.8221ZM31.1484 25.8221C31.1484 25.7493 31.1701 25.6781 31.2107 25.6176C31.2512 25.557 31.3089 25.5099 31.3764 25.482C31.4439 25.4541 31.5181 25.4469 31.5897 25.4611C31.6614 25.4753 31.7272 25.5103 31.7788 25.5618C31.8305 25.6133 31.8656 25.6788 31.8799 25.7502C31.8941 25.8216 31.8868 25.8956 31.8589 25.9629C31.8309 26.0302 31.7836 26.0876 31.7229 26.1281C31.6621 26.1685 31.5907 26.1901 31.5177 26.1901C31.4198 26.1901 31.3258 26.1513 31.2566 26.0823C31.1873 26.0133 31.1484 25.9197 31.1484 25.8221Z" fill="#5468FF"/>
<path d="M31.1493 23.9817H31.836L29.585 26.2254L29.7584 26.3994L32.0106 24.1546V24.8402H32.2571V23.736H31.1493V23.9817Z" fill="#5468FF"/>
<path d="M23.2546 31.0796H15.3726L19.3118 24.2793L23.2546 31.0796ZM15.5224 30.9949H23.1071L19.3142 24.4474L15.5224 30.9949Z" fill="#5468FF"/>
<path d="M19.3115 26.5688C20.4889 26.5688 21.4434 25.6174 21.4434 24.4439C21.4434 23.2704 20.4889 22.319 19.3115 22.319C18.1341 22.319 17.1797 23.2704 17.1797 24.4439C17.1797 25.6174 18.1341 26.5688 19.3115 26.5688Z" fill="#5468FF"/>
<path d="M15.0962 33.0834C16.2736 33.0834 17.228 32.1321 17.228 30.9585C17.228 29.785 16.2736 28.8336 15.0962 28.8336C13.9188 28.8336 12.9644 29.785 12.9644 30.9585C12.9644 32.1321 13.9188 33.0834 15.0962 33.0834Z" fill="#5468FF"/>
<path d="M23.5274 33.0834C24.7047 33.0834 25.6592 32.1321 25.6592 30.9585C25.6592 29.785 24.7047 28.8336 23.5274 28.8336C22.35 28.8336 21.3955 29.785 21.3955 30.9585C21.3955 32.1321 22.35 33.0834 23.5274 33.0834Z" fill="#5468FF"/>
<path d="M23.3433 31.5159L22.9634 31.1372L23.1085 30.9926L23.3433 31.2278L24.1939 30.3799L24.339 30.5246L23.3433 31.5159Z" fill="white"/>
<path d="M15.3678 31.4124H14.588V31.249L14.8676 30.9667C14.9502 30.8821 15.0045 30.8233 15.0304 30.7904C15.053 30.7628 15.0716 30.7324 15.0859 30.6998C15.0969 30.6721 15.1025 30.6426 15.1024 30.6128C15.104 30.5945 15.1015 30.576 15.0952 30.5588C15.0889 30.5415 15.0789 30.5258 15.0658 30.5128C15.0381 30.4899 15.0027 30.4781 14.9667 30.4799C14.9229 30.4799 14.8797 30.49 14.8405 30.5093C14.7948 30.5324 14.752 30.5608 14.7131 30.594L14.5845 30.4423C14.6266 30.4049 14.6725 30.3718 14.7213 30.3435C14.7586 30.3237 14.7982 30.3087 14.8393 30.2988C14.8865 30.288 14.9348 30.2829 14.9832 30.2835C15.047 30.282 15.1103 30.2949 15.1685 30.3212C15.2191 30.3444 15.262 30.3816 15.2923 30.4282C15.3223 30.4748 15.3379 30.5292 15.3372 30.5846C15.3376 30.6341 15.3284 30.6832 15.31 30.7292C15.289 30.7789 15.2608 30.8252 15.2263 30.8668C15.1642 30.9384 15.0972 31.0056 15.0257 31.0679L14.8782 31.2008V31.2113H15.3643L15.3678 31.4124Z" fill="white"/>
<path d="M19.4013 24.8002H19.1654V24.157V24.0511V23.9335C19.1261 23.9727 19.0989 23.9982 19.084 24.01L18.9554 24.1123L18.8374 23.9712L19.1913 23.6854H19.3848L19.4013 24.8002Z" fill="white"/>
<path d="M73.4772 31.9886H73.2861V32.4201H73.4772V31.9886Z" fill="white"/>
<path d="M73.9021 32.9693H73.7109V33.4009H73.9021V32.9693Z" fill="white"/>
<path d="M73.3003 34.9296H72.8379V35.3611H73.3003V34.9296Z" fill="white"/>
<path d="M73.7863 34.9296H73.5952V35.3611H73.7863V34.9296Z" fill="white"/>
<path d="M72.6066 34.9296H72.4155V35.3611H72.6066V34.9296Z" fill="white"/>
<path d="M60.2154 68C68.7047 68 75.5867 67.2814 75.5867 66.3949C75.5867 65.5084 68.7047 64.7897 60.2154 64.7897C51.7262 64.7897 44.8442 65.5084 44.8442 66.3949C44.8442 67.2814 51.7262 68 60.2154 68Z" fill="white"/>
<path opacity="0.2" d="M60.2154 68C68.7047 68 75.5867 67.2814 75.5867 66.3949C75.5867 65.5084 68.7047 64.7897 60.2154 64.7897C51.7262 64.7897 44.8442 65.5084 44.8442 66.3949C44.8442 67.2814 51.7262 68 60.2154 68Z" fill="#5468FF"/>
<path d="M59.8734 31.4771H60.0197L60.291 31.6923L60.2049 31.7993L60.1081 31.7217C60.0963 31.7123 60.0759 31.6931 60.0468 31.6641V31.7511V32.3179H59.8687L59.8734 31.4771Z" fill="#5468FF"/>
<path d="M59.8579 60.9092L59.6632 65.7622L58.8846 65.8398L57.7154 65.9574C57.7154 65.9574 58.592 65.0837 58.008 63.3363C57.424 61.5889 56.8389 57.3179 56.8389 57.3179L58.8834 55.0366L59.5169 54.3311C59.5169 54.3311 60.2472 58.5762 59.8579 60.9092Z" fill="#F5B58F"/>
<path d="M59.5044 67.278C58.441 67.3571 57.3741 67.3779 56.3084 67.3403C56.0548 67.3286 55.82 67.3074 55.6088 67.278C54.245 67.084 55.4142 66.5019 55.4142 66.5019L58.1406 65.3365L59.2921 65.6235L59.6991 65.7246C60.6736 67.278 59.5044 67.278 59.5044 67.278Z" fill="#000D44"/>
<path d="M60.2475 53.9207C59.8806 54.8356 55.5284 64.2124 55.0341 65.2766C55.0049 65.3414 54.9568 65.3959 54.896 65.433C54.7338 65.536 54.5486 65.5974 54.3569 65.6117C54.2158 65.6154 54.0762 65.5821 53.952 65.5153C53.8278 65.4484 53.7233 65.3503 53.649 65.2307C53.5548 65.0999 53.4819 64.955 53.4331 64.8015V64.7921C54.4064 63.822 55.3809 56.8323 55.3809 56.8323L55.7702 54.1147C55.1874 52.3709 55.6711 50.9539 55.854 50.3518C55.8855 50.2457 55.9225 50.1413 55.9649 50.039L58.6135 52.5084L60.2475 53.9207Z" fill="#F5B58F"/>
<path d="M66.6699 31.4018C66.6699 31.4018 67.4486 32.5672 67.0592 34.3134L69.7857 34.7015L69.1958 31.2066L66.6699 31.4018Z" fill="#F5B58F"/>
<path d="M69.7916 48.4845L67.937 52.0381L62.2246 52.686C62.0557 52.7059 61.9001 52.7867 61.787 52.9133C61.674 53.0398 61.6114 53.2033 61.6111 53.3728V53.9901C61.616 54.2881 61.5072 54.5769 61.3067 54.798C61.1073 55.0085 60.8159 55.1508 60.4431 54.8944C59.681 54.3629 58.5036 53.9537 57.5315 53.2904C56.682 52.7025 55.9364 52.0205 55.5742 51.2055C55.5742 50.9006 55.6479 50.6001 55.7889 50.3295C55.9311 50.06 56.1353 49.8279 56.3847 49.6522C58.3903 48.254 63.6533 44.8379 67.0663 44.9932L67.2162 45.1848L69.7916 48.4845Z" fill="#1B255E"/>
<path d="M62.9735 32.566L68.6223 34.3134L73.2965 35.0895L73.6858 48.4844L69.5071 48.602C69.5071 48.602 67.5664 46.7605 65.7059 46.2925C65.4481 46.2262 65.1859 46.1782 64.9213 46.149C64.9213 46.149 64.9673 46.0808 65.0558 45.9774C64.637 45.7516 64.1604 45.487 64.0117 45.4729C64.0117 45.4729 65.1219 45.3694 65.7696 45.0131C66.8939 44.3946 67.4213 43.1892 66.7323 42.1133L66.7217 42.098L66.7099 42.0804L66.6721 42.0239C66.4747 41.7339 66.2212 41.486 65.9265 41.2948H65.9182L65.9017 41.2831L65.8498 41.2478L65.8309 41.2349L65.7601 41.1831L65.6917 41.129L65.6705 41.1114L65.608 41.055L65.5903 41.0397L65.5136 40.9703L65.4971 40.955L65.4345 40.8939L65.4121 40.8715L65.3437 40.7986L65.3342 40.788C65.3083 40.7598 65.2835 40.7304 65.2576 40.6998L65.2363 40.6751L65.1773 40.601L65.1573 40.574C65.1325 40.5411 65.1077 40.507 65.083 40.4717L65.0747 40.4588C65.0535 40.4274 65.0322 40.3953 65.011 40.3623L64.9909 40.3294C64.9721 40.2988 64.9536 40.2675 64.9355 40.2353L64.9213 40.2095C64.8993 40.1695 64.8781 40.1283 64.8576 40.086L64.8435 40.0554C64.827 40.0217 64.8112 39.9872 64.7963 39.9519L64.7798 39.9131C64.7621 39.8708 64.7444 39.8273 64.729 39.7826V39.772C64.7113 39.7238 64.696 39.6756 64.6807 39.625L64.6677 39.5827C64.6559 39.5435 64.6449 39.5043 64.6346 39.4651L64.624 39.4228C64.611 39.3699 64.5993 39.3158 64.5886 39.2593V39.2323C64.58 39.1845 64.5721 39.1358 64.565 39.0865L64.558 39.0347C64.5517 38.9861 64.5466 38.9367 64.5426 38.8866C64.5426 38.8748 64.5426 38.863 64.5426 38.8513C64.5379 38.7901 64.5348 38.7274 64.5332 38.6631C64.5332 38.6467 64.5332 38.6302 64.5332 38.6137C64.5332 38.5636 64.5332 38.5122 64.5332 38.4597C64.5332 38.4409 64.5332 38.4209 64.5332 38.4021C64.5332 38.3339 64.5332 38.2657 64.5438 38.1939C64.7385 35.6704 62.012 35.0883 62.012 35.0883C62.012 35.0883 60.6364 32.566 62.9735 32.566Z" fill="#5468FF"/>
<path opacity="0.5" d="M62.9735 32.566L68.6223 34.3134L73.2965 35.0895L73.6858 48.4844L69.5071 48.602C69.5071 48.602 67.5664 46.7605 65.7059 46.2925C65.4481 46.2262 65.1859 46.1782 64.9213 46.149C64.9213 46.149 64.9673 46.0808 65.0558 45.9774C64.637 45.7516 64.1604 45.487 64.0117 45.4729C64.0117 45.4729 65.1219 45.3694 65.7696 45.0131C66.8939 44.3946 67.4213 43.1892 66.7323 42.1133L66.7217 42.098L66.7099 42.0804L66.6721 42.0239C66.4747 41.7339 66.2212 41.486 65.9265 41.2948H65.9182L65.9017 41.2831L65.8498 41.2478L65.8309 41.2349L65.7601 41.1831L65.6917 41.129L65.6705 41.1114L65.608 41.055L65.5903 41.0397L65.5136 40.9703L65.4971 40.955L65.4345 40.8939L65.4121 40.8715L65.3437 40.7986L65.3342 40.788C65.3083 40.7598 65.2835 40.7304 65.2576 40.6998L65.2363 40.6751L65.1773 40.601L65.1573 40.574C65.1325 40.5411 65.1077 40.507 65.083 40.4717L65.0747 40.4588C65.0535 40.4274 65.0322 40.3953 65.011 40.3623L64.9909 40.3294C64.9721 40.2988 64.9536 40.2675 64.9355 40.2353L64.9213 40.2095C64.8993 40.1695 64.8781 40.1283 64.8576 40.086L64.8435 40.0554C64.827 40.0217 64.8112 39.9872 64.7963 39.9519L64.7798 39.9131C64.7621 39.8708 64.7444 39.8273 64.729 39.7826V39.772C64.7113 39.7238 64.696 39.6756 64.6807 39.625L64.6677 39.5827C64.6559 39.5435 64.6449 39.5043 64.6346 39.4651L64.624 39.4228C64.611 39.3699 64.5993 39.3158 64.5886 39.2593V39.2323C64.58 39.1845 64.5721 39.1358 64.565 39.0865L64.558 39.0347C64.5517 38.9861 64.5466 38.9367 64.5426 38.8866C64.5426 38.8748 64.5426 38.863 64.5426 38.8513C64.5379 38.7901 64.5348 38.7274 64.5332 38.6631C64.5332 38.6467 64.5332 38.6302 64.5332 38.6137C64.5332 38.5636 64.5332 38.5122 64.5332 38.4597C64.5332 38.4409 64.5332 38.4209 64.5332 38.4021C64.5332 38.3339 64.5332 38.2657 64.5438 38.1939C64.7385 35.6704 62.012 35.0883 62.012 35.0883C62.012 35.0883 60.6364 32.566 62.9735 32.566Z" fill="#000D44"/>
<path d="M76.0229 45.5728C75.9478 46.7549 75.7501 47.9261 75.433 49.0677C75.2407 50.1326 74.6505 51.0852 73.7814 51.7335C72.8779 52.4082 71.7767 52.7677 70.6479 52.7565H61.6108C61.7088 51.3007 63.2625 51.3007 63.2625 51.3007H64.4317C66.5741 51.1067 67.3528 50.5246 68.5219 49.5533C69.6911 48.582 70.0828 46.6406 70.2774 44.1123C70.4155 42.3261 70.7493 41.4148 70.931 41.035C70.9628 40.9686 71.0131 40.9127 71.0758 40.8739C71.1386 40.8351 71.2111 40.8151 71.285 40.8162L71.863 40.8256L73.0428 40.8456L75.8294 40.8903H75.9132L76.9998 40.908C75.8282 41.884 76.0229 45.5728 76.0229 45.5728Z" fill="#5468FF"/>
<path opacity="0.2" d="M76.0229 45.5728C75.9478 46.7549 75.7501 47.9261 75.433 49.0677C75.2407 50.1326 74.6505 51.0852 73.7814 51.7335C72.8779 52.4082 71.7767 52.7677 70.6479 52.7565H61.6108C61.7088 51.3007 63.2625 51.3007 63.2625 51.3007H64.4317C66.5741 51.1067 67.3528 50.5246 68.5219 49.5533C69.6911 48.582 70.0828 46.6406 70.2774 44.1123C70.4155 42.3261 70.7493 41.4148 70.931 41.035C70.9628 40.9686 71.0131 40.9127 71.0758 40.8739C71.1386 40.8351 71.2111 40.8151 71.285 40.8162L71.863 40.8256L73.0428 40.8456L75.8294 40.8903H75.9132L76.9998 40.908C75.8282 41.884 76.0229 45.5728 76.0229 45.5728Z" fill="#000D44"/>
<path d="M76.9977 40.9139L75.9111 40.8962H75.8274L73.0408 40.8398L71.8834 40.8163L71.8622 40.8304C70.5727 41.6206 70.8606 44.1171 70.8606 44.1171C71.2499 46.4466 70.0819 49.5533 70.0819 49.5533C69.0756 51.3607 67.7542 52.285 66.7148 52.7566H70.647C71.7759 52.7678 72.877 52.4082 73.7805 51.7335C74.6496 51.0852 75.2399 50.1326 75.4322 49.0677C75.7492 47.9261 75.9469 46.755 76.022 45.5729C76.022 45.5729 75.8286 41.884 76.9977 40.9139Z" fill="#5468FF"/>
<path d="M67.3083 52.3673H66.1392V66.1503H67.3083V52.3673Z" fill="#5468FF"/>
<path d="M70.6068 65.5682H62.8404C62.5531 65.5682 62.2776 65.6819 62.0745 65.8844C61.8714 66.0868 61.7573 66.3614 61.7573 66.6477V66.7335H71.691V66.6477C71.691 66.5058 71.6629 66.3654 71.6084 66.2343C71.5539 66.1033 71.474 65.9842 71.3734 65.884C71.2727 65.7837 71.1531 65.7042 71.0216 65.65C70.8901 65.5959 70.7491 65.5681 70.6068 65.5682Z" fill="#5468FF"/>
<path d="M62.9737 32.566L62.3956 34.5544C62.3965 34.5575 62.3965 34.5608 62.3956 34.5639L62.2246 35.1518C62.2246 35.1518 59.6656 33.5361 58.6911 33.3421C57.7167 33.148 56.354 31.9827 56.354 31.9827C56.354 31.9827 54.9902 30.8244 54.4003 29.4604C53.8104 28.0963 52.8419 27.907 52.8419 27.907C50.8941 27.319 51.6727 25.9655 51.6727 25.9655C51.6825 25.9599 51.6916 25.9532 51.6998 25.9455C51.7777 25.8762 51.9629 25.6033 51.478 24.8002C50.8882 23.8301 51.6727 24.4121 51.6727 24.4121L55.5659 28.2927C57.9101 31.4018 62.9737 32.566 62.9737 32.566Z" fill="#F5B58F"/>
<path d="M65.8962 28.101C65.8962 28.101 65.5069 30.0424 65.8962 31.0126C66.2855 31.9827 66.6748 31.9827 67.26 31.9827C67.8452 31.9827 69.9864 31.5946 69.9864 31.5946L69.301 28.4067L65.8962 28.101Z" fill="#F5B58F"/>
<path d="M76.4135 36.6429C76.555 40.1707 74.1318 40.1084 72.7916 39.8179C72.296 39.7059 71.8402 39.4621 71.4726 39.1123C70.6468 38.3374 70.3624 38.2245 69.8363 38.0058C69.4193 37.8388 69.0138 37.6447 68.6223 37.4249C66.8691 36.4548 68.6223 34.3193 68.6223 34.3193L68.7202 32.4755C66.9671 31.1161 67.9416 30.34 67.9416 30.34C68.3309 28.3985 66.9682 29.752 66.9682 29.752C65.6044 29.1641 65.7023 28.2962 65.7023 28.2962C65.7023 28.2962 64.394 27.3649 65.4416 26.0479C65.4617 26.0208 65.4841 25.9938 65.5077 25.9667C66.3949 24.9354 67.7304 24.9084 68.3226 24.9578C68.5195 24.9699 68.717 24.9628 68.9125 24.9366C70.1961 24.7908 71.1033 26.3089 71.508 27.1591C71.6664 27.4965 71.9523 27.7577 72.3032 27.8858L72.4707 27.9482C73.0755 28.1815 73.5773 28.6217 73.8864 29.19C74.1955 29.7584 74.2917 30.4177 74.1578 31.0502C74.1188 31.2246 74.0951 31.4021 74.087 31.5806C74.0386 32.5989 74.5435 33.5514 75.3411 34.1888C76.8748 35.4105 76.4135 36.6429 76.4135 36.6429Z" fill="#000D44"/>
<path d="M54.7945 66.7335C53.7311 66.8127 52.6641 66.8335 51.5985 66.7959C51.3448 66.7841 51.11 66.7629 50.8989 66.7335C49.5351 66.5395 50.7042 65.9574 50.7042 65.9574L53.4307 64.7921L54.5821 65.079L54.9891 65.1801C55.9624 66.7335 54.7945 66.7335 54.7945 66.7335Z" fill="#000D44"/>
</svg>
