<svg width="107" height="36" viewBox="0 0 107 36" fill="none" xmlns="http://www.w3.org/2000/svg">
<path d="M34.5938 18H25.875V1.40625C25.875 0.61875 25.2562 0 24.4688 0H1.40625C0.61875 0 0 0.61875 0 1.40625V24.4688C0 25.2562 0.61875 25.875 1.40625 25.875H18V34.5938C18 35.3812 18.6188 36 19.4062 36H34.5938C35.3812 36 36 35.3812 36 34.5938V19.4062C36 18.6188 35.3812 18 34.5938 18ZM2.8125 23.0625V2.8125H23.0625V18H19.4062C18.6188 18 18 18.6188 18 19.4062V23.0625H2.8125ZM23.0625 20.8125V23.0625H20.8125V20.8125H23.0625ZM33.1875 33.1875H20.8125V25.875H24.4688C25.2562 25.875 25.875 25.2562 25.875 24.4688V20.8125H33.1875V33.1875Z" fill="#2F80ED"/>
<path d="M43.3 28.9999H46.435V19.0009H53.86V16.5259H46.435V8.77094H55.015L55.378 6.26294H43.3V28.9999Z" fill="#2F80ED"/>
<path d="M62.6449 6.26294H59.5099V28.9999H71.6209L71.9839 26.2609H62.6449V6.26294Z" fill="#2F80ED"/>
<path d="M88.0565 28.9999H91.3565L84.0965 6.26294H80.1365L72.8435 28.9999H76.0115L77.7275 23.2909H86.3405L88.0565 28.9999ZM78.4865 20.7499L82.0505 8.86994L85.5815 20.7499H78.4865Z" fill="#2F80ED"/>
<path d="M106.65 6.26294H90.4139V8.93594H96.8819V28.9999H100.017V8.93594H106.32L106.65 6.26294Z" fill="#2F80ED"/>
</svg>
